<svg xmlns="http://www.w3.org/2000/svg" width="321" height="48" viewBox="0 0 321 48">
    <g fill="none" fill-rule="nonzero">
        <path fill="#28DDCB" d="M23.738 2.597c2.23 1.064 4.065 2.528 5.442 4.524a16.615 16.615 0 0 1 2.82 6.72h-9.64c-.524-1.33-1.376-2.328-2.491-3.127-1.115-.732-2.426-1.13-3.869-1.13-2.033 0-3.672.798-4.918 2.328-1.246 1.53-1.836 3.593-1.836 6.121 0 2.529.59 4.591 1.836 6.122 1.246 1.53 2.885 2.328 4.918 2.328 1.443 0 2.754-.399 3.869-1.13 1.115-.733 1.967-1.797 2.492-3.128H32c-.721 3.926-2.492 7.053-5.311 9.315C23.934 33.87 20.393 35 16.13 35c-3.279 0-6.098-.732-8.59-2.13-2.36-1.396-4.262-3.393-5.574-5.987C.656 24.288 0 21.36 0 18.033s.656-6.254 1.967-8.849C3.28 6.589 5.18 4.593 7.607 3.129 10.033 1.665 12.918 1 16.197 1c2.82 0 5.311.532 7.54 1.597zM56.218 9.712c2.149 1.054 3.76 2.634 4.97 4.676C62.395 16.429 63 18.8 63 21.5c0 2.766-.604 5.137-1.813 7.178-1.209 2.042-2.887 3.622-4.969 4.676C54.07 34.474 51.72 35 49.034 35c-2.686 0-5.104-.527-7.185-1.646-2.149-1.12-3.827-2.634-5.036-4.676C35.604 26.637 35 24.266 35 21.5s.604-5.137 1.813-7.178c1.209-2.042 2.887-3.556 5.036-4.676A16.202 16.202 0 0 1 49.034 8c2.618 0 5.036.659 7.184 1.712zm-10.475 7.77c-.872.923-1.275 2.306-1.275 4.084 0 1.844.403 3.16 1.275 4.149.873.922 1.948 1.383 3.223 1.383 1.276 0 2.35-.461 3.223-1.45.873-.921 1.276-2.304 1.276-4.082s-.403-3.161-1.276-4.083c-.872-.922-1.947-1.383-3.223-1.383-1.275 0-2.35.461-3.223 1.383zM92.356 11.025C94.119 13.107 95 15.86 95 19.42V35h-9.356V20.628c0-1.544-.407-2.753-1.22-3.626-.814-.873-1.899-1.343-3.322-1.343-1.424 0-2.509.47-3.39 1.343-.814.94-1.22 2.149-1.22 3.76V35H67V8.204h9.492v4.5c.745-1.41 1.898-2.552 3.39-3.425 1.49-.873 3.186-1.276 5.22-1.276 3.05-.067 5.491 1.007 7.254 3.022zM113.803 9.294c1.312.79 2.36 1.911 3.017 3.295V0H126v34.67h-9.18v-4.152c-.656 1.384-1.64 2.505-3.017 3.296-1.311.79-2.95 1.186-4.787 1.186-2.098 0-3.934-.527-5.639-1.648-1.705-1.054-3.016-2.636-3.934-4.68C98.459 26.63 98 24.256 98 21.488c0-2.769.459-5.141 1.443-7.185.983-2.043 2.295-3.56 3.934-4.68 1.705-1.054 3.541-1.647 5.64-1.647 1.835.131 3.41.527 4.786 1.318zm-5.246 8.305c-.918.923-1.311 2.307-1.311 3.955 0 1.713.459 3.032 1.311 4.02.918.923 2.033 1.45 3.476 1.45 1.377 0 2.492-.46 3.41-1.45.918-.988 1.377-2.307 1.377-3.954 0-1.648-.46-2.967-1.377-3.955-.918-.989-2.033-1.45-3.41-1.45-1.443-.066-2.558.395-3.476 1.384zM156.8 23.146h-17.644c.134 2.964 1.47 4.478 3.943 4.478.936 0 1.67-.197 2.272-.658.602-.461 1.003-.988 1.203-1.712h9.891c-.334 1.844-1.136 3.49-2.339 5.005-1.203 1.514-2.74 2.634-4.544 3.49-1.872.856-3.877 1.251-6.015 1.251-2.673 0-5.013-.527-7.084-1.646-2.072-1.054-3.61-2.634-4.745-4.676C130.6 26.637 130 24.266 130 21.5s.601-5.137 1.738-7.178c1.136-2.042 2.74-3.556 4.812-4.676C138.62 8.593 140.96 8 143.567 8c2.673 0 5.012.527 7.017 1.58 2.005 1.054 3.61 2.569 4.745 4.544 1.136 1.976 1.671 4.28 1.671 6.85 0 .658-.067 1.382-.2 2.172zm-10.36-6.914c-.735-.659-1.737-1.054-2.873-1.054-1.203 0-2.272.33-3.008 1.054-.802.658-1.203 1.712-1.336 3.029h8.287c.067-1.317-.334-2.37-1.07-3.03zM177.577 36l-5.011-6.902L168.69 36H158.4l8.887-14.143L158 9h10.423l5.011 6.835L177.31 9h10.29l-9.155 13.805L188 36zM211.218 9.712c2.149 1.054 3.76 2.634 4.97 4.676C217.395 16.429 218 18.8 218 21.5c0 2.766-.604 5.137-1.813 7.178-1.209 2.042-2.887 3.622-4.969 4.676-2.148 1.12-4.499 1.646-7.184 1.646-2.686 0-5.104-.527-7.185-1.646-2.149-1.12-3.827-2.634-5.036-4.676C190.604 26.637 190 24.266 190 21.5s.604-5.137 1.813-7.178c1.209-2.042 2.887-3.556 5.036-4.676A16.202 16.202 0 0 1 204.034 8c2.685.132 5.103.659 7.184 1.712zm-10.407 7.77c-.873.923-1.276 2.306-1.276 4.084 0 1.844.403 3.16 1.276 4.149.872.987 1.947 1.383 3.223 1.383 1.275 0 2.35-.461 3.223-1.45.872-.921 1.275-2.304 1.275-4.082s-.403-3.161-1.275-4.083c-.873-.922-1.948-1.383-3.223-1.383-1.276 0-2.35.461-3.223 1.383z"/>
        <path fill="#1A315B" d="M239.192 24.6V36H230V2h13.722c4.005 0 7.025 1.012 9.126 3.103C254.95 7.194 256 9.893 256 13.401c0 2.159-.46 4.047-1.379 5.734-.919 1.686-2.298 3.036-4.202 3.98-1.838.945-4.07 1.484-6.697 1.484h-4.53zm7.485-11.2c0-2.495-1.313-3.71-4.005-3.71h-3.48v7.556h3.48c2.692-.067 4.005-1.35 4.005-3.845zM274.84 9.251c1.38.79 2.367 1.91 3.024 3.293V8.395H287v26.276h-9.136v-4.149c-.657 1.383-1.643 2.502-3.024 3.293-1.38.79-2.957 1.185-4.798 1.185-2.103 0-3.943-.527-5.652-1.646-1.71-1.054-3.024-2.634-3.944-4.676C259.46 26.637 259 24.266 259 21.5s.46-5.137 1.446-7.178c.986-2.042 2.3-3.556 3.944-4.676C266.099 8.593 267.939 8 270.042 8c1.906.066 3.484.461 4.798 1.251zm-5.192 8.298c-.92.922-1.315 2.305-1.315 3.951 0 1.712.46 3.03 1.315 4.017.92.922 2.037 1.449 3.483 1.449 1.38 0 2.498-.461 3.418-1.449.92-.988 1.38-2.305 1.38-3.951s-.46-2.964-1.38-3.951c-.92-.988-2.037-1.45-3.418-1.45-1.446-.065-2.629.396-3.483 1.384zM299.555 9l5.714 14.74L310.579 9H321l-17.008 39h-10.353l6.52-13.75L289 9z"/>
    </g>
</svg>
