<svg xmlns="http://www.w3.org/2000/svg" width="30" height="29" viewBox="0 0 30 29">
    <path fill="#009688" fill-rule="nonzero" d="M27 6.105h-3.27c.165-.473.27-.992.27-1.526C24 2.045 21.99 0 19.5 0c-1.575 0-2.94.824-3.75 2.06L15 3.084l-.75-1.038C13.44.825 12.075 0 10.5 0 8.01 0 6 2.045 6 4.579c0 .534.105 1.053.27 1.526H3C1.335 6.105.015 7.464.015 9.158L0 25.948C0 27.641 1.335 29 3 29h24c1.665 0 3-1.358 3-3.053V9.157c0-1.693-1.335-3.052-3-3.052zm-7.5-3.052c.825 0 1.5.686 1.5 1.526s-.675 1.526-1.5 1.526S18 5.418 18 4.58c0-.84.675-1.526 1.5-1.526zm-9 0c.825 0 1.5.686 1.5 1.526s-.675 1.526-1.5 1.526S9 5.418 9 4.58c0-.84.675-1.526 1.5-1.526zM27 25.947H3v-3.052h24v3.052zm0-7.631H3V9.158h7.62l-3.12 4.32 2.43 1.785 3.57-4.945L15 8.242l1.5 2.076 3.57 4.945 2.43-1.786-3.12-4.32H27v9.159z"/>
</svg>
