<svg xmlns="http://www.w3.org/2000/svg" xmlns:xlink="http://www.w3.org/1999/xlink" width="271" height="272" viewBox="0 0 271 272">
    <defs>
        <path id="a" d="M0 .16h260.972V205.68H0z"/>
        <path id="c" d="M.074.542H73.71V24.9H.074z"/>
        <path id="e" d="M.258.247h16.364V6H.258z"/>
    </defs>
    <g fill="none" fill-rule="evenodd">
        <g transform="translate(0 53)">
            <mask id="b" fill="#fff">
                <use xlink:href="#a"/>
            </mask>
            <path fill="#FFF" d="M10.741 70.814c6.108-9.086 14.799-16.473 25.523-19.287 18.53-4.86 38.79 3.94 57.772 2.869 19.004-1.072 36.675-7.573 51.31-19.865 26.343-22.125 50.333-41.896 78.087-31.54 27.754 10.357 55.507 52.252 22.579 93.208-8.868 11.03-14.548 15.505-23.05 26.832-6.96 9.274-6.372 22.101-2.5 32.47 11.49 30.779-20.373 56.086-49.714 48.967-31.046-7.532-36.22-46.132-75.733-54.606-32.839-7.042-83.68 20.208-93.328-28.285C-.218 112.002-.575 103.056.95 94.49c1.455-8.168 4.622-15.989 9.791-23.677z" mask="url(#b)"/>
        </g>
        <path fill="#E1E1E1" d="M7.567 114.251c3.52-7.513 8.603-14.248 15.585-20.336 8.252-7.195 18.558-12.081 29.646-12.024 19.155.1 36.448 13.845 55.06 17.724 18.634 3.883 37.385 2.177 54.704-5.908 31.17-14.554 59.46-27.441 83.589-10.255 24.127 17.187 40.091 64.838-2.315 95.876-11.42 8.358-18.065 11.21-29.208 19.951-9.125 7.157-11.876 19.7-10.82 30.716 3.132 32.704-34.194 48.903-60.693 34.433-28.04-15.311-23.047-53.935-59.02-72.347-29.897-15.301-86.058-2.138-82.826-51.477.637-9.741 2.608-18.475 6.298-26.353" opacity=".787"/>
        <path fill="#EAAD7B" d="M77 91.426s-9.408-10.418-11.52-16.591c-2.113-6.174-3.264-12.541-6.528-13.699-3.264-1.157-4.608 5.403-3.649 6.946.96 1.543 2.689 1.929 4.8 6.753 2.113 4.823 9.409 20.45 11.905 22.765C74.504 99.915 77 91.426 77 91.426M111.84 254.2s-.185 4.6.932 5.8c1.117 1.2-2.234 4-2.234 4L107 261.6s2.048-1.4.745-7.6l4.096.2zM181.074 105s4.65-11.154 11.238-18.461c6.587-7.308 6.006-8.847 5.23-10.962-.774-2.115-4.456-2.5-5.618 1.346-1.163 3.846-5.425 10.577-7.944 13.27-2.519 2.692-6.975 7.692-8.719 9.23-1.744 1.539 5.813 5.577 5.813 5.577"/>
        <path fill="#2F4694" d="M112.334 154.41s-1.36.952-.972 5.146c.389 4.192-1.555 17.723-5.637 29.349 0 0-1.555 3.24-.194 6.479 1.361 3.24-1.555 3.24 1.166 4.955 2.721 1.715 3.305 4.764 2.527 8.004-.777 3.24 2.915 7.623 2.722 13.722 0 0-.584 3.811.972 5.336 1.554 1.525-.972 4.192-.195 6.099.777 1.905 1.555 1.715 2.333 4.383.777 2.667 2.527 1.906 1.75 4.954-.779 3.05-.196 10.482-3.306 10.864-3.11.381-7.969 2.477-9.719.381-1.749-2.097 0-3.812-2.137-5.527-2.139-1.715.194-2.668-1.361-5.908s-1.75-3.43.194-10.1c0 0 1.167-2.288-2.721-9.91-3.888-7.624-5.637-11.816-9.913-32.399 0 0-1.555-3.621-.973-9.529.584-5.908.584-6.86-.194-13.912 0 0-11.08 7.814-12.829 8.004-1.75.191-4.276 3.812-.389 4.575 3.888.762 5.248.38 7.581 2.668 2.333 2.287 7.775 2.858 7.775 2.858l2.722 16.39s-4.86 1.143-6.998-1.143c-2.138-2.287-7.387-.19-11.663-4.194-4.276-4.001-15.356-.571-21.381-6.479-6.026-5.908-6.803-12.96 2.721-23.441 0 0 4.082-3.812 7.97-5.908 0 0 .388-.382 0-1.715-.39-1.334 3.887-2.668 4.276-3.811.389-1.144-.195-2.478 5.053-3.812 5.249-1.334-.582-3.812 5.249-7.242 5.831-3.43 30.129-6.099 35.571 10.863"/>
        <path fill="#182C5D" d="M89 193s4.592.389 6.189 2.529c1.597 2.14.4 4.28 1.397 6.227.998 1.945 2.396 6.031.4 7.588A153.043 153.043 0 0 0 93.663 212s-1.868-5.186-4.663-19"/>
        <path fill="#00040A" d="M105.407 189s1.971.625 1.774 2.707c-.197 2.082 2.169 1.457 1.775 4.997-.395 3.54.985 3.957-1.972 5.206-2.957 1.249-4.14-10.828-1.577-12.91"/>
        <path fill="#EAAD7B" d="M111.09 192.4s.206 3-4.09 1.6l.818 4.4s2.455-1.6 5.318 1.6l2.864-.2-.204-4-2.864-3.8-1.841.4z"/>
        <path fill="#231126" d="M112 193.482s.818-1.652 2.454-1.468c1.608.18 5.786 4.088 5.535 12.595-.007.243-.254.426-.521.385-1.118-.174-3.83-.962-5.424-4.538 0 0 1.227-.551 1.84-1.652 0 0-.817-3.854-3.884-5.322"/>
        <path fill="#182C5D" d="M54.5 167s4.477 4.232 1.449 6.713c-3.028 2.48-4.353 4.77-7.949 4.198 0 0 .284-4.485 6.5-10.911"/>
        <path fill="#EAAD7B" d="M126 83.746s-4.368 8.78-4.886 10.327c-.518 1.546-4.134 5.696-9.795.065-1.318-.96 1.877-6.21 1.877-6.21L121.519 82 126 83.746z"/>
        <path fill="#231126" d="M106.735 261.522s-3.35 1.945-2.635 7.832c.06.5.68.792 1.198.57 3.18-1.358 12.221-5.83 7.23-10.924 0 0-.207 1.801-1.655 3.062 0 0-1.034-.72-4.138-.54"/>
        <path fill="#2BCCAE" d="M88.799 109.455c-5.918 0-3.628-1.358-9.164-2.91C74.1 104.994 72 98.206 72 98.206 72.19 92.388 76.963 92 76.963 92s5.345 6.594 6.872 5.237c1.527-1.358 1.718-.582 2.29-.195.574.388 2.1-1.939 3.628-1.55 1.527.387 3.054-2.134 4.581-1.165 1.527.97 3.245 0 3.245 0 4.39-3.49 6.3 1.358 7.063-.582.142-.36.416-.64.775-.876 1.138-.75 2.609-.74 3.78-.046.855.507 1.635 1.117 2.413 1.796 3.008 2.327 6.553.725 9.668-1.12 2.133-1.265 4.859-1.03 6.664.684.317.301.575.61.753.92 1.336 2.327 2.29 2.327 2.29 2.327 4.01-.388 2.1 1.164 7.446 1.552 5.344.388 4.772 4.849 8.59 4.073 3.818-.776 4.39.387 4.581.582.19.194 4.009 2.133 6.109 2.133 2.1 0 3.627-.776 4.39-.582.765.194.955 1.943 1.338 1.356.348-.535.992-.661 1.462-.233.335.306.636-.153.636-.153 1.336-2.91 2.482.194 3.054-1.358.573-1.551 6.682-6.012 6.682-6.012 4.2 2.133 5.727 5.624 5.727 5.624s-.955 3.685-3.436 4.848c-2.482 1.164-2.291 1.94-2.291 1.94-.764 3.88-1.527 3.297-2.482 3.103-.954-.194-1.527 2.715-3.436 2.327-1.909-.388-3.054.582-4.2 1.552-1.145.97-3.626-1.552-4.2.193-.572 1.746-2.1.776-2.1.776-.38-.969-1.717-.581-1.717-.581-2.673 1.746-5.727-.776-9.354-.776-3.627 0-9.736 1.164-11.453-.776-1.718-1.939-4.964 2.715-6.682 4.267-1.717 1.552-13.935 8.34-13.744 16.485.191 8.145-.573 8.921-2.29 8.921-1.718 0-1.146 1.164-1.146 1.164 1.527 4.266-.19 8.145-.19 8.145s0-.582-1.91-1.94c-1.909-1.357-6.108-1.939-7.253-2.715-1.146-.775-7.636-4.266-11.263-4.46-3.627-.194-5.346-3.685-8.018-2.522-2.672 1.165-6.49.582-6.49.582 0-1.938 1.145-3.296 2.1-4.848.954-1.551 2.29-2.133 1.336-5.236-.955-3.103 5.918-6.594 5.726-8.146-.19-1.551 3.246-7.564 5.727-11.248 2.482-3.685.955-6.4.955-6.4l-4.39.388z"/>
        <path fill="#6BDDC7" d="M116 133s-12.26 3.866-4.329 14c0 0-.566-1.147 1.133-1.147 1.7 0 2.134-.633 2.294-6.244 0 0-.434-4.357.902-6.609M87.364 123s3.745 12.326-6.938 14c0 0 .187-.939-.354-2.64-.542-1.702 2.108-3.911 3.68-5.233 1.57-1.322 2.37-1.905 2.37-2.681s.286-1.651 1.242-3.446"/>
        <path fill="#1B1177" d="M113.135 69.637s-4.286-2.956-4.13-6.177c.154-3.22 3.352-6.072 6.324-6.397 2.802-.306 10.046.282 13.663 6.627a2.528 2.528 0 0 0 1.896 1.272c1.581.19 4.165.96 4.994 3.921 1.224 4.37-7.493 12.03-7.493 12.03l-6.293.087-4.9-5.72-4.06-5.643z"/>
        <path fill="#EAAD7B" d="M112.588 70.172s-2.948 4.453-4.374 8.455c-1.426 4.002-2.932 10.703 3.92 12.175 6.853 1.473 10.829-5.774 10.829-5.774s3.554 1.232 5.787-.816c2.232-2.05 1.235-5.074-1.102-4.686-2.339.387-5.524.499-3.973-2.353 1.55-2.851 4.638-5.934.975-8.173 0 0-7.352 4.578-12.062 1.172M183.528 258s1.51 5.587-3.962 7.508L179 269l8.49-.35 1.51-2.618s-3.02-3.317 0-7.508l-5.472-.524z"/>
        <path fill="#182C5D" d="M202.517 155s3.337 8.762 0 15.472c-3.336 6.711-7.228 13.608-8.34 18.641-1.112 5.033-.37 19.946-1.483 24.048-1.112 4.1 2.224 6.151.37 14.353 0 0-.184 5.779.557 8.015.741 2.238 1.482 2.983-.186 7.643-1.667 4.66 1.854 3.356-.185 11.185 0 0-.556 5.593.741 7.643 0 0-5.745-.373-13.715-2.61 0 0-1.112-3.355 1.298-10.625 2.409-7.27-1.854-7.456-1.113-16.218.742-8.761-4.262-4.66-4.077-14.353 0 0-.742-2.424-2.04-4.475-1.296-2.05 1.484-18.64 1.484-18.64s1.39-15.939-.834-18.362C172.769 174.294 202.517 155 202.517 155"/>
        <path fill="#1B1177" d="M176.297 143s-6.523-.373-9.878-5.033c0 0-1.304-1.492-4.473-1.864-3.169-.374-8.76-1.492-8.946-10.067 0 0 0-2.61 2.05-4.66 2.05-2.05-.932-7.83 1.864-12.117 2.795-4.288 15.283-6.525 17.147-13.795 1.863-7.27 7.269-10.253 9.318-10.812 2.051-.56 5.22-2.61 8.388-1.119 3.168 1.492 2.982 2.983 5.405 6.338 2.423 3.356.373 11.931 2.237 13.982 1.863 2.05 16.774 10.812 18.079 19.014 1.304 8.202.372 10.253-5.779 14.354-6.15 4.101-8.013 5.034-14.91 5.22-6.896.186-20.502.559-20.502.559"/>
        <path fill="#EAAD7B" d="M183.354 101.648s8.339-4.32 9.666-11.648c0 0 2.274 4.697 3.98 5.824 0 0-.569 10.145-6.633 14.09 0 0 1.326 4.509 6.443 2.63 0 0-2.463 3.006-3.222 6.2-.758 3.193-6.443 3.193-8.149 3.193-1.705 0-9.287.564-10.233-1.69-.95-2.255 1.515-6.2 4.737-8.642 0 0 5.117-.564 3.411-9.957M182 203.438s5.5 3.562 4.435 6.937l1.597 2.625 4.968-7.125-1.774-3s-5.323-.187-8.517-4.875l-.709 5.438z"/>
        <g transform="translate(193 103)">
            <mask id="d" fill="#fff">
                <use xlink:href="#c"/>
            </mask>
            <path fill="#EAAD7B" d="M6.522 24.884s.563-2.83.375-5.472c-.187-2.64 4.502-4.528 9.19-4.717 4.69-.189 29.449-2.83 36.014-4.34 6.565-1.51 10.879-2.83 14.443-.943s8.253-3.774 6.94-6.228C72.171.732 70.483-.4 65.794 1.487c-4.69 1.886-8.441 4.717-20.445 4.15-12.005-.565-35.826.567-40.89 2.831-5.065 2.264-7.315 16.983 2.063 16.416" mask="url(#d)"/>
        </g>
        <path fill="#EAAD7B" d="M180 110.228s-8.68-5.01-14.08-20.597c0 0-4.051-8.35 4.05-28.39 0 0 1.656-3.319 3.472-5.939 1.543-2.227-1.35-7.979-4.63-7.236-3.191.722-4.05 3.154-4.05 7.978 0 4.825 0 6.495-2.7 12.247-2.701 5.753-5.016 16.515-3.665 20.783 1.35 4.268 5.401 13.731 10.994 23.009 5.594 9.278 3.665 13.917 3.665 13.917L180 110.228z"/>
        <path fill="#D7BDA9" d="M173.274 149.881s-2.464 3.56 7.392 7.119c0 0 19.334-3.934 19.334-9.93 0-5.994-24.452-5.62-26.726 2.811"/>
        <path fill="#EAAD7B" d="M178.833 155s-1.134-6.812-.756-8.56c.378-1.746 19.654-2.27 21.922.525l.001.555s-15.498-1.603-21.167 7.48"/>
        <path fill="#121639" d="M179 155.232s.28.406.333.768c0 0 4.298-9.612 21.667-8.106l-.386-.753s-15.632-1.882-21.614 8.091"/>
        <path fill="#2F4694" d="M178.358 155.197s-2.925 3.158-12.064 4.831c-9.14 1.673-15.72 4.646-18.463 10.221-2.742 5.575 1.828 12.636 6.033 13.195 0 0 1.645.929 2.376 3.159.731 2.23 9.87 4.83 10.785 6.318.914 1.487 2.194 4.274 6.764 6.132 0 0 2.924.93 3.839 5.947 0 0 8.225-3.16 11.881-8.362 0 0-3.29-4.46-7.495-7.062-4.204-2.602-2.193-4.831-6.946-6.69-4.752-1.859-.914-2.23-4.204-4.088 0 0 2.56.557 4.57-.372 2.01-.93 2.01 1.3 5.85-.743 3.838-2.045 4.386.929 12.795-2.788 8.409-3.717 12.613-16.354 4.753-27.69 0 0-14.99-2.23-20.474 7.992"/>
        <path fill="#EED8C3" d="M179.452 111.56s-.367-.374-1.468-.56c0 0-4.036 3.919-6.054 9.703 0 0-.917 1.307-1.468 4.479-.55 3.172-1.1 6.158 1.468 11.383 2.569 5.224 2.201 8.583 1.1 13.435 0 0 1.652-2.986 6.055-2.613 4.403.374 3.485 1.493 8.99-.56 5.503-2.052 10.824.374 10.824.374s-.368-1.866.733-3.919c1.1-2.052-.55-5.038-1.284-7.278-.734-2.238.367-4.851 1.284-7.65 0 0-5.87.56-6.237-7.464 0 0 .366-5.598 4.22-8.77l-1.835.373s-2.202 2.426-3.12 6.158c-.917 3.732-9.356 3.172-9.356 3.172s-7.522.747-8.438-1.68c-.918-2.425 1.834-6.717 4.586-8.583"/>
        <g transform="translate(174 266)">
            <mask id="f" fill="#fff">
                <use xlink:href="#e"/>
            </mask>
            <path fill="#060018" d="M6.124.247S1.455 1.514.27 5.58c-.064.22.133.43.388.42l15.06-.633c.369-.016.676-.253.742-.573.197-.95.423-2.91-.713-4.038 0 0-2.887 2.038-7.506 1.868 0 0-.577-1.188-2.117-2.377" mask="url(#f)"/>
        </g>
        <path fill="#060018" d="M186.39 209.889s-1.211 5.281.637 7.932c.177.254.535.233.697-.034l8.15-13.416a.874.874 0 0 0-.045-.971c-.598-.781-2.07-2.07-4.814-.982 0 0 .342 3.922-2.227 7.657 0 0-1.37.747-2.398-.186"/>
        <path fill="#2BD4B5" d="M195 26.5c0 14.635-12.088 26.5-27 26.5s-27-11.865-27-26.5C141 11.864 153.088 0 168 0s27 11.864 27 26.5"/>
        <path fill="#FFF" d="M165.19 36.568l-9.75-9.588a1.458 1.458 0 0 1 0-2.087l2.12-2.085a1.518 1.518 0 0 1 2.122 0l6.568 6.459 14.069-13.835a1.517 1.517 0 0 1 2.12 0l2.122 2.086c.585.576.585 1.51 0 2.086l-17.25 16.964a1.52 1.52 0 0 1-2.122 0"/>
        <path fill="#28DDCB" d="M241 197c-6.075 0-11-4.925-11-11s4.925-11 11-11 11 4.925 11 11-4.925 11-11 11z"/>
        <path fill="#28DDCB" d="M33 103c-6.075 0-11-4.925-11-11s4.925-11 11-11 11 4.925 11 11-4.925 11-11 11z" opacity=".585"/>
    </g>
</svg>
