<svg xmlns="http://www.w3.org/2000/svg" width="175" height="175" viewBox="0 0 175 175">
    <g fill="none" fill-rule="evenodd">
        <path fill="#FFC107" d="M87.5 0C39.25 0 0 39.25 0 87.5S39.25 175 87.5 175 175 135.75 175 87.5 135.75 0 87.5 0"/>
        <path fill="#ECEFF1" d="M100 145c0 6.628-5.372 12-12 12-6.627 0-12-5.372-12-12s5.373-12 12-12c6.628 0 12 5.372 12 12"/>
        <path fill="#FAFAFA" d="M102.45 99.706a9.497 9.497 0 0 0-5.506 8.595v4.245c0 5.218-4.222 9.454-9.444 9.454s-9.444-4.236-9.444-9.454v-4.245c0-11.034 6.478-21.15 16.48-25.773 9.624-4.434 16.574-16.206 16.574-21.983 0-13.027-10.587-23.635-23.61-23.635S63.89 47.518 63.89 60.545c0 5.22-4.223 9.456-9.446 9.456S45 65.765 45 60.545C45 37.09 64.067 18 87.5 18c23.432 0 42.5 19.09 42.5 42.545 0 12.775-11.07 31.55-27.55 39.161"/>
    </g>
</svg>
