<svg xmlns="http://www.w3.org/2000/svg" width="40" height="41" viewBox="0 0 40 41">
    <g fill="none" fill-rule="evenodd">
        <path fill="#FFDA2D" d="M20 1C9.535 1 1 9.76 1 20.5S9.535 40 20 40s19-8.76 19-19.5S30.465 1 20 1"/>
        <path stroke="#EA4800" stroke-width=".25" d="M20 1C9.535 1 1 9.76 1 20.5S9.535 40 20 40s19-8.76 19-19.5S30.465 1 20 1z"/>
        <path fill="#FDBF00" d="M37.383 20.085c0 10.054-7.99 18.255-17.787 18.255V1.83c9.797 0 17.787 8.2 17.787 18.255"/>
        <path fill="#FF9100" d="M27.566 25.734l2.54 1.564c-1.92 3.279-5.11 5.234-8.537 5.234-.501 0-1.004-.03-1.476-.15-2.246-.331-4.313-1.565-5.908-3.46a12.133 12.133 0 0 1-2.216-3.91H8.277v-3.008h3.072c-.06-.511-.118-.993-.118-1.504s.059-.993.118-1.504H8.277v-3.008h3.692a12.122 12.122 0 0 1 2.216-3.91c1.595-1.895 3.662-3.129 5.908-3.46.472-.12.975-.15 1.476-.15 3.427 0 6.617 1.955 8.537 5.234l-2.54 1.565c-1.388-2.377-3.633-3.79-5.997-3.79-.501 0-1.004.06-1.476.21-1.36.3-2.63 1.113-3.663 2.346-.503.572-.887 1.263-1.212 1.955h7.828v3.008h-8.743c-.06.482-.118.993-.118 1.504s.059 1.023.118 1.504h8.743v3.008h-7.828c.325.692.71 1.384 1.212 1.955 1.033 1.234 2.304 2.045 3.663 2.346.472.15.975.211 1.476.211 2.364 0 4.609-1.414 5.997-3.79"/>
    </g>
</svg>
