<svg xmlns="http://www.w3.org/2000/svg" xmlns:xlink="http://www.w3.org/1999/xlink" width="35" height="43" viewBox="0 0 35 43">
    <defs>
        <path id="a" d="M.067.082h8.398V8.67H.067z"/>
    </defs>
    <g fill="none" fill-rule="evenodd">
        <path fill="#FFDE55" d="M27.801 14.496h-4.936l2.307-8.48c.602-2.212-1.024-4.401-3.27-4.401H11.187c-2.054 0-3.79 1.56-4.053 3.644L4.998 22.165c-.295 2.335 1.483 4.402 3.784 4.402h5.511l-.266 13.444c-.04 1.972 2.515 2.7 3.48.992L30.135 18.63c1.037-1.837-.26-4.133-2.334-4.133"/>
        <path stroke="#FF1212" stroke-width=".25" d="M27.801 14.496h-4.936l2.307-8.48c.602-2.212-1.024-4.401-3.27-4.401H11.187c-2.054 0-3.79 1.56-4.053 3.644L4.998 22.165c-.295 2.335 1.483 4.402 3.784 4.402h5.511l-.266 13.444c-.04 1.972 2.515 2.7 3.48.992L30.135 18.63c1.037-1.837-.26-4.133-2.334-4.133z"/>
        <path fill="#FFCD00" d="M29.036 18.798c1.064-2.082.114-3.645-2.036-3.678h-4.91l2.392-8.66c.553-2.162-.94-4.304-3-4.304h-4.266s-.631 25.688-.325 38.842c4.017-7.607 8.128-14.593 12.145-22.2z"/>
        <g transform="translate(26.234 .003)">
            <mask id="b" fill="#fff">
                <use xlink:href="#a"/>
            </mask>
            <path fill="#FFDE55" d="M5.176.634l.385.719c.383.717.96 1.307 1.661 1.7l.703.392c.72.403.72 1.46 0 1.862l-.703.393a4.23 4.23 0 0 0-1.661 1.7l-.385.718a1.027 1.027 0 0 1-1.82 0L2.97 7.4A4.23 4.23 0 0 0 1.31 5.7l-.703-.393c-.72-.403-.72-1.46 0-1.862l.703-.393A4.229 4.229 0 0 0 2.97 1.353l.385-.719a1.027 1.027 0 0 1 1.82 0" mask="url(#b)"/>
        </g>
        <path fill="#FFCD00" d="M5.22 28.659l.392.735a4.32 4.32 0 0 0 1.697 1.735l.719.402c.735.411.735 1.49 0 1.902l-.719.402a4.319 4.319 0 0 0-1.697 1.735l-.393.735a1.049 1.049 0 0 1-1.86 0l-.392-.735a4.319 4.319 0 0 0-1.697-1.735l-.719-.402c-.735-.411-.735-1.49 0-1.902l.719-.402a4.32 4.32 0 0 0 1.697-1.735l.392-.735a1.049 1.049 0 0 1 1.86 0"/>
    </g>
</svg>
