<svg xmlns="http://www.w3.org/2000/svg" width="36" height="43" viewBox="0 0 36 43">
    <g fill="none" fill-rule="evenodd">
        <path fill="#00DD80" d="M33.204 28.38c-1.073 2.986-2.696 5.583-4.824 7.717-2.423 2.43-5.595 4.36-9.429 5.737a2.866 2.866 0 0 1-.916.166H18a2.853 2.853 0 0 1-.949-.165c-3.838-1.375-7.014-3.304-9.44-5.734-2.128-2.134-3.751-4.73-4.823-7.716C.84 22.955.951 16.973 1.04 12.165l.001-.073c.018-.397.03-.814.036-1.275.033-2.26 1.783-4.13 3.985-4.257 4.59-.263 8.142-1.8 11.176-4.837l.026-.025A2.519 2.519 0 0 1 18.034 1c.61.008 1.217.24 1.703.698l.026.025c3.034 3.037 6.586 4.574 11.176 4.837 2.202.126 3.952 1.997 3.985 4.257.006.464.018.88.036 1.275v.031c.09 4.816.2 10.81-1.756 16.256"/>
        <path stroke="#0D8416" stroke-width=".25" d="M33.204 28.38c-1.073 2.986-2.696 5.583-4.824 7.717-2.423 2.43-5.595 4.36-9.429 5.737a2.866 2.866 0 0 1-.916.166c-.222 0-.41-.02-.597-.057a2.98 2.98 0 0 1-.386-.108c-3.839-1.375-7.015-3.304-9.44-5.734-2.13-2.134-3.752-4.73-4.824-7.716C.84 22.955.951 16.973 1.04 12.165c.02-.47.03-.887.037-1.348.033-2.26 1.783-4.13 3.985-4.257 4.59-.263 8.142-1.8 11.176-4.837.53-.5 1.165-.732 1.797-.723.61.008 1.216.24 1.702.698 3.06 3.062 6.612 4.6 11.202 4.862 2.202.126 3.952 1.997 3.985 4.257.006.464.018.88.036 1.275.09 4.847.2 10.841-1.756 16.287z"/>
        <path fill="#00AA63" d="M32.306 28.044c-1.012 2.84-2.543 5.311-4.55 7.341-2.284 2.311-5.276 4.147-8.892 5.457A2.708 2.708 0 0 1 18 41V2a2.371 2.371 0 0 1 1.605.663l.024.024c2.863 2.89 6.212 4.352 10.541 4.602 2.076.12 3.727 1.899 3.758 4.05.006.44.017.836.034 1.211v.03c.085 4.582.189 10.283-1.656 15.464"/>
        <path fill="#FFF" d="M27 21c0 5.502-4.244 9.98-9.466 10H17.5C12.262 31 8 26.514 8 21s4.262-10 9.5-10h.034C22.756 11.02 27 15.498 27 21"/>
        <path fill="#34C7D6" d="M22.653 20.053l-4.538 4.6-.981.995a1.175 1.175 0 0 1-1.678 0l-2.109-2.138a1.214 1.214 0 0 1 0-1.7 1.175 1.175 0 0 1 1.678 0l1.27 1.287 4.68-4.744a1.174 1.174 0 0 1 1.678 0c.463.47.463 1.23 0 1.7"/>
    </g>
</svg>
