<svg xmlns="http://www.w3.org/2000/svg" xmlns:xlink="http://www.w3.org/1999/xlink" width="176" height="176" viewBox="0 0 176 176">
    <defs>
        <path id="a" d="M0 .277h175.723V176H0z"/>
    </defs>
    <g fill="none" fill-rule="evenodd">
        <g>
            <mask id="b" fill="#fff">
                <use xlink:href="#a"/>
            </mask>
            <path fill="#32BA7C" d="M87.861.277c48.525 0 87.862 39.337 87.862 87.862 0 48.524-39.337 87.861-87.862 87.861C39.337 176 0 136.663 0 88.139 0 39.614 39.337.277 87.861.277" mask="url(#b)"/>
        </g>
        <path fill="#FFF" d="M90.111 107.54c3.852 3.895 3.852 10.573 0 14.469l-7.978 8.07c-3.851 3.895-10.454 3.895-14.305 0L32.888 94.46c-3.85-3.896-3.85-10.574 0-14.47l7.979-8.069c3.851-3.896 10.454-3.896 14.305 0l34.94 35.617z"/>
        <path fill="#FFF" d="M120.71 46.911c3.87-3.881 10.503-3.881 14.373 0l8.015 8.04c3.87 3.882 3.87 10.537 0 14.418L82.29 130.09c-3.87 3.881-10.503 3.881-14.372 0l-8.016-8.04c-3.87-3.882-3.87-10.537 0-14.418l60.808-60.72z"/>
    </g>
</svg>
