<svg xmlns="http://www.w3.org/2000/svg" width="54" height="15" viewBox="0 0 54 15">
    <g fill="none">
        <path fill="#0B3D85" d="M46.856 9.202c-.175-.634-.375-1.22-.592-1.799-.864-2.298-1.83-4.552-2.735-6.833-.106-.267-.274-.393-.526-.44-.095-.017-.19-.033-.287-.04-.81-.063-1.62-.029-2.429-.025-.158.001-.318.024-.474.056-.27.054-.304.106-.304.395V14.46c0 .302.06.387.346.412.842.07 1.686.07 2.528-.002.334-.028.392-.112.392-.463 0-2.672 0-5.343.002-8.014 0-.073-.027-.154.028-.22.056.01.052.058.064.096.067.201.124.407.204.603.722 1.764 1.45 3.526 2.17 5.29.08.201.213.293.407.329.198.036.397.04.596.042.57.002 1.14.031 1.709-.039.204-.025.32-.134.395-.334.276-.733.57-1.458.847-2.19.47-1.245 1.004-2.463 1.414-3.732.01-.03.02-.071.092-.056V14.59c-.006.117.052.193.152.23.075.027.153.047.232.055.585.065 1.173.035 1.76.037.274 0 .548 0 .817-.059.264-.057.295-.103.295-.38V.616c0-.41-.038-.456-.43-.518-.034-.005-.068-.008-.102-.01-.752-.061-1.505-.027-2.258-.024-.187 0-.375.022-.56.065-.164.038-.285.127-.352.299-.98 2.492-2.018 4.959-2.946 7.472-.154.418-.295.842-.455 1.301zm-22.34-.222v5.466c0 .337.052.396.377.432.574.062 1.15.03 1.726.035.256.002.513-.007.768-.04.33-.045.386-.111.386-.45 0-3.661 0-7.323-.003-10.985 0-.149.037-.187.178-.186.987.007 1.974.004 2.96.003.306 0 .393-.066.414-.386.057-.835.054-1.671.002-2.507-.016-.247-.093-.305-.328-.305H21.277c-.22 0-.268.04-.308.265-.01.058-.015.117-.016.176-.004.677-.008 1.353-.01 2.03 0 .124.007.25.025.372.045.305.105.355.405.355.987 0 1.973.004 2.96-.003.146-.001.188.03.188.19-.007 1.846-.005 3.692-.005 5.538zM36.81 7.5V.611c0-.405-.032-.444-.418-.51-.04-.007-.08-.01-.12-.013-.631-.06-1.265-.027-1.897-.025-.17 0-.341.023-.509.056-.285.055-.313.1-.313.401v13.905c0 .361.048.418.393.454.586.061 1.174.03 1.76.033.28 0 .56 0 .834-.065.235-.055.27-.103.27-.348V7.5z"/>
        <path fill="#FC000D" d="M8.592.057h7.65c.546 0 .883.35.885.92.002.451.002.903 0 1.354-.003.536-.315.877-.828.91-.045.003-.091.002-.137.002L1 3.244c-.27 0-.522-.042-.721-.254C.124 2.825.04 2.63.04 2.4V.922C.042.425.394.058.874.058c1.078-.002 2.156 0 3.234 0L8.592.056zM13.402 11.734h2.858c.528 0 .864.348.867.9.002.457.002.914 0 1.37-.003.56-.342.906-.881.906-1.928 0-3.857-.002-5.785.003-.136 0-.184-.026-.183-.182.008-.943.007-1.887.001-2.831 0-.133.033-.17.162-.169.987.006 1.974.004 2.96.003zM3.783 11.734c.97 0 1.94.003 2.909-.003.142 0 .195.025.193.191-.009.938-.007 1.876-.001 2.813 0 .139-.032.178-.169.178-1.95-.005-3.901-.002-5.852-.003-.468 0-.82-.369-.822-.856V12.63c0-.548.336-.895.867-.895h2.875zM13.372 9.074c-.975 0-1.95-.003-2.924.003-.138 0-.17-.043-.169-.18.006-.943.006-1.886 0-2.829 0-.139.034-.179.17-.178 1.938.005 3.876.002 5.814.004.517 0 .86.353.864.888.003.468.003.937 0 1.406-.004.534-.348.885-.865.885-.963.002-1.927 0-2.89 0zM3.772 5.893c.976 0 1.951.004 2.927-.004.155-.001.187.045.185.199-.007.938-.006 1.875 0 2.813.001.144-.04.176-.172.176-1.94-.004-3.88-.002-5.82-.004-.513 0-.85-.357-.851-.896V6.788c0-.535.339-.892.856-.894.958-.003 1.917 0 2.875 0z"/>
    </g>
</svg>
