<svg xmlns="http://www.w3.org/2000/svg" width="75" height="12" viewBox="0 0 75 12">
    <g fill="none">
        <path fill="#FD0202" d="M34.772 3.52c0-1.09.01-2.137-.007-3.183-.004-.28.076-.345.331-.336.56.02 1.12.013 1.68.002.178-.004.224.05.224.232-.005 3.728-.004 7.455-.001 11.182 0 .146-.02.237-.184.267-1.406.252-2.817.419-4.246.244-2.164-.266-3.553-1.902-3.569-4.173-.006-.867.125-1.693.526-2.456.758-1.441 2.295-2.252 3.897-2.074.443.049.881.12 1.35.294zm0 4.213v-1.57c0-.731.004-.748-.682-.914-.698-.168-1.402-.233-1.995.31-.603.554-.764 1.302-.744 2.095.025.96.364 1.753 1.251 2.181.658.318 1.352.228 2.042.153.161-.018.128-.137.128-.24V7.733z"/>
        <path fill="#FD0303" d="M42.885 11.146c-.03-.004-.042-.01-.047-.005-2.166 1.762-5.007.697-5.682-2.129-.467-1.955.133-3.94 1.537-5.057.944-.75 2.026-1.002 3.177-.948.984.047 1.947.231 2.882.575.175.064.249.14.248.356-.008 2.531-.008 5.063-.001 7.595 0 .207-.044.28-.248.274-.481-.016-.964-.02-1.444.001-.222.01-.33-.055-.346-.298-.01-.127-.051-.248-.076-.364zm-.123-3.925V5.915c0-.748 0-.751-.687-.84-.772-.098-1.486.022-2.064.648-.74.802-.894 2.387-.324 3.394.629 1.11 2.106 1.246 2.915.27.112-.135.166-.278.163-.464-.008-.567-.003-1.134-.003-1.702z"/>
        <path fill="#FD0202" d="M54.01 12c-2.393 0-4.011-1.815-4.01-4.497C50.001 4.8 51.629 2.998 54.064 3c2.352.002 3.938 1.847 3.936 4.58-.002 2.615-1.632 4.42-3.99 4.42zm-1.754-4.501c-.005.513.066 1.009.268 1.473.552 1.272 2.091 1.444 2.808.315.59-.93.576-2.677-.029-3.594-.653-.989-1.993-.964-2.616.05-.324.529-.424 1.128-.43 1.756zM28 7.938c-.033 1.27-.578 2.663-1.962 3.515-1.46.9-4.008.807-5.287-1.169-1.2-1.854-1.034-5.224 1.022-6.63 1.584-1.083 4.422-.94 5.641 1.336.395.737.586 1.543.586 2.948zm-5.766-.419c.003.564.087 1.108.344 1.601.636 1.216 2.206 1.236 2.813.004.53-1.075.519-2.209-.019-3.274-.614-1.215-2.172-1.174-2.792.037-.258.504-.343 1.058-.346 1.632zM74.729 9.697c0 .485-.004.93.003 1.373.002.141-.036.217-.148.276-1.406.73-2.849.877-4.31.3-1.34-.529-2.025-1.706-2.219-3.305-.113-.933-.06-1.856.222-2.746.532-1.683 1.833-2.655 3.45-2.592 1.691.066 2.959 1.413 3.217 3.406.071.544.056 1.087.051 1.632-.002.217-.073.264-.246.264-1.477-.007-2.953.001-4.43-.01-.236-.002-.265.072-.21.325.182.86.696 1.38 1.506 1.49.968.132 1.909-.045 2.84-.33.083-.024.165-.05.274-.083zm-3.11-3.115c.433 0 .865-.014 1.296.006.22.01.241-.086.197-.298-.172-.827-.797-1.347-1.57-1.297-.8.051-1.256.48-1.407 1.31-.036.196-.02.293.19.285.43-.018.863-.006 1.294-.006z"/>
        <path fill="#FD0303" d="M59.006 7.276c0-1.133.006-2.265-.006-3.397-.002-.215.072-.294.282-.353 1.454-.405 2.93-.633 4.444-.476 1.101.114 2.08.481 2.737 1.407.398.56.529 1.195.531 1.858.005 1.472-.002 2.945.006 4.418.001.196-.037.273-.264.267-.584-.018-1.168-.014-1.752-.002-.202.004-.256-.052-.255-.246.005-1.399.01-2.798-.009-4.196-.013-.99-.633-1.561-1.662-1.586-.529-.013-1.05.043-1.57.125-.185.03-.244.103-.243.289.008 1.776 0 3.552.01 5.329.002.233-.066.293-.302.286-.555-.017-1.11-.016-1.665 0-.223.006-.29-.05-.288-.272.012-1.15.006-2.3.006-3.451z"/>
        <path fill="#A9A8AA" d="M4.004 11.998c-.535.018-1.047-.107-1.539-.336-.52-.24-.974-.592-1.36-1.051C.54 9.936.183 9.14.055 8.224c-.14-.992-.01-1.943.416-2.827.606-1.253 1.538-2.034 2.782-2.31.908-.2 1.785-.055 2.607.433.8.476 1.389 1.183 1.775 2.104.01.022.014.046.021.069-.024 0-.028-.022-.037-.042-.041-.091-.073-.188-.127-.272-.028-.057-.051-.118-.084-.171-.067-.11-.115-.234-.207-.322-.088-.165-.199-.31-.321-.444-.109-.142-.234-.263-.365-.377-.166-.152-.341-.288-.526-.409-.11-.062-.22-.126-.33-.185-.139-.072-.276-.146-.428-.18-.232-.093-.47-.154-.715-.179-.255-.047-.512-.042-.768-.025-.12.007-.241.011-.357.053-.032.004-.064.004-.094.01-.426.098-.833.255-1.211.499-.43.277-.807.624-1.121 1.054-.26.356-.465.75-.614 1.18-.09.263-.167.53-.202.81-.004.012-.01.024-.012.036-.054.314-.067.63-.058.95-.008.104.004.207.015.309.019.19.036.378.087.561.047.275.13.535.234.788.027.096.072.184.115.272.058.121.11.247.19.353.09.174.195.334.322.476.082.131.171.256.292.346.113.145.249.26.394.36.089.086.183.162.292.214.013.032.04.047.065.061.103.058.205.122.31.172.098.047.191.105.296.128.186.09.375.162.582.113.2-.049.402-.085.602-.139.43-.116.837-.291 1.226-.52.398-.233.77-.516 1.101-.856.289-.295.562-.61.79-.97.214-.34.406-.696.56-1.076.158-.386.277-.784.37-1.195.012-.051 0-.11.039-.154.036.262.05.524.032.788-.007.1-.004.201-.019.302-.003.026.004.055-.014.078-.04.005-.044.048-.056.078-.11.263-.215.527-.345.78-.12.23-.256.448-.393.666-.04.064-.09.12-.132.184-.098.149-.216.278-.327.413-.134.165-.282.316-.433.46-.116.11-.241.208-.362.311-.19.162-.395.294-.603.421-.115.07-.24.12-.351.195-.14.094-.294.14-.442.205-.161.071-.325.134-.497.17-.006 0-.01.016-.014.025z"/>
        <path fill="#FD0202" d="M15.058 9.167l1.139-3.45.506-1.537c.03-.088.044-.176.162-.176.703.005 1.406.002 2.135.002-.303.837-.594 1.647-.89 2.456-.637 1.752-1.28 3.502-1.91 5.257-.074.203-.155.288-.364.28-.551-.02-1.103-.01-1.655-.003-.144.002-.223-.036-.284-.197-.946-2.517-1.898-5.03-2.856-7.541-.089-.234-.033-.26.164-.256.61.011 1.222.014 1.833-.002.193-.005.279.062.346.263.523 1.56 1.057 3.115 1.587 4.67.021.062.045.122.087.234z"/>
        <path fill="#B6B4B7" d="M2.689 12c-.108-.024-.204-.082-.303-.128-.11-.051-.213-.115-.319-.173-.027-.015-.053-.03-.067-.062.127-.011.251.029.377.032.194.006.387-.009.58-.029.23-.024.458-.053.682-.11.517-.131 1.01-.334 1.472-.626.363-.23.697-.503 1-.822.15-.16.294-.326.427-.504.171-.227.329-.466.467-.719.115-.208.212-.427.299-.652.115-.295.218-.594.284-.906.078-.366.14-.736.144-1.115 0-.059-.018-.137.04-.186.028.034.018.092.062.115 0 .014.001.027.015.033 0 .013.001.026.014.034.05.143.096.287.12.439 0 .02-.005.043.016.056v.01c-.005.068-.026.132-.036.2-.063.418-.163.825-.306 1.22-.14.389-.304.761-.513 1.11-.17.286-.355.559-.567.81-.218.256-.45.495-.703.708-.282.238-.584.442-.902.617-.345.19-.705.335-1.079.44-.332.094-.667.156-1.009.178-.064.005-.134-.004-.195.03z"/>
        <path fill="#FD0303" d="M46.004 7.239v-4.36c0-.53.083-1.041.297-1.512C46.703.484 47.373.107 48.18.02c.543-.059 1.08.028 1.616.132.143.028.207.088.202.281-.014.504-.02 1.01.001 1.512.011.268-.083.282-.259.252-.354-.062-.712-.073-1.07-.051-.48.03-.666.246-.712.816-.054.665-.054.665.509.664.366 0 .734.006 1.1-.003.127-.003.173.034.17.196-.008.543-.009 1.087.001 1.63.003.174-.047.212-.183.21-.467-.01-.934.006-1.4-.01-.182-.006-.219.063-.218.266.007 1.927 0 3.855.01 5.781 0 .251-.06.312-.265.304-.483-.018-.967-.018-1.45 0-.196.008-.233-.07-.232-.284.007-1.492.004-2.984.004-4.476z"/>
        <path fill="#A09EA1" d="M4 11.997c.004-.01.008-.026.014-.027.173-.036.34-.1.503-.173.15-.067.305-.114.446-.21.113-.076.239-.128.355-.2.21-.128.418-.264.61-.43.122-.105.249-.205.366-.318.154-.147.303-.301.439-.47.112-.138.231-.27.33-.422.042-.065.093-.123.134-.188.138-.223.276-.445.397-.682.132-.258.238-.529.349-.797.012-.03.016-.074.057-.08-.015.21-.063.414-.11.617-.198.858-.594 1.581-1.165 2.181-.28.294-.59.54-.934.727-.388.21-.791.369-1.22.434-.189.029-.38.05-.571.038z"/>
        <path fill="#BBB9BC" d="M7.996 6.36c-.057.048-.04.126-.04.184-.003.378-.065.746-.142 1.11-.065.31-.167.608-.28.901-.087.224-.182.442-.295.649-.137.251-.293.488-.462.715-.131.177-.273.343-.422.501-.299.317-.629.589-.987.817-.456.29-.944.493-1.455.624-.22.056-.446.085-.673.109-.19.02-.38.034-.572.029-.125-.004-.247-.043-.373-.032-.11-.052-.205-.128-.295-.213.02 0 .04-.003.059.003.22.076.45.058.676.076.186.015.372-.01.558-.028.273-.028.54-.083.805-.163.377-.114.741-.264 1.084-.474.22-.134.431-.282.633-.446.235-.191.448-.413.647-.65.146-.173.282-.353.406-.547.138-.217.27-.437.38-.675.1-.221.197-.443.27-.677.111-.349.2-.704.245-1.072.03-.234.059-.467.057-.705-.002-.106-.001-.213 0-.32 0-.025-.008-.055.014-.076.054.084.086.18.128.272.01.02.013.04.038.041l-.002.006-.002.04z"/>
        <path fill="#AEACAF" d="M3 11.882c.057-.032.122-.024.18-.027.318-.022.628-.079.936-.165.346-.097.679-.23.999-.404.294-.16.574-.348.834-.566.234-.196.45-.416.652-.652.196-.23.367-.48.525-.742.193-.321.346-.663.475-1.02.132-.363.225-.737.283-1.122.01-.062.029-.121.033-.184.048.149.073.302.083.459-.036.04-.025.095-.037.142-.088.378-.201.745-.35 1.101-.147.351-.33.678-.533.992-.216.331-.475.622-.749.894-.315.313-.667.575-1.044.79-.37.21-.757.373-1.164.479-.19.05-.382.084-.572.128-.195.046-.375-.02-.551-.103z"/>
        <path fill="#A9A8AA" d="M8 6.117L8.004 6c.112.125.162.274.185.436-.134-.064-.105-.226-.189-.32z"/>
        <path fill="#AEACAF" d="M8.05 7.157C7.989 7.119 8 7.058 8.004 7c.052.042.048.1.048.157z"/>
        <path fill="#A9A8AA" d="M8.045 6.096C8.005 6.077 7.999 6.04 8 6c.035.022.043.059.045.096z"/>
        <path fill="#A9A8AA" d="M8.048 6.094C8.005 6.076 7.998 6.04 8 6c.043.017.044.056.048.094z"/>
        <path fill="#F3F3F3" d="M0 6.365C.034 6.1.111 5.847.201 5.6.35 5.19.554 4.818.812 4.48c.313-.408.688-.737 1.116-1 .377-.23.781-.38 1.205-.471.031-.007.063-.007.094-.01.037.044.09.062.138.085.129.061.248.14.366.222.066.046.124.105.183.16.027.027.081.015.086.071-.156.075-.314.146-.468.226-.103.053-.2.117-.3.176-.025-.019-.027-.056-.06-.072-.28-.138-.562-.25-.882-.215-.147.017-.29.026-.428.088-.142.064-.288.112-.414.215-.09.074-.182.145-.256.24-.083.11-.17.213-.234.339-.104.204-.164.422-.196.65-.023.16-.013.322.013.482.025.15.071.292.127.432.079.197.196.363.331.512.097.105.208.203.335.272.024.013.046.03.074.027.003.098.019.196.019.292 0 .116.026.226.04.339.02.158.074.307.117.459-.22-.024-.416-.121-.61-.225-.112-.06-.213-.138-.316-.213-.142-.104-.26-.234-.383-.36-.081-.086-.147-.185-.213-.283-.082-.123-.16-.249-.212-.393-.019-.054-.022-.129-.084-.16z"/>
        <path fill="#C0BEC1" d="M7 5.468c-.022.02-.014.048-.014.073v.302c.002.225-.026.446-.054.668-.043.349-.129.685-.236 1.016-.07.221-.163.432-.26.641-.106.226-.233.434-.366.64-.12.184-.25.355-.39.519-.193.224-.397.434-.624.616-.194.155-.398.295-.609.422-.33.2-.68.341-1.044.45-.254.075-.512.127-.775.153-.178.018-.358.042-.536.028-.218-.018-.439 0-.652-.073-.017-.005-.037-.002-.056-.002-.142-.096-.274-.205-.384-.342.014-.022.03-.006.044-.002.064.016.128.035.192.047.19.038.38.066.573.082.197.016.393.038.592.014.224-.027.448-.044.67-.094.269-.06.529-.146.784-.255.139-.06.271-.13.405-.204.21-.114.41-.244.596-.398.255-.211.496-.44.71-.704.19-.234.356-.484.51-.747.155-.264.276-.545.376-.836.085-.245.145-.5.196-.757.068-.34.09-.686.096-1.034 0-.043-.016-.088-.01-.13.016-.118-.011-.234-.012-.351 0-.07-.044-.14-.006-.21.09.083.136.201.201.304.033.053.056.11.083.164z"/>
        <path fill="#C4C3C6" d="M6.972 5.409c-.038.07.005.136.006.205.001.114.028.227.012.343-.005.04.01.084.01.126-.006.34-.028.676-.095 1.01-.05.25-.11.498-.195.737-.1.285-.22.56-.374.816-.153.256-.319.5-.508.729-.213.258-.453.481-.707.687-.185.15-.385.277-.593.388-.133.072-.265.141-.403.199-.254.106-.513.19-.78.249-.221.048-.445.065-.667.092-.198.023-.393.001-.59-.014-.191-.016-.38-.043-.57-.08-.064-.012-.127-.03-.19-.046-.016-.004-.03-.02-.045.002-.117-.083-.203-.198-.283-.319.014.003.028.003.042.007.197.063.393.133.597.168.234.04.468.07.704.08.16.007.318-.003.478-.022.232-.029.463-.062.69-.121.283-.074.552-.194.82-.315.042-.019.087-.047.109-.1l.13-.03c.467-.122.847-.387 1.142-.794.186-.257.31-.545.384-.858.035-.006.06-.024.077-.059l.09-.18c.228-.422.363-.88.454-1.355.033-.174.043-.352.06-.53.032-.337.004-.671-.036-1.005-.018-.14-.053-.28-.08-.419.119.123.226.257.311.409z"/>
        <path fill="#D8D7D9" d="M5 4c.13.029.247.092.365.155.096.05.19.105.283.158.003.05.025.093.044.138.09.213.157.436.212.664.021.087.044.176.048.266.005.124.052.238.048.364-.006.171-.003.342-.001.513 0 .06-.007.117-.014.174-.012.097-.023.195-.04.29-.017.093-.02.195-.072.278-.02-.049-.04-.097-.058-.146-.071-.186-.178-.347-.291-.502.032-.03-.004-.064.005-.098.045-.188.008-.375-.011-.561-.008-.078-.015-.154-.038-.23-.016-.056-.003-.124-.014-.19-.022-.14-.061-.272-.108-.401-.042-.12-.096-.236-.147-.353-.029-.065-.075-.122-.088-.197.057-.044.124-.06.184-.092.026-.014.063-.03.01-.061-.071-.054-.153-.032-.23-.04-.02-.05-.08-.067-.087-.129z"/>
        <path fill="#E0E0E1" d="M.12 8.924C.06 8.73.041 8.529.02 8.328.008 8.22-.006 8.111.003 8c.025 0 .04.016.056.032.105.11.212.22.31.334.2.234.442.404.685.577.053.037.115.05.17.089.091.067.192.128.306.146.06.01.111.033.163.061.064.036.134.05.202.072.146.047.299.055.446.093.051.013.108.067.169.02.135.21.312.38.49.55-.014.029-.036.031-.063.02-.066-.028-.135-.016-.203-.02-.074-.002-.143.03-.219.016-.18-.032-.357-.068-.535-.106-.206-.044-.41-.092-.603-.176-.258-.112-.521-.215-.745-.396-.083-.067-.172-.123-.253-.194-.08-.071-.165-.14-.26-.194z"/>
        <path fill="#D8D7D9" d="M0 9c.08.034.152.08.221.125.069.046.145.082.215.125.19.116.415.182.634.254.165.054.338.085.513.113.152.025.303.048.456.069.065.008.123-.012.186-.01.058.001.117-.006.173.012.023.007.041.005.053-.013.106.055.21.113.318.165.071.034.142.072.229.079L3 9.927c-.033.03-.08.036-.125.047-.145.035-.292.025-.44.023-.229-.002-.458.014-.686-.012-.102-.013-.203-.032-.303-.051-.234-.044-.464-.098-.68-.181-.095-.036-.196-.06-.288-.106-.08-.04-.155-.09-.25-.11C.127 9.366.046 9.188 0 9z"/>
        <path fill="#E8E8E8" d="M2 8.985c-.048.038-.094-.005-.135-.016-.117-.03-.238-.037-.354-.075-.055-.018-.111-.029-.162-.058-.04-.022-.082-.041-.13-.049-.09-.015-.17-.063-.244-.118-.043-.031-.092-.04-.135-.071-.193-.14-.387-.276-.546-.463-.078-.092-.163-.18-.247-.269-.012-.013-.025-.026-.045-.025-.008-.272.004-.542.053-.81.002-.01.008-.02.012-.031.056.029.06.096.077.144.047.13.119.243.194.353.06.089.12.178.195.255.112.114.22.23.35.325.095.067.187.137.29.191.177.093.357.181.558.202l.03.062c.068.158.139.314.239.453z"/>
        <path fill="#D1CFD2" d="M1 9c.084.027.152.095.222.15.082.063.171.096.255.146.192.114.396.188.604.248.089.026.178.053.269.07.202.037.405.014.608.017.131.002.262.016.39-.031.04-.015.082-.024.112-.065l.109.04c.004.013.012.018.022.024.117.07.245.087.371.109.001.031.02.03.038.03-.004.037-.03.04-.05.049-.157.07-.315.129-.482.151-.135.019-.268.057-.403.06-.344.005-.688.009-1.026-.1-.137-.044-.275-.083-.41-.139-.123-.052-.243-.115-.365-.174-.069-.1-.114-.218-.165-.331C1.063 9.172 1.024 9.09 1 9zM6.348 7.224c.081-.1.085-.222.112-.334.027-.113.043-.23.062-.347.01-.07.022-.138.022-.209-.003-.205-.008-.41 0-.615.008-.152-.066-.29-.074-.438-.005-.107-.04-.214-.073-.32-.086-.272-.19-.54-.33-.796C6.037 4.112 6.004 4.061 6 4c.245.124.478.264.698.42-.006.044.008.084.023.124.122.318.204.64.238.977.02.205.038.41.03.616-.002.09.027.18-.002.274-.022.072-.037.149-.035.223.006.2-.075.385-.116.576-.056.258-.18.5-.28.748-.009.021-.02.042-.052.042-.01-.09-.021-.181-.03-.272-.018-.173-.081-.337-.126-.504z"/>
        <path fill="#CAC8CB" d="M1 10c.146.083.29.173.438.247.16.079.325.133.49.196.405.153.816.149 1.228.14.162-.003.321-.057.482-.083.2-.032.39-.117.577-.215.026-.014.056-.016.06-.068l.198.02c.176.013.352-.013.527-.04-.023.074-.071.114-.117.142-.285.174-.571.345-.873.452-.243.085-.488.133-.736.173-.17.028-.34.043-.51.033-.251-.015-.501-.058-.75-.115-.218-.05-.427-.151-.637-.242-.015-.006-.03-.006-.045-.01-.13-.187-.239-.4-.332-.63zM6.1 7.3c.034-.001.046-.02.055-.04.104-.229.236-.452.295-.69.043-.175.128-.346.122-.53-.003-.068.014-.139.037-.205.03-.086 0-.17.002-.253.008-.19-.01-.378-.032-.568-.035-.31-.122-.607-.25-.9-.016-.037-.03-.074-.025-.114.183.108.358.223.51.358.038.143.089.285.114.43.058.342.098.686.052 1.033-.024.181-.04.364-.087.543-.13.487-.325.958-.653 1.392-.045.06-.087.122-.13.184-.023.036-.06.054-.11.06.066-.231.1-.465.1-.7z"/>
        <path fill="#E8E8E8" d="M4.536 4c-.003-.094-.04-.074-.06-.117-.04-.094-.08-.191-.126-.268-.082-.137-.165-.268-.254-.37-.034-.039-.07-.068-.096-.142.08-.066.164-.073.247-.084.177-.026.354-.035.53.04.003.02.003.048.009.057.078.135.119.368.198.496.012.018.015.046.016.077-.015.036-.035.024-.052.032-.14.071-.276.172-.412.279z"/>
        <path fill="#E0E0E1" d="M5.395 3.5c-.002-.024-.008-.047-.028-.06-.141-.103-.213-.287-.351-.394-.01-.007-.01-.03-.016-.046.3.031.592.108.876.224.01.09.095.115.124.189l-.515.066c-.027-.037-.046-.036-.057.015l-.033.006z"/>
        <path fill="#F9F9F9" d="M2.079 7c-.035.002-.06-.013-.09-.025-.153-.064-.287-.153-.404-.25-.163-.137-.305-.29-.4-.47-.067-.13-.123-.26-.153-.398C1 5.71.988 5.561 1.015 5.413c.04-.209.111-.41.237-.597.078-.115.183-.21.284-.31.088-.088.199-.153.308-.222.152-.095.329-.138.5-.197.168-.057.34-.065.517-.08.388-.034.728.07 1.066.196.04.015.042.05.073.067-.006.005-.01.012-.017.016-.327.183-.626.39-.887.636-.201.19-.376.395-.525.615-.31.455-.469.944-.492 1.463z"/>
        <path fill="#86838A" d="M2 7.557c.02-.554.16-1.076.43-1.562.13-.235.284-.453.46-.657.228-.261.49-.483.775-.679.006-.004.01-.011.015-.017.105-.058.208-.121.317-.173.162-.078.329-.148.494-.221.207-.063.414-.122.626-.164.027-.005.057.002.08-.02.01 0 .019-.002.029-.004.017 0 .035.004.048-.01L5.717 4c.095.008.195-.016.283.042-.056-.004-.112-.012-.168-.011-.217.003-.432.029-.645.074-.886.186-1.663.57-2.264 1.26-.62.71-.94 1.532-.875 2.484.029.423.153.817.378 1.178.25.403.594.7 1.02.907.008.022.026.02.045.02.007.015.02.017.034.016l.029.011-.017.019c-.094-.01-.17-.061-.247-.108-.117-.07-.23-.149-.343-.224-.164-.15-.327-.298-.451-.482-.116-.151-.198-.322-.277-.493-.01-.023-.022-.045-.033-.068-.046-.149-.102-.295-.124-.45-.015-.11-.042-.218-.042-.333 0-.094-.016-.19-.02-.285z"/>
        <path fill="#F9F9F9" d="M6 7.49c0 .242-.021.48-.063.715-.067.328-.177.63-.345.9-.265.426-.607.702-1.028.83l-.117.033c-.148.02-.296.04-.445.03L4 9.978c.057-.022.115.01.17 0 .123-.026.248-.04.37-.087.133-.05.264-.103.388-.184.017.006.026-.003.03-.024l.035-.02c.025-.002.046-.01.053-.044l.01-.004c.045-.013.085-.035.105-.09l.01-.005c.047-.017.086-.047.105-.107l.023-.02c.084-.063.153-.147.203-.254.025-.011.041-.037.056-.062.314-.518.447-1.098.393-1.747-.026-.308-.089-.6-.208-.87-.058-.133-.114-.27-.216-.364-.038-.09-.092-.16-.165-.206-.014-.033-.03-.063-.064-.064-.054-.082-.123-.138-.203-.174-.046-.06-.104-.09-.168-.108l-.035-.018c-.012-.025-.03-.035-.054-.03l-.033-.01c-.004-.02-.014-.029-.03-.022L4.7 5.433c-.043-.039-.092-.055-.143-.062l-.022-.004c-.018-.024-.041-.03-.067-.029l-.022-.003c-.031-.038-.076-.03-.112-.05.004-.096.004-.192.026-.285.023.003.031.02.036.047.006.044.02.086.022.13.005.09.049.126.111.145.107.034.21.081.312.128.102.046.19.128.292.169.03.047.075.064.112.098.105.095.2.204.296.315.115.175.224.356.297.566l.059.164c.029.157.07.311.082.473L6 7.49z"/>
        <path fill="#E0E0E1" d="M5.965 6c-.122-.096-.243-.192-.378-.275-.048-.029-.107-.044-.144-.085.009-.061-.008-.121-.011-.18-.01-.201-.063-.393-.127-.584C5.232 4.66 5.12 4.458 5 4.26c.129-.11.276-.196.442-.259.016.074.077.13.114.195.067.115.137.228.193.347.06.127.112.258.141.396.014.064-.003.131.018.186.03.075.039.15.05.226.025.184.073.368.013.553-.01.034.037.068-.006.097z"/>
        <path fill="#C50506" d="M5.236 4.174c-.137.068-.257.162-.362.28-.242.245-.387.55-.448.909-.022.088-.022.178-.027.268v.03l-.005.017c-.035-.012-.028-.043-.027-.073.001-.041.015-.084-.01-.123v-.029c.028-.007.034-.022.013-.046v-.044c.017-.004.034-.008.014-.03v-.03c.017-.004.033-.008.013-.03v-.03c.017-.001.026-.012.025-.031-.007-.044.023-.078.028-.12.021-.019.027-.045.026-.074l.001-.03c.034-.003.041-.028.04-.06 0-.017-.002-.034.013-.045.03-.02.04-.053.04-.09.017 0 .026-.011.026-.03l.04-.075c.018-.008.027-.024.027-.045.01-.007.013-.018.014-.03.031-.005.05-.025.053-.06.052-.062.087-.142.16-.18.017 0 .026-.01.027-.03.06-.01.094-.06.133-.105l.026-.015c.018 0 .027-.01.028-.03l.026-.015c.03-.002.059-.003.067-.044l.04-.016c.029.007.047-.02.07-.03.012-.003.022-.01.02-.024-.002-.019-.016-.02-.03-.02-.016 0-.034-.005-.047.013h-.067c-.03-.016-.06-.035-.08.015h-.08c-.013-.018-.027-.018-.04.001l-.067.015c-.009-.015-.018-.015-.026 0h-.04c-.02 0-.038 0-.041.029h-.04c-.02-.022-.023-.004-.027.015h-.04c-.02-.022-.023-.004-.027.015H4.65c-.02-.022-.024-.003-.027.014l-.026.001c-.01-.015-.018-.014-.027 0l-.026.001c-.011 0-.021.002-.027.015H4.49c-.027.016-.068-.003-.081.044l-.053.001c-.017 0-.026.01-.027.029h-.053c-.024.005-.048.01-.054.044l-.04.001c-.053-.014-.088.02-.12.06-.007.001-.014.002-.02.005-.296.135-.57.314-.822.532-.223.191-.416.42-.582.672-.152.23-.285.477-.375.75-.063.193-.135.381-.149.589-.016.004-.033.008-.013.031l-.026.15c-.014.01-.014.02 0 .03.004.032-.01.06-.014.09-.016.015-.016.03 0 .045-.01.18-.024.36 0 .54-.013.01-.013.02 0 .03l.013.09c-.013.01-.013.02 0 .03.023.105.018.216.067.315-.02.022-.005.027.012.03l.016.12c0 .019.008.029.025.03.017.059.029.12.053.174.035.08.08.155.12.234.08.163.176.314.308.432.048.092.134.14.2.21.038.04.08.075.133.09.008.05.06.042.08.074.002.03.021.03.04.03.07.021.128.079.2.09.061.073.147.078.224.106.23.085.468.094.703.07.286-.031.557-.132.803-.308.098-.07.196-.14.271-.242.047-.032.09-.069.121-.12.027-.009.021-.044.039-.06.03-.02.057-.044.054-.09l.04-.015c.027-.001.027-.023.027-.045.035-.024.032-.08.066-.105.031-.005.036-.033.04-.06l.015-.075c.015-.016.023-.035.025-.058.032-.02.03-.06.042-.092.057-.031.065-.085.052-.149l.014-.03c.015-.003.022-.012.026-.029.038-.153.07-.308.078-.466.012-.252 0-.501-.057-.747-.08-.345-.224-.647-.45-.899-.022-.023-.053-.04-.05-.083.026.01.043.035.062.055.349.39.51.867.526 1.413.018.603-.147 1.134-.516 1.572-.401.476-.902.7-1.487.686-.15-.003-.294-.04-.441-.064-.08-.03-.16-.062-.239-.093l-.025-.01c-.007-.012-.017-.017-.03-.016-.01-.015-.025-.017-.039-.02-.37-.203-.67-.494-.886-.89-.195-.355-.304-.742-.329-1.158-.056-.934.222-1.74.76-2.439.523-.677 1.199-1.054 1.969-1.237.184-.044.371-.07.56-.072.049 0 .097.007.146.011.057.034.017.05-.01.065-.064.034-.136.051-.196.098z"/>
        <path fill="#645D68" d="M3.029 10l.471.286c-.096.042-.175-.088-.268-.075l-.228-.12c0-.011-.002-.023-.004-.034L3.029 10z"/>
        <path fill="#A09EA1" d="M4 10c.097-.012.18.118.28.076.122.128.266.128.4.189.106.048.226-.016.32.116l-.142.016c-.275-.067-.554-.114-.809-.323-.022-.018-.04-.035-.049-.073z"/>
        <path fill="#E0E0E1" d="M4 10.015L4.161 10l.09.006c.068.105.17.009.243.09l.006.053-.407-.041c-.044-.003-.09 0-.093-.093z"/>
        <path fill="#E8E8E8" d="M5.146 4.058c-.04.046-.094.036-.146.033.026-.113.076-.117.146-.033z"/>
        <path fill="#645D68" d="M3 10c.05.01.103.014.135.062-.054 0-.11.005-.135-.062z"/>
        <path fill="#645D68" d="M3 10c.042-.003.076.01.1.046-.041.001-.079-.004-.1-.046z"/>
        <path fill="#E8E8E8" d="M5 5.217c.074-.48.253-.888.551-1.217.121.288.233.581.307.894.065.277.118.554.128.844.003.087.02.173.012.262-.133-.051-.246-.155-.377-.214-.133-.059-.265-.119-.402-.161-.08-.025-.138-.07-.144-.184-.003-.055-.02-.11-.029-.165-.005-.034-.017-.055-.046-.059z"/>
        <path fill="#A09EA1" d="M4.098 9.999c-.03-.03-.07.005-.098-.034.02-.024.044-.013.066-.012.133.007.265-.01.396-.043.3-.077.569-.241.81-.498.249-.266.431-.6.552-.997.138-.449.17-.916.115-1.395-.082-.701-.346-1.236-.789-1.609-.03-.026-.062-.06-.103-.053l-.057-.036c-.07-.096-.16-.13-.255-.15l-.058-.02c-.006-.04-.034-.038-.054-.047-.065-.026-.131-.048-.197-.072 0-.005-.002-.01-.004-.014L4.427 5c.037 0 .07.04.11.021l.022.003c.016.033.037.047.065.031l.022.004c.04.047.088.066.14.067l.073.034c.005.02.014.03.03.024l.032.01c.012.028.026.05.053.033l.035.018c.045.062.103.093.164.116.057.081.125.14.2.187.008.045.03.066.062.068.042.09.096.165.163.22 0 .025.006.044.017.062.333.56.428 1.208.368 1.904-.038.436-.162.833-.36 1.185-.019.034-.053.058-.05.112-.078.075-.146.164-.2.273l-.022.02c-.045.021-.08.058-.103.115l-.01.004c-.043.016-.079.046-.102.098l-.01.004c-.025.001-.046.01-.053.046l-.035.022c-.016-.004-.025.007-.03.026-.12.087-.25.144-.38.198-.12.05-.242.065-.364.092-.054.013-.11-.022-.166.002z"/>
        <path fill="#D1CFD2" d="M6 9c-.006-.049.07-.071.113-.103.435-.323.71-.688.794-1.09.134-.64-.077-1.236-.813-1.75-.024-.018-.039-.035-.038-.057.22.093.342.229.468.36.258.265.395.553.45.856.118.64-.171 1.212-.851 1.723-.033.025-.068.05-.123.061zM6 9.5c.134-.2.304-.362.5-.5-.123.21-.292.374-.5.5z"/>
        <path fill="#D1CFD2" d="M6.5 6.5c-.205-.128-.37-.296-.5-.5.222.11.386.28.5.5zM5.5 6.5c-.186-.126-.357-.284-.5-.5.197.102.366.263.5.5z"/>
        <path fill="#D1CFD2" d="M5.5 6.312C5.315 6.25 5.14 6.168 5 6c.19.051.363.139.5.312zM6 10.31c.085-.154.213-.254.378-.31-.069.172-.208.26-.378.31z"/>
        <path fill="#D1CFD2" d="M5.5 6.18c-.186-.002-.356-.052-.5-.18.18.022.35.069.5.18zM5 10.264c.088-.141.22-.221.377-.264-.074.163-.216.226-.377.264zM5.404 5.147c-.143.049-.266-.058-.404-.057L5.001 5c.13.061.292.035.403.147zM6.228 6.184C6.108 6.178 6.028 6.12 6 6c.123.003.18.088.228.184z"/>
        <path fill="#D1CFD2" d="M5.24 6.086C5.136 6.128 5.06 6.089 5 6c.092-.005.176.014.24.085z"/>
        <path fill="#D1CFD2" d="M5.194 6.092c-.099.046-.15-.015-.194-.089.085-.014.15.017.194.089zM5 10.126c.029-.098.104-.122.194-.126-.027.1-.104.123-.194.126z"/>
        <path fill="#D1CFD2" d="M5.111 6.07c-.058.017-.091-.011-.111-.063.061-.02.095.006.111.063zM5 10.073c.018-.052.05-.08.107-.071-.01.061-.043.088-.107.07z"/>
        <path fill="#F10000" d="M2.038 8.167c-.019-.004-.034-.01-.014-.032.05-.011.028-.045.02-.072-.078-.25-.048-.49.055-.724.098-.028.223.042.231.138.014.166.069.322.094.485.01.065.049.122.11.146.065.025.134.046.203.056.104.017.21.023.317.033.042.004.083.029.128.006.131-.067.27-.11.406-.165.079-.03.098-.07.08-.155-.008-.034-.011-.067-.002-.1.006-.02.007-.036-.009-.05-.037-.03-.04-.07-.041-.117-.002-.046-.006-.095-.023-.136-.053-.13-.085-.264-.093-.404 0-.02-.01-.034-.02-.048-.034-.04-.074-.078-.1-.124-.057-.102-.153-.183-.17-.303-.032-.236-.028-.473.058-.7.032-.083.077-.157.156-.198.115-.06.214-.168.36-.145.02.004.033-.02.048-.032.053-.045.108-.081.179-.096.06-.013.13.006.184-.043-.024-.031-.053-.03-.082-.03-.08.005-.16-.005-.24-.015-.048-.006-.072-.033-.064-.082.012-.085.031-.168.093-.23.103-.106.128-.258.195-.385.006-.01 0-.026 0-.039.089-.16.22-.28.349-.4.048-.046.094-.099.162-.113.02 0 .031-.01.03-.033l.028-.014c.057.013.096-.04.148-.046-.035.082-.116.103-.177.15-.202.151-.397.314-.473.579-.033.112-.084.206-.153.293-.017.023-.024.05-.034.077-.017.044-.002.077.031.1.072.05.148.09.23.116.068.022.117-.007.138-.08.008-.03.003-.07.043-.08-.043.08.015.21-.126.252.06.017.088.069.142.06l.029.031c-.09.009-.177.026-.262.06-.155.064-.27.193-.412.276-.155.09-.197.233-.19.41.004.1.037.193.038.292 0 .023.008.05.032.067.11.078.228.149.355.17.18.029.325.11.461.234.066.06.128.138.221.157.066.014.098.063.122.122.046.117.094.233.138.351.024.067.044.132.026.21-.017.082-.025.169-.036.252-.014.1-.02.214-.115.274-.07.045-.146.079-.225.106-.062.022-.12.06-.177.096-.108.066-.153.184-.203.296-.025.058-.066.088-.12.102-.037.01-.075.018-.113.025-.078.015-.247-.05-.27-.118-.036-.115-.148-.119-.22-.177-.059-.047-.15-.05-.229-.067-.211-.047-.418-.106-.592-.253-.03-.026-.06-.055-.094-.073-.16-.082-.233-.23-.285-.402-.028-.095-.057-.192-.119-.273-.023-.03-.037-.074-.083-.057-.039.016-.036.063-.043.1v.016c-.011.224.045.436.105.646.016.058.019.136.085.17v.016c.003.024-.01.057.03.062.014.066.067.109.087.172l.014.078c-.064-.04-.086-.113-.118-.176-.041-.08-.07-.168-.114-.247-.028-.052-.047-.104-.062-.16-.008-.036-.012-.08-.058-.088z"/>
        <path fill="#FD0303" d="M5.299 4.214c-.06.007-.104.055-.17.042.002-.039.059-.05.064-.095-.152.033-.304.051-.443.11-.127.03-.25.07-.366.123-.194.067-.375.155-.549.254-.088.05-.187.09-.253.164-.073.03-.128.079-.184.126-.111.072-.209.156-.298.247-.156.132-.287.28-.406.438-.16.213-.302.434-.394.677-.042.062-.058.132-.083.2-.067.156-.098.32-.117.485-.03.084-.02.17-.03.256-.003.046-.008.092.003.138.026-.003.032-.014.037-.024.096-.203.188-.408.29-.608.03-.057.034-.132.116-.162-.004.013-.008.027-.014.04-.109.213-.22.424-.301.647-.118.214-.152.434-.063.662.01.025.033.056-.022.066-.06-.093-.054-.2-.082-.3.017-.01.017-.02-.001-.029l-.016-.085c.017-.01.017-.02 0-.03-.03-.17-.013-.342 0-.513.022-.014.022-.029 0-.043.005-.029.022-.055.016-.085.018-.01.018-.02 0-.03l.033-.142c.015-.006.018-.017.017-.03.018-.198.107-.378.186-.56.112-.26.278-.496.468-.716.208-.24.448-.458.727-.64.316-.208.657-.379 1.027-.507.008-.003.016-.004.025-.005.059-.002.106-.026.15-.057h.05c.031-.003.06-.008.067-.042l.066-.001c.022 0 .033-.009.034-.027l.066-.002c.041.001.085.004.1-.041h.034c.026.021.03.004.033-.015h.033c.012.015.023.014.034 0l.032-.001c.015.001.027-.001.034-.014h.033c.014 0 .027-.002.034-.014h.05c.014 0 .026-.002.033-.014h.05c.024.001.048.001.051-.028h.05c.011.015.022.014.033 0l.083-.014c.017.018.034.018.05 0l.1-.001c.033-.003.07.012.1-.014H6c.003.02-.005.04-.016.058l-.05.014c-.035.005-.066.014-.083.043l-.033.014c-.022 0-.034.01-.034.028l-.033.015c-.082 0-.123.052-.167.1-.022 0-.033.01-.033.029-.092.035-.135.112-.2.17-.04.005-.063.024-.066.059 0 .011-.004.022-.017.028-.034 0-.034.022-.034.042l-.05.072c-.022 0-.033.01-.033.029-.039.018-.05.05-.05.085-.019.01-.016.027-.017.043-.04.005-.045.03-.049.058v.028c-.043.013-.05.038-.034.071-.006.04-.043.072-.034.114-.022.001-.033.01-.031.03l-.001.028c-.014.006-.017.016-.016.029v.027c-.015.007-.018.018-.016.03l-.001.042c-.02.01-.017.027-.016.044v.027c-.038.065-.01.134-.018.2-.061.009-.093-.039-.162-.054.161-.04.096-.158.145-.231.022-.14.075-.27.132-.402.038-.087.12-.152.151-.241.022-.008.034-.023.034-.043l.033-.043c.027-.013.048-.028.05-.057.04-.028.087-.051.1-.1.028 0 .044-.017.062-.032.082-.07.162-.142.253-.205.019-.012.064-.02.043-.05-.018-.026-.055-.012-.084-.008-.123.015-.217.083-.325.123z"/>
        <path fill="#645D68" d="M5.818 6c.053-.004.093.025.133.047.57.323.91.788 1.016 1.396.071.417.03.822-.147 1.212-.156.343-.391.633-.713.865-.31.222-.658.365-1.043.432-.169.029-.34.043-.511.038-.028-.001-.06-.011-.085.01l-.046-.002c-.055-.043-.125-.022-.187-.038-.079-.019-.163-.019-.235-.06.177.023.352.059.533.063.707.014 1.312-.208 1.796-.677.446-.43.645-.954.623-1.548-.02-.538-.214-1.008-.635-1.391-.023-.02-.043-.044-.075-.055l-.033-.025c-.015-.023-.036-.04-.064-.049l-.016-.01c-.01-.018-.028-.028-.048-.034l-.017-.01c-.01-.017-.027-.028-.049-.03-.01-.018-.027-.027-.048-.03-.024-.02-.048-.037-.08-.044l-.018-.012c-.004-.002-.008-.004-.013-.004l-.018-.014-.02-.03z"/>
        <path fill="#E00000" d="M5.088 6.028c.004 0 .008.002.01.005l.017.014c.026.008.047.03.068.052 0 .037.02.038.041.036 0 .037.021.036.042.036l.015.012c-.003.04.018.042.041.04l.014.013c-.002.05.022.06.055.058l.027.03c-.003.05.03.071.052.099.235.296.384.652.466 1.057.059.29.072.583.06.879-.008.186-.042.369-.081.549-.005.02-.011.03-.027.033-.019.004-.036.007-.014.036.013.075.005.138-.055.176-.048.014-.042.063-.042.108-.003.027-.01.05-.027.069-.01.004-.026.004-.03.014-.056.112-.11.225-.165.338-.031.025-.058.052-.056.106-.018.02-.012.06-.04.07-.063.017-.116.047-.125.142h-.07c.037-.05.072-.1.11-.147.17-.216.291-.474.39-.751.016-.004.026-.015.024-.038l.005-.068c.038-.034.046-.091.058-.142.073-.326.114-.655.08-.996-.026-.245-.058-.485-.133-.713-.106-.328-.257-.613-.477-.834-.097-.112-.201-.213-.321-.3.014-.007.02-.012.022-.01.017.008.033.018.05.028l.016-.001zm.74 3.074c.018-.024.033-.038.02-.068-.02.014-.028.03-.02.068z"/>
        <path fill="#F10000" d="M4.933 9H5c-.076.183-.173.308-.272.433-.245.313-.516.492-.802.546-.235.044-.474.028-.703-.124-.076-.05-.162-.059-.223-.187v-.055c.028-.01.054.019.08.026l.067.028c.003.09.036.08.067.08h.026c.02.03.038.081.067.026l.026.001c.024.09.07.067.107.079.017-.001.026-.018.027-.052h.04c.01.072.03.063.053.027h.04c-.003.08.025.075.053.08.1.015.198-.022.297-.037.032-.004.083.027.104-.07h.026c.014.033.027.033.04-.002h.026c.085-.03.167-.07.24-.16.035.008.057-.077.093-.054.052-.042.12-.028.135-.18.005-.022.014-.029.026-.027-.003.015-.01.04.001.042.026.004.047-.014.053-.074h.013c.062-.013.104-.08.133-.187.052-.004.078-.069.093-.159z"/>
        <path fill="#FD0303" d="M2 8c.08.009.087.05.102.085.026.054.06.106.109.155.075.077.126.162.198.24.057.061.094.133.207.17l.077.061c0 .022 0 .044.051.046l.051.015c-.02.044.084.05.077.09.002.031.039.031.076.031v.015l.026.015c.02.006.025.018.026.03V9L2.998 9c-.253-.119-.435-.27-.59-.436-.075-.08-.163-.155-.23-.236-.046-.055-.068-.117-.1-.176 0-.02-.016-.03-.05-.031L2 8zM3.5 9.5c-.079-.024-.142-.083-.199-.149-.1-.118-.228-.197-.301-.35L3.062 9c.013.033.032.058.059.074.011.033.031.05.06.05l.02.001c.007.092.062.122.12.15.047.04.093.083.14.124.011.035.043.056.04.1V9.5zM3.5 10.422v.078c-.114-.03-.203-.178-.312-.231-.012-.052-.033-.078-.063-.077-.033-.083-.113-.062-.125-.19V10h.105c.019.075.06.103.095.139.098.1.2.189.3.283z"/>
        <path fill="#F10000" d="M6 9.5c.14-.16.279-.32.422-.48.011-.013.051-.014.078-.02-.014.04-.027.083-.04.124-.084.008-.094.054-.106.1-.091.042-.082.135-.177.176-.048.013-.072.038-.071.075L6 9.5z"/>
        <path fill="#E00000" d="M5.006 5.437c.024-.145-.054-.296.049-.437.083.08.036.17.033.256-.003.062-.028.127.094.152.006.008.01.016.013.025l-.009.067h-.088l-.092-.063z"/>
        <path fill="#F10000" d="M6 9.367c.03-.245.207-.325.416-.367-.108.156-.255.269-.416.367z"/>
        <path fill="#E00000" d="M6 4.23c.031-.058.053-.118.046-.185.043-.057.106-.044.165-.043.045 0 .094.006.1.063.005.043-.028.062-.066.076-.083.027-.144.11-.245.09zM5 4.322c.121-.153.232-.319.458-.322-.133.136-.253.289-.458.322zM4.415 4.01c-.122.097-.253.177-.415.183.112-.121.23-.226.415-.183z"/>
        <path fill="#E00000" d="M5.278 4.054c-.081.085-.184.034-.278.043.07-.151.175-.093.278-.043z"/>
        <path fill="#E00000" d="M5.28 4c-.045.146-.165.136-.28.133.045-.143.189-.085.28-.133z"/>
        <path fill="#F10000" d="M6 9.277c-.008-.14.083-.213.188-.277.011.142-.084.212-.188.277z"/>
        <path fill="#F10000" d="M6 9.28c.002-.115-.019-.242.142-.28-.038.099-.033.218-.142.28z"/>
        <path fill="#E00000" d="M5 4.186c.008-.112.072-.172.181-.186-.013.109-.075.169-.181.186zM5.021 5.23c-.043-.106-.025-.188.093-.23.003.09-.019.171-.093.23z"/>
        <path fill="#E00000" d="M5 5.275c.002-.115.03-.215.138-.275-.002.114-.031.213-.138.275zM5 4.137c.048-.093.135-.124.23-.137-.028.128-.13.131-.23.137z"/>
        <path fill="#E00000" d="M5 5.186c.011-.087.027-.17.135-.186.006.099-.018.176-.135.186zM4.188 4c-.018.108-.1.124-.188.133.02-.105.103-.12.188-.133zM6 9.184c.015-.083.029-.168.137-.184-.014.084-.029.169-.137.184z"/>
        <path fill="#F10000" d="M2.044 7c.061.048.06.094-.002.14-.056-.047-.056-.095.002-.14z"/>
        <path fill="#E00000" d="M5.002 5.14C5 5.089 4.991 5.035 5.047 5c.072.074.049.119-.045.14zM5.138 4.043c-.045.06-.091.06-.138.001.045-.059.091-.059.138-.001z"/>
        <path fill="#E00000" d="M5.142 4c-.008.095-.074.093-.142.088.01-.09.075-.09.142-.087z"/>
        <path fill="#E00000" d="M5 4.138c0-.067 0-.134.093-.138 0 .066-.031.112-.093.138zM6 9.138c0-.068.03-.114.093-.138 0 .067-.001.133-.093.138z"/>
        <path fill="#F10000" d="M3 10c.067-.001.114.031.139.093-.067 0-.134 0-.139-.093z"/>
        <path fill="#E00000" d="M5 4.09c.003-.06.033-.09.094-.09-.003.06-.034.09-.094.09z"/>
        <path fill="#F10000" d="M6.034 8.094c-.073-.076-.015-.087.047-.094l-.047.094zM2 8c.06.004.09.036.088.096C2.029 8.091 1.998 8.06 2 8z"/>
        <path fill="#E00000" d="M5 5.093c0-.06.03-.091.09-.093 0 .06-.03.091-.09.093z"/>
        <path fill="#F10000" d="M2.033 8c.049.03.05.061.002.093-.046-.03-.047-.062-.002-.093z"/>
        <path fill="#F10000" d="M2.033 8c.05.03.05.062.001.093-.045-.03-.045-.062 0-.093zM2.034 7c.05.032.048.063 0 .094-.046-.033-.045-.063 0-.094z"/>
        <path fill="#F10000" d="M2.077 7c.002.041-.004.077-.046.098-.069-.072-.01-.085.046-.098z"/>
        <path fill="#E00000" d="M5 4.091c.001-.06.032-.091.093-.091-.003.059-.034.09-.093.091z"/>
        <path fill="#E00000" d="M5.093 4c-.01.058-.021.115-.093.045.02-.037.055-.046.093-.045z"/>
        <path fill="#E00000" d="M5.093 4.034c-.03.048-.061.05-.093.002.03-.047.06-.048.093-.002z"/>
        <path fill="#E00000" d="M5.095 4.031c-.02.04-.054.048-.095.044.013-.055.024-.112.095-.044z"/>
        <path fill="#E00000" d="M5.095 4.032c-.021.039-.055.047-.095.044.011-.056.024-.113.095-.044z"/>
        <path fill="#E00000" d="M5.096 4c-.005.06-.035.09-.096.088.005-.06.035-.09.096-.088z"/>
        <path fill="#E00000" d="M5.095 4.031c-.02.04-.055.047-.095.044.012-.056.025-.112.095-.044zM5 5.095c-.002-.04.006-.074.045-.095.069.07.012.083-.044.095z"/>
        <path fill="#E00000" d="M5 5.094c-.002-.04.006-.075.045-.094.069.07.012.082-.045.094z"/>
        <path fill="#E00000" d="M5 5.096c-.003-.061.028-.092.087-.096.002.06-.028.091-.087.096zM5.092 4.034c-.03.048-.06.05-.092.002.03-.047.06-.048.092-.002z"/>
        <path fill="#B00" d="M4.533 6.112l-.045-.025c-.003-.002-.007.003-.02.01.11.077.204.168.293.268-.062.018-.119.064-.136.134-.034.14-.025.282.044.406.092.166.192.326.232.527.017.087.042.171.067.255.032.108.042.216.021.331-.043.247-.102.486-.204.706-.105.226-.243.416-.395.59-.093.106-.197.2-.318.252-.252.107-.51.185-.779.199-.074.004-.15.015-.222.045-.036.014-.064.041-.085.079-.02.038.024.049.027.079l.002.031c-.02.004-.037-.005-.054-.017-.127-.083-.251-.17-.37-.274-.184-.158-.338-.343-.455-.582-.031-.063-.045-.149-.108-.185v-.016c0-.023.002-.047-.011-.068-.016-.027-.027-.063-.002-.082.025-.02.04.018.055.038.11.146.228.28.368.38.07.05.13.113.193.176.066.066.128.146.216.169.128.032.258.038.387.05.134.012.268-.006.4-.032.13-.026.257-.066.37-.146.25-.174.46-.404.605-.716.129-.277.204-.571.136-.892-.036-.169-.072-.343-.142-.495-.086-.185-.196-.352-.294-.528-.08-.14-.098-.29-.104-.45 0-.034.011-.072.036-.097.04-.042.075-.093.118-.126.047-.036.048-.065.01-.106.033-.004.056.041.09.031l.059.033.015.032v.016z"/>
        <path fill="#645D68" d="M5.5 6.405c-.067.03-.111-.102-.177-.089-.048-.083-.111-.101-.17-.135-.01-.01-.018-.021-.026-.032L5.1 6.14c-.017-.053-.045-.043-.072-.046L5 6c.185.054.362.146.5.405z"/>
        <path fill="#645D68" d="M5 6.098L5.005 6c.13.064.26.123.39.195.038.022.093.016.105.126l-.079.008c-.053-.063-.113-.077-.173-.092-.026-.064-.064-.04-.098-.046-.04-.083-.107-.015-.148-.093H5z"/>
        <path fill="#B00" d="M5 6.008L5.146 6l.215.052.051.093c-.152 0-.292-.036-.412-.137z"/>
        <path fill="#FD0202" d="M2 8.03c.068-.268.161-.525.252-.783.005-.015.008-.032.012-.048l.001-.034c.08-.096.106-.227.153-.346l.014-.035c.033-.005.037-.038.041-.07l.015-.05c.027-.003.04-.02.04-.054l.03-.068c.026-.002.04-.02.04-.052l.03-.051c.031-.002.045-.036.066-.058.112-.122.228-.239.359-.33.15-.107.298-.217.446-.33.073-.055.137-.123.165-.232.011-.043.032-.083.049-.124.061-.124.115-.255.194-.365 0 .015.004.032 0 .043-.065.14-.088.309-.187.426-.059.07-.077.162-.089.256-.007.055.016.085.062.091.076.011.152.022.228.017.028-.001.056-.002.079.033-.052.054-.118.033-.176.047-.068.017-.12.057-.17.107-.015.014-.027.04-.046.036-.14-.026-.234.093-.344.16-.075.046-.118.129-.149.22-.082.251-.085.515-.055.776.016.133.108.224.162.336.025.052.063.092.095.138.01.015.019.032.02.053.007.156.038.304.088.448.016.046.02.1.022.151.001.052.004.097.04.13.014.015.014.034.008.056-.009.036-.006.073.001.11.018.096 0 .139-.075.173-.13.06-.263.108-.388.182-.042.026-.082-.001-.122-.006-.101-.012-.202-.018-.303-.037-.066-.011-.13-.034-.193-.062-.058-.027-.096-.09-.105-.162-.024-.181-.076-.354-.09-.538C2.214 8.077 2.095 8 2 8.031z"/>
        <path fill="#E90000" d="M4.323 6h.028c.001.036.022.035.043.035-.142.055-.274.13-.384.26-.087.102-.18.191-.23.332-.04.112.002.414.076.498.004.004.007.01.01.012.126.056.241.142.37.191.114.043.237.052.328.178.176.246.32.513.397.83.016.063.047.127.037.191-.028.17-.038.343-.061.513-.027.198-.111.327-.252.407-.142.082-.267.19-.377.328-.152.191-.344.247-.553.218-.158-.022-.311-.065-.438-.192-.045-.045-.092-.078-.146-.102-.19-.084-.378-.166-.547-.312-.197-.17-.354-.375-.432-.661-.017-.066-.052-.123-.08-.184-.008-.02-.021-.032-.04-.026-.015.004-.026.019-.026.036.002.057-.016.116.012.17.004.051.021.102.014.156 0 .097.03.185.055.273.014.05.008.116.058.145V9.367c-.064-.039-.066-.126-.082-.19-.058-.235-.113-.472-.101-.722v-.018c.006-.042.003-.094.041-.112.044-.02.059.03.08.064.06.09.089.199.116.305.05.192.12.358.276.45.033.019.062.051.091.08.169.165.37.23.574.283.076.02.165.022.222.075.07.066.178.07.214.199.022.075.185.147.26.13.038-.007.075-.015.111-.027.052-.016.092-.05.116-.114.049-.125.092-.257.197-.331.055-.04.111-.082.172-.107.076-.031.15-.068.218-.118.092-.068.098-.195.11-.306.012-.094.02-.19.037-.282.016-.088-.003-.16-.026-.235-.043-.132-.09-.262-.134-.392-.023-.067-.055-.121-.118-.136-.09-.022-.15-.11-.214-.177-.132-.138-.272-.23-.447-.262-.123-.023-.239-.102-.345-.189-.023-.019-.03-.05-.03-.075-.002-.11-.034-.215-.037-.326-.007-.199.033-.357.184-.459.138-.092.25-.236.399-.307.082-.039.167-.058.254-.068z"/>
        <path fill="#FE3232" d="M2.769 6.34l-.033.069c-.03.003-.047.02-.047.054l-.017.053c-.037.007-.043.038-.048.072l-.016.035c-.052 0-.05.056-.066.088-.04.086-.094.167-.108.267l-.002.035c-.08.037-.083.13-.111.2-.098.25-.187.504-.28.756-.004.013-.01.028-.034.031-.011-.058-.006-.115-.003-.172.068-.043.066-.127.092-.193.135-.337.26-.678.425-.999.067-.129.131-.263.207-.381.102-.158.223-.305.364-.43.197-.173.39-.352.577-.54.161-.16.327-.317.461-.51.127-.184.236-.385.396-.54.027-.026.045-.058.049-.098.134-.073.279-.096.425-.137-.005.057-.06.07-.06.119l-.032.016c-.02.003-.03.015-.033.037-.074.017-.125.077-.177.129-.14.137-.285.273-.381.456-.09.112-.152.247-.223.374-.09.012-.131.103-.192.159-.137.124-.278.243-.422.357-.168.132-.34.257-.494.409-.052.05-.116.095-.138.177l-.032.052c-.03.003-.047.02-.047.054z"/>
        <path fill="#E90000" d="M4.579 4.406c-.024.067-.083.115-.11.18-.042.098-.08.196-.096.3-.034.006-.03.034-.037.054-.017.05-.058.07-.114.055-.068-.018-.131-.045-.19-.08-.028-.015-.04-.037-.026-.068.008-.018.013-.036.028-.052.057-.06.1-.123.126-.2.064-.18.225-.292.393-.396.05-.031.118-.045.147-.101.079-.03.147-.081.235-.093.021-.003.048-.013.061.006.015.023-.017.029-.03.038-.067.046-.125.1-.185.153-.013.01-.024.024-.045.023.007-.029.029-.05.05-.07.015-.015.04-.034.027-.049-.019-.021-.042.005-.063.012-.05.02-.086.057-.126.089-.094.072-.202.138-.267.228-.082.115-.13.25-.187.377-.02.043.005.079.055.099.054.02.079-.009.1-.043.01-.015.016-.032.023-.049.035-.09.059-.184.11-.268.032-.052.055-.112.12-.145z"/>
        <path fill="#E00000" d="M2 9.046V9c.152.022.099.138.25.16v.022c-.006.052.039.092.094.13.077.057.145.116.156.188l-.167-.09c-.054-.092-.208-.155-.25-.25.005-.04-.007-.074-.083-.091v-.023z"/>
        <path fill="#E90000" d="M2 9l.183.184c.103.067.097.171.093.275-.031-.014-.062-.031-.092-.046l-.138-.183L2 9z"/>
        <path fill="#E90000" d="M2 9c.084.034.096.105.092.184C1.969 9.168 2.009 9.072 2 9z"/>
        <path fill="#FD0303" d="M5 4.096c.007-.057.038-.09.095-.096.003.066-.029.098-.095.096z"/>
        <path fill="#FEA1A1" d="M3.298 4.484c.058-.087.145-.132.222-.19.152-.115.31-.217.48-.294-.003.038-.023.068-.045.092-.078.086-.153.175-.212.278-.09.16-.19.311-.308.445-.152.172-.318.329-.476.495-.236.248-.425.537-.581.855-.124.252-.239.51-.334.777-.01.025-.012.055-.044.058.016-.192.044-.381.103-.563.03.003.041-.024.05-.05.05-.137.12-.26.188-.387.012-.024.03-.044.024-.074l.046-.113c.015-.002.033 0 .041-.021.028-.011.031-.036.03-.065l.015-.017c.019 0 .028-.01.027-.032.02-.034.03-.075.06-.101.02 0 .029-.01.026-.032l.002-.003c.022-.006.03-.022.028-.046l.002-.002c.03-.016.048-.04.043-.08l.001-.002c.038-.001.045-.029.043-.065.017 0 .03-.006.04-.02.103-.144.207-.287.29-.449.06-.115.12-.23.203-.325.017-.02.039-.036.036-.069z"/>
        <path fill="#FE5354" d="M2.022 6.741c.027-.002.03-.028.038-.05.08-.233.178-.458.284-.678.134-.277.295-.53.496-.746.135-.144.276-.281.405-.432.1-.116.186-.248.263-.387.05-.09.114-.168.18-.243.02-.02.036-.047.039-.08C3.813 4.07 3.905 4.03 4 4c-.003.033-.017.06-.038.08-.125.126-.209.29-.308.439-.104.157-.233.284-.359.415-.145.152-.295.297-.448.439-.11.1-.204.22-.283.348-.06.097-.11.206-.161.31-.13.26-.226.539-.331.812-.02.054-.02.122-.072.157.008-.087 0-.174.022-.259z"/>
        <path fill="#E00000" d="M4.635 4.376c-.1.04-.135.112-.184.177-.079.103-.115.217-.17.327-.01.02-.02.04-.034.06-.033.041-.07.077-.153.052-.076-.024-.113-.069-.084-.12.088-.157.16-.32.287-.46.098-.11.265-.19.407-.28.062-.037.116-.084.194-.107.031-.01.067-.041.097-.015.02.018-.02.042-.042.06-.033.025-.066.05-.077.085-.013.045-.066.065-.11.091-.049.002-.058.024-.056.052l-.037.039c-.038.001-.038.02-.038.039z"/>
        <path fill="#F3F3F3" d="M2.336 5.695l-.065.087c-.05 0-.056.026-.08.044-.07.055-.086.133-.191.174.115-.218.291-.416.493-.607.148-.141.312-.275.507-.393-.002.01 0 .023-.007.031-.151.15-.269.314-.45.453-.057.044-.121.088-.147.144-.024.01-.02.024-.022.038-.028.002-.042.011-.038.03z"/>
        <path fill="#E8E8E8" d="M3 6c.027-.067.093-.119.15-.17.186-.164.307-.355.461-.533.008-.01.005-.024.008-.036.114-.097.239-.185.381-.261-.056.098-.182.16-.254.252-.106.136-.226.267-.34.4l-.002.002c-.033.013-.061.029-.062.059H3.34c-.042.016-.067.039-.063.074l-.002.002c-.04.001-.041.022-.041.042l-.003.003c-.026 0-.039.01-.039.029-.044.023-.058.061-.088.092-.027 0-.04.01-.04.03L3.044 6H3z"/>
        <path fill="#E0E0E1" d="M3 6c.138-.17.282-.337.41-.51.086-.117.239-.196.306-.321.087-.064.171-.13.283-.169.006.038-.032.057-.062.079-.146.111-.253.244-.357.378-.147.187-.33.353-.513.52-.016.016-.04.024-.067.023z"/>
        <path fill="#E8E8E8" d="M2.138 6.274c.139-.051.16-.15.255-.219.031-.022.04-.056.105-.055.01.03-.022.05-.046.073-.128.123-.262.244-.356.378-.017.025-.037.051-.096.049.04-.076.067-.155.138-.226z"/>
        <path fill="#E90000" d="M5 4.184c-.004-.1.019-.178.139-.184-.005.093-.065.143-.138.184z"/>
        <path fill="#E90000" d="M5 4.138c0-.067 0-.133.092-.138 0 .066-.03.113-.092.138z"/>
        <path fill="#C50506" d="M6.183 6.15c-.108.007-.19-.017-.183-.15.079.029.14.08.183.15z"/>
        <path fill="#C50506" d="M6.14 6.094c-.07.002-.138.005-.14-.094.061.008.108.04.14.094z"/>
        <path fill="#C50506" d="M6.139 6.104C6.063 6.11 5.993 6.106 6 6c.058.019.107.05.138.104zM5.138 6.094C5.067 6.099 5 6.097 5 6c.06.011.109.038.138.094z"/>
        <path fill="#C50506" d="M5 6.049L5.001 6l.053.045L5 6.048zM5.053 6.036L5 6l.053.036z"/>
        <path fill="#9E0000" d="M4.044 9.865L4.04 9.83c-.004-.032-.06-.043-.034-.084.026-.04.062-.068.108-.084.092-.031.19-.043.284-.047.343-.015.672-.098.994-.212.154-.055.287-.156.405-.268.194-.185.371-.387.504-.627.13-.234.206-.489.261-.75.026-.123.015-.238-.026-.353-.032-.09-.064-.18-.086-.271-.052-.215-.18-.384-.297-.56-.087-.133-.099-.284-.056-.432.022-.075.094-.124.174-.143.259.21.434.482.559.794.087.218.125.446.154.68.041.324-.007.638-.093.948-.014.049-.022.103-.067.136-.06-.043-.087.012-.12.043-.244.224-.42.514-.67.732-.106.091-.206.19-.325.259-.08.044-.149.114-.245.122-.23.019-.454.072-.674.14-.071.023-.113.064-.101.146-.21-.018-.419-.044-.614-.134l-.032-.001z"/>
        <path fill="#870000" d="M4.002 8.998c-.01-.056.028-.084.094-.099.207-.047.416-.083.632-.096.09-.006.155-.054.229-.084.112-.047.205-.115.303-.177.235-.15.4-.348.628-.502.031-.02.057-.059.112-.03l-.005.045c-.02.001-.03.01-.027.025-.107.18-.241.348-.427.49-.04.03-.08.063-.119.095-.05.005-.066.043-.106.059l-.015.01c-.037.002-.06.022-.09.035-.02 0-.03.007-.031.021-.022 0-.043.002-.046.023-.017.002-.036 0-.045.016-.013-.001-.023.002-.028.012-.018-.004-.031.004-.046.01-.01.001-.02.001-.029.004-.314.103-.641.155-.984.143z"/>
        <path fill="#F10000" d="M6.009 9.177c-.025-.1.003-.14.069-.177.044.079-.008.114-.07.177z"/>
        <path fill="#9E0000" d="M6 9.1c-.005-.06.022-.093.082-.1.007.062-.025.09-.081.1z"/>
        <path fill="#D30000" d="M2.804 9.885h.02c.002.044.032.041.053.05.04.02.085.028.123.057-.017.023-.034-.01-.052 0h-.02c-.016-.012-.03-.035-.052-.014h-.02c-.006-.037-.03-.038-.052-.04l-.051-.013c-.002-.028-.021-.03-.036-.04-.061-.038-.126-.068-.18-.123-.015-.014-.032-.024-.052-.022-.011-.008-.015-.028-.031-.026-.021-.066-.072-.086-.114-.12-.001-.033-.019-.04-.041-.039l-.03-.026c-.017-.02-.02-.005-.022.013-.014-.01-.024-.022-.03-.04 0-.014.001-.03-.01-.04-.004-.008-.008-.008-.011 0h-.01c0-.01-.002-.02-.01-.026v-.013c0-.01-.003-.02-.011-.026v-.014c-.014-.042-.018-.093-.062-.105-.004-.01-.012-.013-.02-.014 0-.03.002-.06-.021-.079-.003-.042-.02-.076-.039-.109C2.01 9.053 2 9.03 2 9c.051.03.063.102.088.155.095.2.221.354.37.487.098.086.199.159.303.229.013.009.027.017.043.014z"/>
        <path fill="#B00" d="M4.324 10.432c-.071-.073-.152-.093-.228-.141-.038-.023-.093-.017-.096-.128.23.179.476.23.724.267.432.035.844-.116 1.24-.418.01-.008.024-.008.036-.012-.006.068-.039.079-.068.097-.03.019-.063.03-.067.099-.053-.029-.083.078-.133.068-.01-.027-.024-.026-.04-.015-.09.062-.18.124-.277.154-.018.005-.023.032-.026.06h-.037c-.02-.04-.039-.04-.057.003h-.037c-.216.053-.433.026-.65.034h-.056c-.02-.051-.05-.03-.077-.034H4.42c-.008-.028-.022-.034-.039-.033h-.056z"/>
        <path fill="#D30000" d="M4 10.046c.167-.01.334.026.5-.046-.024.168-.079.114-.114.122-.11.024-.218.087-.328.06-.03-.007-.06.003-.058-.136z"/>
        <path fill="#E90000" d="M3 10c.037-.005.07.021.097.062.102.146.222.228.336.331.028.026.063.032.067.107-.039-.01-.075-.048-.116-.035-.092-.087-.186-.17-.277-.263-.032-.033-.07-.059-.088-.129L3 10.001z"/>
        <path fill="#D30000" d="M5 10.304c.004-.038.011-.075.038-.083.14-.04.271-.126.402-.21.025-.016.044-.017.06.02-.154.154-.325.224-.5.273z"/>
        <path fill="#E00000" d="M5.139 9.14c.088-.052.162-.133.273-.139L5.458 9l.002.002c-.1.182-.247.3-.46.32l.043-.094v-.001c.061.003.092-.027.096-.087zM5 10.313c.011-.095.091-.111.162-.136.07-.025.149-.039.165-.133.043-.023.083-.055.138-.04-.05.26-.289.237-.465.309z"/>
        <path fill="#E90000" d="M4.23 10.006l.136.001.003.135c-.132-.02-.287.02-.369-.135.077-.035.153.08.23 0z"/>
        <path fill="#E00000" d="M5 9.233c.12-.06.173-.215.323-.233-.052.156-.142.267-.32.277L5 9.274v-.042z"/>
        <path fill="#E90000" d="M4 10c.1.007.203.008.231.137-.104.001-.218.017-.231-.137z"/>
        <path fill="#E00000" d="M5.016 10.062c.027-.06.083-.056.134-.062l.052.008c-.018.102-.092.133-.18.126-.04-.003-.016-.046-.006-.072z"/>
        <path fill="#E90000" d="M4 10.03c.095-.073.158.007.23.047-.1.094-.161.005-.23-.047z"/>
        <path fill="#D30000" d="M4 10.002c.065.004.137-.023.186.046-.081.063-.15.078-.186-.046z"/>
        <path fill="#D30000" d="M4.003 10.136L4 10c.04 0 .074.008.094.046-.002.06-.033.088-.091.09zM5 10.046c.045-.06.09-.06.138-.003-.045.06-.09.06-.138.003z"/>
        <path fill="#B00" d="M5.052 10.098L5 10.09c.011-.085.074-.089.14-.09-.015.031-.03.063-.043.095l-.045.002z"/>
        <path fill="#E00000" d="M3.005 9c.196.044.216.221.275.367h-.137c.012-.122-.176-.142-.138-.275V9z"/>
        <path fill="#F10000" d="M3.001 9h.044l.047.002c.054.032.045.086.047.136L3 9.14 3.001 9z"/>
        <path fill="#F10000" d="M3 9h.138v.046l-.001.048c-.067 0-.134 0-.137-.094z"/>
        <path fill="#E90000" d="M3.092 9.047v.093L3 9.093V9c.038.002.073.009.092.047z"/>
        <path fill="#F10000" d="M3.092 9.046v.091C3 9.133 3 9.066 3 9l.092.046z"/>
        <path fill="#E90000" d="M3 9.047L3.001 9c.037.02.045.055.046.093l-.046-.001L3 9.047z"/>
        <path fill="#E00000" d="M3 9h.046v.045L3 9z"/>
        <path fill="#E90000" d="M3.077 9c.156.114.343.185.423.413h-.115c-.09-.075-.18-.153-.27-.23C3.12 9.085 3.017 9.082 3 9h.077z"/>
        <path fill="#F10000" d="M3 10.001h.138c.071-.008.09.063.138.091l.045.094h-.23c.007-.081-.065-.121-.091-.185zM3.139 9.092c.02.081.142.085.138.183-.134-.05-.262-.106-.277-.274L3.046 9c.032.03.062.061.093.092z"/>
        <path fill="#F10000" d="M3 9.078c.01-.061.022-.115.094-.045-.055.069.046.088.045.138-.067-.001-.113-.032-.139-.093z"/>
        <path fill="#E90000" d="M3.062 9.137c.001-.051-.1-.069-.045-.137l.137.091v.048h-.046c-.016-.002-.031-.002-.046-.002z"/>
        <path fill="#D30000" d="M2.194 9.286c-.047-.016-.03-.103-.078-.119v-.034C2.1 9 2.05 8.877 2.034 8.742c-.001-.006-.014-.01-.021-.015.006-.053-.01-.102-.013-.153.033-.028.058-.013.075.028.036.086.072.172.105.26.11.284.3.45.506.59.118.08.244.14.36.224.205.15.425.206.655.182.163-.017.319-.08.45-.225.082-.09.17-.169.262-.243.116-.096.21-.222.266-.391.041-.123.047-.255.066-.384.026-.181.028-.356-.023-.536-.077-.27-.168-.524-.318-.736-.12-.17-.281-.257-.44-.345-.042-.024-.073-.045-.081-.112-.009-.066-.033-.128-.056-.188-.014-.034-.03-.069-.02-.112.042-.197.137-.339.264-.452.055-.048.124-.064.168-.134.022.032.05.019.077.017.034.038.074.05.117.051.009.019.024.016.038.017l.014.004.013.012c.032.012.065.018.09.05.04.043.039.074-.009.112-.044.036-.08.09-.121.135-.025.028-.038.068-.036.105.006.171.025.332.105.482.101.188.213.368.3.566.073.163.11.35.147.53.07.344-.008.66-.14.956-.148.335-.363.58-.617.768-.117.085-.247.129-.38.156-.135.028-.272.048-.41.035-.131-.013-.264-.02-.395-.055-.09-.024-.153-.11-.221-.18-.064-.068-.127-.135-.198-.189-.143-.107-.263-.25-.376-.407-.015-.02-.03-.062-.056-.041-.026.021-.015.06.002.088.013.024.01.049.01.074z"/>
        <path fill="#B00" d="M5.136 6.046C5.086 6.045 5.033 6.051 5 6c.05.003.103-.006.136.046zM5.048 6.032L5 6l.048.032z"/>
        <path fill="#B00" d="M5.37 6.091c-.095.005-.196.042-.274-.046L5 6.002C5.016 6 5.032 6 5.047 6c.112.014.224.029.323.091z"/>
        <path fill="#C50506" d="M5.137 6.093C5.072 6.091 5.003 6.094 5 6c.076.078.201.01.275.093L5.27 6.1l-.133-.007z"/>
        <path fill="#C50506" d="M5.186 6.046l-.046.002c-.05-.003-.102.001-.14-.041L5.005 6c.063.006.133-.017.181.046z"/>
        <path fill="#FD0303" d="M3 6c.018-.074.069-.114.11-.16.124-.138.263-.252.397-.372.116-.103.228-.211.338-.324.05-.05.082-.133.155-.144-.015.038-.034.075-.045.115-.026.102-.084.165-.152.217-.136.104-.272.207-.41.306-.122.086-.228.194-.332.308C3.042 5.967 3.03 6 3 6zM2 6.5c.04-.141.193-.255.31-.377.044-.045.04-.123.19-.123-.152.171-.24.361-.5.5zM3 6.186c.014-.085.031-.168.136-.186-.014.085-.027.171-.136.186z"/>
        <path fill="#FD0303" d="M3 6.141c.002-.088.05-.133.135-.141-.001.088-.046.136-.135.141z"/>
        <path fill="#FD0303" d="M3 6.138c.002-.089.049-.133.136-.138-.004.088-.049.133-.136.138z"/>
        <path fill="#E00000" d="M4.363 6.003c.011.016.027.014.042.016l.03.016c-.048.072-.123.088-.182.137-.137.116-.24.262-.285.465-.01.044.006.08.02.114.027.062.052.125.061.193.01.07.043.09.09.115.17.091.343.18.473.355.162.217.261.478.344.754.055.186.053.365.025.551-.02.132-.027.268-.071.394-.061.174-.162.303-.288.402-.099.076-.194.157-.283.25-.141.147-.31.212-.486.23-.248.024-.486-.034-.707-.187-.126-.086-.262-.148-.39-.23-.222-.144-.428-.314-.545-.606-.036-.09-.076-.178-.115-.266-.018-.042-.044-.058-.08-.029-.028-.053-.01-.112-.012-.168 0-.018.01-.032.025-.036.02-.006.032.007.04.026.027.06.062.118.08.183.076.286.23.489.426.66.166.145.353.226.54.31.053.024.1.058.144.101.125.128.277.17.432.192.207.029.397-.027.547-.217.108-.138.232-.245.373-.327.138-.08.221-.209.248-.406.023-.17.033-.342.06-.511.01-.064-.02-.128-.036-.191-.077-.316-.219-.582-.393-.827-.089-.125-.21-.134-.323-.177-.127-.05-.241-.135-.365-.19-.004-.003-.007-.008-.01-.012-.074-.084-.116-.385-.076-.497.05-.14.142-.23.227-.33.11-.13.24-.205.38-.26l.04.003z"/>
        <path fill="#E00000" d="M2 8c.025.006.071.011.074.019.057.166.232.316.293.481-.163-.035-.143-.114-.19-.174-.08-.105-.18-.21-.177-.326z"/>
        <path fill="#E0E0E1" d="M3.047 6l.092.003c.007.079-.005.147-.092.178L3 6.136c.002-.05-.006-.104.047-.136z"/>
        <path fill="#E0E0E1" d="M3.001 6.223c-.01-.108.045-.177.137-.223.014.111-.04.18-.137.223z"/>
        <path fill="#E0E0E1" d="M3 6.18c.002-.092.062-.141.135-.18.008.1-.015.176-.135.18z"/>
        <path fill="#E8E8E8" d="M3.086 6c.015.016.031.03.047.045-.027.059-.082.053-.131.06-.01-.065.02-.098.084-.105z"/>
        <path fill="#E0E0E1" d="M3 6.13c0-.063.002-.125.089-.13.006.067-.022.112-.089.13z"/>
        <path fill="#E0E0E1" d="M3 6.09c0-.058.027-.088.086-.09.005.062-.025.09-.086.09z"/>
        <path fill="#E0E0E1" d="M3 6.09c0-.056.028-.086.083-.09.008.063-.021.091-.083.09z"/>
        <path fill="#B00" d="M5.096 10c-.003.06-.035.09-.096.085.006-.058.037-.087.096-.085z"/>
        <path fill="#F10000" d="M5.045 9v.041L5 9.043 5.045 9z"/>
        <path fill="#E00000" d="M3 9.047V9c.099-.004.177.02.184.138h-.093L3 9.047z"/>
        <path fill="#E90000" d="M3.048 9.025L3 9.024c.017-.032.032-.032.048 0z"/>
    </g>
</svg>
