<svg xmlns="http://www.w3.org/2000/svg" width="85" height="30" viewBox="0 0 85 30">
    <g fill="none">
        <g>
            <path fill="#F58C3E" d="M14.28 26.923c-.614 0-1.229-.002-1.843.003-.085 0-.114-.03-.137-.108-.697-2.365-1.395-4.73-2.095-7.094-.016-.056-.017-.155-.068-.156-.061-.001-.054.097-.07.152-.57 1.955-1.137 3.91-1.705 5.867-.12.412-.243.823-.36 1.235-.021.078-.054.103-.131.102-1.241-.002-2.482-.002-3.723 0-.073 0-.101-.027-.125-.095-.723-2.093-1.448-4.187-2.173-6.28L.1 15.51c-.047-.135-.047-.135.087-.135.975 0 1.95.001 2.926-.003.086 0 .123.027.15.114.438 1.447.88 2.894 1.321 4.34l.988 3.24.44 1.444c.01.037.008.095.056.096.053 0 .044-.06.054-.097l2.054-7.352c.157-.56.313-1.12.466-1.68.02-.076.05-.105.128-.105.932.004 1.864.006 2.795-.001.133-.001.133.087.157.17l1.336 4.635c.415 1.442.832 2.884 1.25 4.325.011.04.001.107.06.104.045-.002.043-.062.054-.1l1.403-4.561c.455-1.482.91-2.963 1.363-4.446.028-.094.067-.127.165-.126.896.004 1.792.004 2.688 0 .102 0 .117.021.082.124-.782 2.287-1.561 4.575-2.341 6.863-.506 1.48-1.013 2.961-1.515 4.444-.032.095-.071.124-.167.123-.607-.004-1.213-.002-1.82-.002zM39.65 21.156c0 1.876 0 3.751.003 5.626 0 .111-.023.144-.134.144-1.154-.005-2.307-.003-3.461-.001-.075 0-.12-.02-.165-.088-.796-1.195-1.596-2.389-2.395-3.583l-3.268-4.882c-.023-.034-.04-.101-.09-.084-.049.018-.023.08-.023.123l-.001 8.352c0 .179.022.16-.15.16-.873 0-1.745-.002-2.617.002-.098 0-.134-.013-.134-.131.004-3.763.003-7.526.001-11.29 0-.1.02-.132.123-.132 1.165.004 2.33.003 3.496.001.075 0 .121.023.166.09 1.385 2.083 2.773 4.164 4.16 6.246l1.475 2.21.042.06c.014.02.03.04.058.028.024-.01.015-.036.016-.054.003-.034.001-.067.001-.1v-8.315c0-.163 0-.163.162-.163h2.58c.177 0 .156-.023.156.168v5.613zM42.063 21.144V15.53c0-.157 0-.157.155-.157 1.502 0 3.005-.013 4.507.006 1.396.018 2.78.158 4.129.569.834.253 1.621.61 2.314 1.172.91.738 1.46 1.705 1.66 2.888.158.926.136 1.849-.105 2.758-.35 1.322-1.157 2.257-2.288 2.909-.809.466-1.682.74-2.583.924-.77.157-1.548.243-2.332.286-.65.036-1.298.037-1.948.037-1.13 0-2.26-.002-3.389.003-.101 0-.122-.031-.122-.132.003-1.883.002-3.767.002-5.65zm3.023.005c0 1.277.001 2.555-.002 3.833 0 .103.026.133.124.13.278-.007.556-.002.833-.002.625 0 1.25.019 1.872-.095.978-.18 1.883-.533 2.65-1.215.695-.616 1.122-1.39 1.194-2.348.093-1.227-.342-2.232-1.247-3.004-.968-.827-2.11-1.182-3.338-1.248-.649-.034-1.3-.007-1.95-.013-.105-.001-.14.023-.139.142.005 1.273.003 2.547.003 3.82z" transform="translate(30)"/>
            <path fill="#015BAA" d="M30.708 10.35c-1.17.033-2.37-.315-3.5-.954-.45-.255-.9-.514-1.401-.65-.468-.128-.94-.193-1.41-.018-.37.136-.665.397-.959.655-.519.455-1.01.945-1.573 1.344-.535.38-1.113.645-1.755.763-.592.108-1.096-.064-1.554-.453-.64-.544-1.152-1.207-1.631-1.9-.86-1.246-1.59-2.575-2.27-3.936-.188-.377-.358-.762-.441-1.183-.039-.196-.06-.392-.013-.59.047-.202.2-.345.396-.376.077-.012.127.01.178.081.937 1.295 1.867 2.596 2.853 3.85.458.583.908 1.173 1.426 1.7.293.3.608.567.991.735.433.189.84.11 1.238-.115.48-.27.88-.645 1.268-1.038.225-.227.437-.47.664-.695.379-.376.824-.628 1.343-.705.54-.08 1.07-.005 1.593.156.787.242 1.548.562 2.322.841.57.205 1.144.397 1.739.509.333.063.67.074 1.006.054 1.11-.065 2.186-.307 3.23-.707 1.321-.507 2.535-1.222 3.684-2.065 1.126-.828 2.16-1.774 3.168-2.754.988-.963 1.996-1.904 3.032-2.81.047-.04.084-.05.137-.025.14.065.232.17.256.33.042.272-.043.517-.16.75-.259.518-.58.995-.91 1.465-.787 1.123-1.67 2.158-2.642 3.108-1.292 1.26-2.71 2.332-4.3 3.148-1.174.602-2.402 1.035-3.69 1.276-.725.136-1.456.213-2.315.208z" transform="translate(30)"/>
            <path fill="#F58C3E" d="M21.693 21.152c0-1.879 0-3.758-.003-5.638 0-.112.026-.143.136-.143.92.005 1.839.005 2.759 0 .102 0 .133.024.133.137-.003 3.762-.003 7.525 0 11.288 0 .104-.027.13-.125.13-.924-.004-1.847-.005-2.77 0-.104 0-.133-.024-.133-.136.003-1.88.003-3.759.003-5.638zM23.487 2.3c.32-.012.624.055.903.218.686.4.841 1.209.359 1.875-.388.534-.917.81-1.543.9-.423.062-.83.005-1.205-.218-.627-.372-.803-1.099-.42-1.737.35-.58.877-.877 1.504-1.008.133-.028.267-.034.402-.03z" transform="translate(30)"/>
        </g>
        <path fill="#000" d="M17.7 12.646c.253.196.477.375.706.547.976.73 1.879 1.535 2.538 2.59.777 1.243 1.1 2.608 1.048 4.074-.14 3.942-2.078 6.699-5.394 8.522-1.736.954-3.606 1.44-5.574 1.502-2.213.07-4.36-.253-6.371-1.254-1.916-.953-3.406-2.356-4.18-4.432-.686-1.835-.673-3.653.393-5.35 1.023-1.63 2.525-2.37 4.406-2.305 1.109.038 2.127.35 2.963 1.133.905.849 1.236 1.928 1.157 3.16-.005.077-.013.154-.02.253.694.018 1.332-.113 1.906-.49 1.145-.75 1.64-1.842 1.549-3.215-.03-.45-.283-.772-.666-.99-.49-.278-1.04-.322-1.577-.413-1.039-.176-2.084-.33-3.058-.772-.237-.107-.468-.245-.674-.406-.658-.514-.764-1.269-.205-1.888.41-.452.893-.843 1.38-1.212.574-.435 1.19-.814 1.783-1.224.14-.096.272-.209.392-.33.214-.213.197-.396-.083-.505-.298-.117-.617-.219-.933-.242-.99-.073-1.981-.117-2.973-.15-1.254-.043-2.51-.04-3.762-.108-.484-.026-.978-.143-1.436-.31-.788-.285-1.031-.904-.733-1.704.216-.579.589-1.05 1.007-1.486 1.166-1.214 2.553-2.1 4.037-2.836 1.518-.754 3.108-1.285 4.778-1.54 2.006-.307 3.996-.268 5.91.507 1.864.755 3.145 2.086 3.589 4.131.35 1.617.06 3.169-.646 4.637-.261.543-.597 1.047-.904 1.566-.103.175-.22.34-.352.54zm-9.078 8.112c-.018-.996-.286-1.84-1.043-2.457-.669-.546-1.45-.771-2.293-.815-1.457-.076-2.64.469-3.496 1.679-.968 1.37-1.041 2.88-.527 4.439.559 1.695 1.687 2.911 3.167 3.805 1.48.893 3.102 1.305 4.802 1.462 1.955.18 3.854-.04 5.689-.767 1.71-.678 3.201-1.679 4.357-3.162 1.14-1.463 1.696-3.144 1.776-5.002.065-1.503-.3-2.873-1.205-4.075-.555-.74-1.25-1.325-1.976-1.876-.266-.202-.533-.404-.779-.631-.425-.393-.465-.758-.165-1.262.067-.114.149-.22.215-.336.374-.651.795-1.28 1.105-1.962.505-1.108.692-2.293.474-3.507-.318-1.77-1.394-2.913-2.977-3.578-1.783-.75-3.642-.786-5.517-.5-1.743.265-3.387.85-4.949 1.68-1.285.683-2.5 1.474-3.48 2.583-.272.31-.475.693-.66 1.068-.12.24-.013.437.245.51.186.052.407.08.588.028.508-.147 1.028-.291 1.5-.526 1.293-.645 2.563-1.338 3.845-2.007 1.173-.611 2.358-1.195 3.638-1.54.625-.169 1.257-.264 1.944-.192-.752.507-1.42 1.04-1.69 1.994.15-.025.25-.03.343-.058.413-.121.821-.265 1.239-.37 1.239-.316 2.429-.262 3.504.543.396.297.737.648 1.028 1.078-.249-.038-.468-.082-.688-.102-.445-.042-.876.016-1.276.235-.167.091-.227.198-.07.363.134.14.256.295.378.447.843 1.051.969 2.258.351 3.46-.326.636-.801 1.126-1.434 1.514.044-.263.095-.484.117-.708.045-.45.067-.9-.102-1.33-.094-.239-.201-.275-.41-.137-.168.111-.327.238-.48.369-1.448 1.236-3.034 2.237-4.793 2.939-.32.127-.66.197-1.043.308.168.061.287.121.412.147.933.192 1.866.388 2.803.563 1.37.257 2.733.539 4.03 1.081 1.305.546 2.457 1.307 3.303 2.492.298.417.546.862.74 1.388l-.227-.106c-.585-.267-1.175-.51-1.826-.553-.216-.014-.292.078-.256.273.04.208.094.414.16.615.217.671.36 1.358.342 2.065-.038 1.493-.695 2.687-1.756 3.672-.018.016-.044.023-.05.025.027-.38.07-.756.073-1.132.003-.483-.058-.962-.259-1.407-.125-.279-.233-.287-.393-.032-.12.192-.23.393-.335.593-.887 1.689-2.228 2.791-4.042 3.273-.437.116-.885.19-1.328.283l-.033-.075c.08-.072.17-.136.24-.217.372-.421.66-.893.773-1.457.047-.233-.022-.292-.246-.24-.112.027-.222.063-.333.097-.775.242-1.56.434-2.376.428-1.521-.013-2.715-.709-3.674-1.88-.027-.033-.043-.075-.067-.119.606.032 1.205.12 1.765-.3-.629-.61-1.238-1.187-1.312-2.096-.075-.914.367-1.598.968-2.287 0 .28-.017.485.003.687.044.446.173.855.584 1.094.175.103.221.062.249-.14.027-.2.043-.413.124-.592.383-.846 1.524-1 2.236-.306.159.155.284.346.456.56zm-3.777 3.944c.309.277.848.56 1.307.705.934.293 1.855.175 2.777-.07.438-.118.878-.232 1.323-.31.268-.047.442.103.5.378.03.15.047.318.016.465-.065.3-.167.593-.259.904.77-.244 1.48-.587 2.114-1.09.716-.567 1.211-1.312 1.64-2.115.12-.227.254-.454.419-.648.272-.32.684-.32.945.007.151.19.265.427.34.662.09.278.121.577.178.867.007-.002.025-.002.034-.012.016-.016.028-.037.04-.057.531-.946.734-1.955.508-3.028-.104-.5-.274-.984-.396-1.48-.166-.669.163-1.085.822-1.06.077.002.153.013.229.028.197.037.394.078.656.131-1.27-1.564-2.91-2.328-4.73-2.83.496 1.039.517 1.04.445 1.933-.107 1.32-.668 2.4-1.742 3.165-.78.556-1.658.778-2.599.75-.196-.005-.319.038-.418.235-.186.366-.47.655-.84.921.028-.088.039-.13.054-.173.252-.686.176-1.348-.153-1.985-.165-.317-.413-.548-.765-.639-.488-.126-.924.215-.932.729-.002.079.001.158-.009.236-.05.381-.254.563-.628.534-.443-.034-.717-.325-.934-.69-.05-.083-.091-.171-.156-.293-.214.642-.162 1.2.236 1.69.216.266.474.495.708.746.377.406.323.85-.151 1.137-.174.105-.374.167-.579.257zM15.28 11.6c.527-.6.745-1.822.393-2.561-.192-.404-.486-.762-.763-1.117-.446-.57-.345-1.05.314-1.346.125-.056.261-.09.394-.127.105-.029.212-.047.359-.079-.585-.394-1.18-.601-1.834-.618-.617-.016-1.2.157-1.783.342-.351.111-.706.22-1.067.292-.438.087-.72-.204-.616-.648.066-.286.2-.558.323-.827.062-.137.166-.254.276-.416-.103.024-.162.035-.22.052-1.234.358-2.385.922-3.524 1.515L3.48 8.172c-.015.008-.019.037-.05.103.752 0 1.475-.014 2.197.003 1.146.028 2.293.057 3.437.125.583.035 1.161.16 1.667.497.62.414.74 1.149.277 1.735-.115.147-.243.291-.39.401-.473.353-.96.684-1.436 1.033-.575.422-1.147.849-1.71 1.287-.087.067-.122.202-.181.306.118.036.245.121.353.1.443-.086.907-.14 1.313-.323 1.564-.7 3.028-1.583 4.342-2.71.17-.148.344-.294.529-.422.589-.406 1.117-.212 1.314.491.07.254.091.522.137.802z"/>
    </g>
</svg>
