<svg xmlns="http://www.w3.org/2000/svg" xmlns:xlink="http://www.w3.org/1999/xlink" width="393" height="378" viewBox="0 0 393 378">
    <defs>
        <path id="a" d="M.807.09h10.74V45H.806z"/>
        <path id="c" d="M0 .273h60.223V84.22H0z"/>
    </defs>
    <g fill="none" fill-rule="evenodd">
        <path fill="#FFF" d="M322.083 362.355c-10.792 6.934-22.811 11.7-36.582 14.214-16.274 2.972-33.047 1.454-46.488-6.955-23.22-14.529-32.352-45.056-51.637-63.993-19.307-18.96-43.6-30.882-71.676-33.593-50.536-4.876-96.122-9.711-110.588-49.765-14.465-40.054 7.396-112.816 85.884-120.512 21.137-2.072 31.693-.714 52.824-3.482 17.304-2.266 31.517-16.19 39.778-31.032 24.525-44.056 83.974-36.65 103.678 1.723 20.85 40.602-18.689 86.098 9.128 136.62 23.119 41.988 102.855 67.425 56.175 127.907-9.216 11.943-19.181 21.597-30.496 28.868"/>
        <path fill="#28DDCB" d="M32.5 115c-8.008 0-14.5-6.492-14.5-14.5S24.492 86 32.5 86 47 92.492 47 100.5 40.508 115 32.5 115zM223.5 377c-8.008 0-14.5-6.492-14.5-14.5s6.492-14.5 14.5-14.5 14.5 6.492 14.5 14.5-6.492 14.5-14.5 14.5z" opacity=".585"/>
        <path fill="#F8FAFB" d="M186 126h24.902s1.031-5.036-3.606-3.022c0 0-.859-6.715-6.87-2.517 0 0-6.011-4.403-7.041 2.08 0 0-7.385-2.92-7.385 3.459M363.083 65H393s-1.238-6.158-6.658-4c0 0-1.805-8.6-8.355-3.102 0 0-7.452-5.898-9.033 3.101 0 0-6.775-.998-5.871 4.001"/>
        <path fill="#A0E4EF" d="M370 93.5c0 47.772-38.503 86.5-86 86.5s-86-38.728-86-86.5C198 45.727 236.503 7 284 7s86 38.727 86 86.5"/>
        <path fill="#2BD4B5" d="M323.186 59.67c3.102-3.516-3.442-10.668-6.558-9.553-3.115 1.114-1.082 3.078.506 5.373 1.589 2.296.659 2.728-1.094 4.71-1.753 1.98 4.044 2.986 7.146-.53M286.172 128.242c-4.93-2.741-11.59.222-14.358-5.96-2.766-6.179-10.413-12.93-18.05-12.069-7.639.86-10.47 4.982-12.512 3.543-2.044-1.439-5.982.258-6.219-4.572-.236-4.83-5.073-2.48-7.241-4.438-2.17-1.958-6.358-1.13-6.228-7.026.13-5.897 3.719-8.377 8.67-6.29 4.952 2.09 5.289 6.397 7.131 5.614 1.843-.783-1.673-6.328.28-9.495 1.952-3.167 6.204-5.814 8.699-9.926 2.494-4.112 3.318-6.874 8.016-6.65 4.698.225 8.638-2.302 5.088-4.146-3.552-1.844-5.543-3.481 0-3.993 5.54-.511 8.885-1.088 4.035-5.969-4.85-4.88-8.55-11.383-10.64-7.858-2.089 3.524-9.063-7.276-11.544-4.943-2.48 2.332 4.822 6.49 1.475 9.381-3.347 2.89.114 5.52-2.7 7.263-2.812 1.744-3.16-2.071-5.905-4.929-2.745-2.857-12.509-1.401-11.357-7.924 1.153-6.522 4.558-8.023 8.92-6.634 4.362 1.389 6.495-.198 3.301-3.147-3.193-2.95 3.093-1.972 1.753-6.355-1.34-4.382 4.97-1.304 8.38 1.498 3.408 2.802 2.215 4.443.399 6.461-1.817 2.018 1.694 3.072 5.841 4.634 4.15 1.561 7.636-6.264 3.795-10.13-3.842-3.864-14.107-11.725-18.482-11.152-4.375.572-1.836 8.348-6.485 8.808-2.156.213-3.324-.897-4.381-1.762C210.073 44.554 199.669 64.86 198 87.61c2.183 3.16 4.413 5.96 5.94 7.834 4.39 5.385.112-2.367-.862-7.368-.975-4.999 7.612 8.069 8.378 12.37.766 4.3 6.985 4.686 14.255 6.45 7.27 1.766 6.129 8.525 11.29 8.09 5.162-.433 6.027 2.683 3.675 5.823-2.354 3.14-2.727 12.245 1.511 16.621 4.238 4.377 8.697 9.61 7.659 17.964-.544 4.383-2.283 10.658-3.447 16.684A85.16 85.16 0 0 0 258.961 177c10.267-11.532 22.973-29.33 24.018-33.12 1.704-6.186 8.124-12.897 3.193-15.638"/>
        <path fill="#2BD4B5" d="M367.997 112.34c-1.948.214-3.698-.344-5.125-2.602-2.72-4.305-8.252-15.623-5.486-16.272 2.766-.652 6.797 9.62 8.667 13.071.578 1.066 1.527 1.656 2.71 1.854A87.105 87.105 0 0 0 370 93.76c0-25.256-10.803-47.978-28.02-63.761-3.814 2.663-3.38 6.662-8.02 9.157-5.673 3.05-9.258 7.889-7.336 10.674 1.922 2.784 5.985-3.838 6.869.08.882 3.916 5.565 4.53 6.268-2.954.703-7.481 7.232-11.411 7.334-8.73.104 2.68-4.475 3.862-3.545 6.978.929 3.117 8.962-.733 8.637 1.647-.325 2.38-6.833 2.063-9.102 5.995-2.27 3.933-7.703 5.585-10.5 4.19-2.797-1.396.11-6.686-2.677-5.489s-.998 4.911-2.948 6.837c-1.95 1.926-3.036 4.334-5.721 5.056-2.684.722-7.745 1.37-4.299 3.274 3.446 1.902 2.652 4.188-.45 5.45-3.1 1.262-5.131-1.9-5.734 1.114-.603 3.014.045 9.701 5.486 6.813 5.44-2.889 6.682-8.306 11.01-8.314 4.326-.008 2.52 2.84 6.181 3.157 3.662.317 3.717 4.018 3.52 4.688-.197.67 1.567-.094 1.762-1.322.193-1.228-1.284-2.692.064-2.204s1.982.452-.518-1.162c-2.5-1.616-5.443-6.812-2.883-5.166 2.56 1.645 4.168 3.043 5.533 4.36 1.366 1.317-.189 1.822 2.143 4.172 2.332 2.35 1.565.595 2.175-1.747.61-2.343 4.64-3.014 4.236-.263-.403 2.75 2.332 5.642 6.672 4.74 4.339-.9 3.173.16 1.91 3.825-1.264 3.665-2.021 3.515-8.378 2.68-6.357-.836-8.882-1.292-11.214 1.115-2.33 2.407-9.122-1.549-7.56-4.488 1.563-2.94-1.452-4.412-7.464-2.81-6.014 1.603-7.998-.855-10.752 2.484-2.754 3.341-10.381 10.636-9.627 19.044.754 8.407 1.667 16.696 12.998 14.568 11.33-2.128 10.424-2.388 10.036 1.775-.39 4.163 7.414 1.517 4.613 5.833-2.8 4.314 6.384 8.347 3.41 12.25-2.316 3.042-.572 18.216 3.827 23.693 14.962-12.106 25.797-29.145 30.06-48.66M284.35 7c-12.99 0-25.306 2.89-36.35 8.055.444.528 1.355.896 2.833 1.04 9.706.947 15.012-1.321 15.376 9.188.363 10.51 4.388 30.288 12.437 19.683 8.05-10.606 9.867-13.217 17.787-13.669 7.92-.452 11.16-11.313 8.825-17.08-.715-1.768-.626-3.319-.03-4.657A86.08 86.08 0 0 0 284.35 7M311.892 55.203c-3.127 1.023-4.522 5.784 0 4.613 4.522-1.17 3.748-5.838 0-4.613"/>
        <path fill="#91DAE2" d="M284 149.323c-42.939 0-78.608-30.81-85.71-71.323A85.815 85.815 0 0 0 197 92.84c0 47.585 38.951 86.16 87 86.16s87-38.575 87-86.16c0-5.062-.443-10.018-1.29-14.84-7.1 40.513-42.77 71.323-85.71 71.323"/>
        <path fill="#2ABCA0" d="M368.782 108a87.663 87.663 0 0 0 .331-27A85.53 85.53 0 0 1 363 99.723c1.24 2.474 2.354 5.023 3.108 6.431.57 1.062 1.505 1.65 2.674 1.846M280 150.322c-11.753-.606-22.895-3.525-32.972-8.322 2.436 3.465 4.12 7.634 3.438 13.157-.547 4.43-2.295 10.776-3.466 16.871a85.327 85.327 0 0 0 12.434 4.911l.203.061c7.2-8.131 15.586-19.337 20.363-26.678M201 91a90.314 90.314 0 0 1-2.48-10 93.242 93.242 0 0 0-.52 5.43 106.476 106.476 0 0 0 3 4.57M369 112.206c-1.953.215-3.707-.345-5.138-2.61-.724-1.146-1.647-2.79-2.56-4.596a87.137 87.137 0 0 1-25.996 29.166c.446 1.036.497 2.06-.277 3.076-2.323 3.05-.574 18.265 3.836 23.758 14.999-12.14 25.861-29.226 30.135-48.794"/>
        <path fill="#81C9CC" d="M218.204 129.972c-.898-.08-1.287-.494-1.446-.758.85-.189 1.476-.904 1.476-.904s.822.845 1.964.94c-.381.326-1.1.8-1.994.722m9.578-1.189c-.893-.267-1.4-1.186-1.4-1.186s-.564.891-1.813.98c-1.22.086-1.823-.804-1.919-.958.997-.01 1.816-.571 1.816-.571s-1.369.296-2.112.089c-.744-.208-1.398-1.247-1.398-1.247s-1.279 1.188-2.44 1.276c-1.159.09-1.754-.148-1.754-.148s.684.772 1.993.565c1.308-.209 1.903-.832 1.903-.832s.654.772 1.755.862c.066.004.13.006.192.008-.196.153-1.381 1.04-2.467.985-1.19-.06-1.607-.978-1.607-.978s-1.04 1.305-2.052 1.335c-1.01.028-1.606-.594-1.606-.594s.447.89 1.488.89l.059-.001c-.355.364-1.063.972-1.814.95-1.071-.029-1.606-.296-1.606-.296s.328.683 1.725.713c1.398.03 1.933-.95 1.933-.95s.386.95 1.755.92c1.368-.03 1.844-.86 1.844-.86s.565.949 1.665.89a3.397 3.397 0 0 0 1.844-.683s-1.368.504-2.051.266c-.45-.155-.837-.644-1.047-.962 1.153-.103 1.819-.819 1.819-.819s.84 1.014 2.232.832c1.13-.148 1.723-.92 1.723-.92s.566.89 1.428.92c.862.03 1.487-.713 1.487-.713s-.933.431-1.575.237m81.888 28.561c-.899-.079-1.288-.494-1.447-.756.848-.19 1.476-.906 1.476-.906s.822.845 1.964.94c-.38.327-1.1.801-1.993.722m9.576-1.188c-.893-.267-1.399-1.186-1.399-1.186s-.564.89-1.813.978c-1.22.087-1.823-.802-1.92-.956.998-.01 1.817-.572 1.817-.572s-1.369.297-2.112.09c-.744-.209-1.397-1.247-1.397-1.247s-1.28 1.187-2.44 1.276c-1.16.089-1.754-.149-1.754-.149s.683.773 1.991.565c1.31-.208 1.905-.832 1.905-.832s.654.773 1.754.862c.065.004.129.007.193.008-.197.154-1.382 1.04-2.468.986-1.19-.06-1.607-.98-1.607-.98s-1.04 1.306-2.052 1.337a2.247 2.247 0 0 1-1.605-.594s.446.89 1.487.89l.059-.002c-.355.364-1.063.973-1.814.952-1.071-.03-1.606-.298-1.606-.298s.328.683 1.725.713c1.398.03 1.933-.949 1.933-.949s.386.95 1.755.92c1.368-.03 1.843-.86 1.843-.86s.566.949 1.666.89c1.101-.06 1.844-.684 1.844-.684s-1.368.505-2.051.268c-.452-.157-.836-.645-1.047-.963 1.153-.103 1.82-.818 1.82-.818s.839 1.013 2.23.83c1.13-.147 1.725-.92 1.725-.92s.565.89 1.427.92c.863.03 1.487-.712 1.487-.712s-.934.431-1.576.237m-1.399-124.074c-.897-.08-1.287-.494-1.445-.758.848-.187 1.475-.904 1.475-.904s.822.845 1.965.94c-.382.327-1.102.801-1.995.722m9.578-1.189c-.893-.266-1.399-1.185-1.399-1.185s-.565.89-1.813.978c-1.22.087-1.824-.802-1.92-.956.997-.01 1.816-.572 1.816-.572s-1.368.297-2.112.09c-.744-.209-1.398-1.248-1.398-1.248s-1.28 1.187-2.438 1.277c-1.16.089-1.755-.149-1.755-.149s.683.772 1.992.565c1.308-.208 1.904-.832 1.904-.832s.654.773 1.755.862c.065.004.129.007.192.008-.196.154-1.382 1.04-2.468.985-1.19-.06-1.606-.979-1.606-.979s-1.04 1.306-2.052 1.335c-1.01.03-1.606-.592-1.606-.592s.446.889 1.487.889l.06-.001c-.356.364-1.063.973-1.815.952-1.07-.03-1.605-.298-1.605-.298s.327.683 1.724.712c1.399.03 1.933-.95 1.933-.95s.387.95 1.755.921c1.369-.029 1.843-.86 1.843-.86s.567.95 1.666.89c1.102-.059 1.844-.683 1.844-.683s-1.367.504-2.052.268c-.45-.157-.834-.645-1.046-.964 1.153-.102 1.82-.818 1.82-.818s.84 1.013 2.23.83c1.13-.146 1.725-.918 1.725-.918s.565.89 1.428.919c.862.03 1.486-.713 1.486-.713s-.933.432-1.575.237m-40.267 77.056c-.898-.08-1.287-.493-1.446-.757.849-.188 1.476-.905 1.476-.905s.822.846 1.964.942c-.382.326-1.1.8-1.994.72m9.578-1.188c-.893-.267-1.4-1.187-1.4-1.187s-.564.892-1.813.98c-1.22.087-1.824-.803-1.919-.956.996-.01 1.816-.572 1.816-.572s-1.369.296-2.113.09c-.743-.21-1.397-1.248-1.397-1.248s-1.279 1.187-2.44 1.276c-1.16.09-1.754-.148-1.754-.148s.684.771 1.993.565c1.308-.208 1.904-.833 1.904-.833s.653.773 1.755.863c.065.004.129.007.191.007-.196.154-1.38 1.04-2.467.986-1.19-.06-1.607-.979-1.607-.979s-1.04 1.305-2.052 1.335c-1.011.03-1.606-.593-1.606-.593s.447.89 1.487.89l.06-.002c-.355.365-1.063.973-1.814.951-1.071-.029-1.606-.296-1.606-.296s.327.682 1.724.712c1.4.03 1.934-.95 1.934-.95s.386.95 1.755.92c1.368-.029 1.844-.859 1.844-.859s.565.948 1.665.89c1.101-.06 1.844-.683 1.844-.683s-1.368.504-2.051.266c-.45-.155-.837-.644-1.047-.962 1.153-.103 1.82-.818 1.82-.818s.839 1.013 2.23.83c1.13-.147 1.724-.919 1.724-.919s.566.89 1.428.92c.862.03 1.487-.713 1.487-.713s-.933.43-1.575.237m-27.958-28.523c-.897-.08-1.287-.494-1.446-.758.849-.187 1.476-.904 1.476-.904s.822.845 1.965.94c-.382.327-1.102.8-1.995.722m9.578-1.189c-.893-.266-1.4-1.185-1.4-1.185s-.564.89-1.814.979c-1.219.086-1.823-.803-1.918-.957.997-.01 1.815-.572 1.815-.572s-1.367.297-2.111.09c-.744-.209-1.398-1.248-1.398-1.248s-1.28 1.188-2.439 1.277c-1.16.09-1.755-.149-1.755-.149s.684.772 1.993.565c1.308-.208 1.904-.832 1.904-.832s.654.773 1.754.862c.066.004.13.007.193.008-.196.154-1.382 1.04-2.468.986-1.19-.06-1.606-.98-1.606-.98s-1.04 1.306-2.052 1.336a2.249 2.249 0 0 1-1.606-.593s.446.889 1.487.889l.06-.001c-.356.364-1.063.973-1.815.95-1.07-.029-1.607-.296-1.607-.296s.328.683 1.726.713c1.398.03 1.933-.95 1.933-.95s.386.95 1.755.92c1.368-.03 1.843-.86 1.843-.86s.566.95 1.666.89a3.393 3.393 0 0 0 1.844-.683s-1.367.504-2.052.266c-.45-.155-.835-.644-1.046-.961 1.153-.103 1.82-.819 1.82-.819s.838 1.013 2.23.83c1.13-.147 1.725-.918 1.725-.918s.564.89 1.427.919c.863.03 1.487-.713 1.487-.713s-.934.432-1.575.237"/>
        <path fill="#13969D" d="M315.56 129.213a314.778 314.778 0 0 1-3.914 3.29c-.128.106-.23.23-.306.367a1.298 1.298 0 0 0-.417.23 285.03 285.03 0 0 1-3.978 3.21 1.288 1.288 0 0 0-.21 1.807 1.28 1.28 0 0 0 1.801.21 285.159 285.159 0 0 0 4.013-3.24c.13-.106.232-.231.309-.368.148-.049.291-.126.42-.232a283.18 283.18 0 0 0 3.946-3.32c.538-.46.602-1.27.142-1.81a1.28 1.28 0 0 0-1.807-.144m9.525-8.522a296.552 296.552 0 0 1-3.766 3.46 1.287 1.287 0 0 0 .859 2.24c.307 0 .613-.11.858-.331a289.767 289.767 0 0 0 3.798-3.49 1.287 1.287 0 0 0 .064-1.817 1.28 1.28 0 0 0-1.813-.062m-67.734 46.853a195.421 195.421 0 0 1-4.643 2.105 1.286 1.286 0 0 0 1.025 2.357 195.386 195.386 0 0 0 4.706-2.133c.64-.3.918-1.065.617-1.709a1.278 1.278 0 0 0-1.705-.62m76.864-55.796c-1.18 1.212-2.38 2.42-3.601 3.627a1.288 1.288 0 0 0-.013 1.818 1.275 1.275 0 0 0 1.813.013 276.32 276.32 0 0 0 3.637-3.662 1.287 1.287 0 0 0-.022-1.817 1.281 1.281 0 0 0-1.814.021m-65.487 50.033a224.63 224.63 0 0 1-4.511 2.386 1.287 1.287 0 0 0 .586 2.43c.197 0 .398-.046.585-.143a219.002 219.002 0 0 0 4.563-2.414c.623-.339.853-1.119.516-1.743a1.282 1.282 0 0 0-1.74-.516m21.765-13.343a271.522 271.522 0 0 1-4.248 2.841 1.289 1.289 0 0 0-.371 1.78 1.282 1.282 0 0 0 1.776.373 282.955 282.955 0 0 0 4.286-2.868c.586-.4.737-1.2.339-1.787a1.283 1.283 0 0 0-1.782-.339m-10.716 6.947a257.288 257.288 0 0 1-4.38 2.629 1.286 1.286 0 0 0 .648 2.394c.22 0 .444-.057.647-.177a264.62 264.62 0 0 0 4.423-2.654 1.287 1.287 0 0 0 .424-1.767 1.282 1.282 0 0 0-1.762-.425m21.1-14.39a277.605 277.605 0 0 1-4.114 3.034 1.289 1.289 0 0 0-.29 1.795 1.281 1.281 0 0 0 1.791.29 282.782 282.782 0 0 0 4.15-3.061c.568-.426.683-1.231.258-1.8a1.281 1.281 0 0 0-1.795-.257M375.83 17.747c.57-.422.688-1.228.266-1.798a23.467 23.467 0 0 0-3.704-3.956 1.282 1.282 0 0 0-1.808.153 1.288 1.288 0 0 0 .154 1.812 20.877 20.877 0 0 1 3.299 3.523 1.276 1.276 0 0 0 1.793.266m-2.682 41.935a1.28 1.28 0 0 0-1.7.628c-.692 1.498-1.441 3.036-2.228 4.573a1.286 1.286 0 0 0 1.14 1.872c.464 0 .914-.255 1.14-.698a125.09 125.09 0 0 0 2.275-4.669 1.287 1.287 0 0 0-.627-1.706m4.45-12.045a1.283 1.283 0 0 0-1.601.856 82.435 82.435 0 0 1-1.621 4.794 1.287 1.287 0 0 0 1.202 1.735c.52 0 1.01-.32 1.202-.837a85.848 85.848 0 0 0 1.671-4.944 1.286 1.286 0 0 0-.854-1.604m-17.127 34.36a1.282 1.282 0 0 0-1.784.323 194.37 194.37 0 0 1-2.959 4.16 1.287 1.287 0 0 0 1.034 2.046 1.28 1.28 0 0 0 1.035-.526 199.488 199.488 0 0 0 2.998-4.215 1.286 1.286 0 0 0-.324-1.789m-7.576 10.373a1.281 1.281 0 0 0-1.802.21 219.874 219.874 0 0 1-3.208 3.976 1.287 1.287 0 0 0 .986 2.105c.369 0 .735-.16.989-.465 1.1-1.332 2.192-2.684 3.246-4.02a1.288 1.288 0 0 0-.21-1.806m14.404-21.25a1.282 1.282 0 0 0-1.754.458c-.84 1.436-1.73 2.902-2.645 4.358a1.288 1.288 0 0 0 1.085 1.971 1.28 1.28 0 0 0 1.085-.6c.93-1.48 1.834-2.969 2.687-4.428.359-.613.153-1.4-.458-1.76m-14.715-66.03a58.988 58.988 0 0 0-5.24-.054 1.285 1.285 0 0 0-1.24 1.326c.022.71.59 1.266 1.323 1.243a57.157 57.157 0 0 1 5.013.053l.073.002a1.285 1.285 0 0 0 .071-2.57m-9.679 97.293a245.63 245.63 0 0 1-3.42 3.8 1.287 1.287 0 0 0 .944 2.156c.346 0 .69-.14.943-.416a255.17 255.17 0 0 0 3.455-3.837c.47-.53.42-1.344-.112-1.814a1.28 1.28 0 0 0-1.81.11m36.913-67.376c-.725-.079-1.323.473-1.378 1.18a50.336 50.336 0 0 1-.65 4.967 1.285 1.285 0 0 0 1.263 1.514c.608 0 1.148-.435 1.26-1.057.322-1.785.553-3.541.683-5.222a1.286 1.286 0 0 0-1.178-1.382M316.22 13.756c.044-.223.033-.46-.051-.69a1.282 1.282 0 0 0-1.649-.76c-.34.128-.69.264-1.036.395a85.49 85.49 0 0 1 2.736 1.055m-70.58 158.799a158.214 158.214 0 0 1-4.778 1.755 1.288 1.288 0 0 0-.79 1.637 1.284 1.284 0 0 0 1.633.791 162.474 162.474 0 0 0 4.856-1.783c.66-.255.99-.998.737-1.661-.254-.665-1-.992-1.657-.74m-66.097-22.578a1.284 1.284 0 0 0 1.449-1.093c.224-1.591.536-3.253.928-4.938a1.287 1.287 0 0 0-.957-1.543 1.28 1.28 0 0 0-1.54.96 59.594 59.594 0 0 0-.971 5.161c-.1.703.389 1.353 1.09 1.453m2.859-12.508a1.283 1.283 0 0 0 1.631-.795 92.345 92.345 0 0 1 1.788-4.743 1.287 1.287 0 0 0-.7-1.677 1.28 1.28 0 0 0-1.674.703 94.368 94.368 0 0 0-1.838 4.877 1.287 1.287 0 0 0 .793 1.635M378.313 28.752a1.284 1.284 0 0 0 1.433 1.114 1.284 1.284 0 0 0 1.112-1.436c-.23-1.835-.61-3.6-1.126-5.244a1.28 1.28 0 0 0-1.607-.84 1.286 1.286 0 0 0-.84 1.611 27.424 27.424 0 0 1 1.028 4.795M334.664 9.12c.081 0 .164-.006.247-.023a89.58 89.58 0 0 1 4.988-.835 1.286 1.286 0 0 0-.35-2.547 93.08 93.08 0 0 0-5.13.859 1.286 1.286 0 0 0 .245 2.546m25.158-.42c1.655.396 3.231.904 4.683 1.509a1.282 1.282 0 0 0 1.676-.695 1.288 1.288 0 0 0-.693-1.68 33.628 33.628 0 0 0-5.071-1.634 1.28 1.28 0 0 0-1.545.953c-.164.69.26 1.383.95 1.548m-37.575 3.605c.126 0 .255-.018.383-.058a126.56 126.56 0 0 1 4.875-1.42 1.285 1.285 0 0 0-.665-2.483c-1.624.437-3.298.925-4.975 1.45a1.285 1.285 0 0 0 .382 2.511M221.249 179.44a82.316 82.316 0 0 1-5.006.661c-.704.07-1.219.7-1.149 1.406a1.284 1.284 0 0 0 1.403 1.151 83.98 83.98 0 0 0 5.163-.68 1.284 1.284 0 0 0 1.06-1.474 1.282 1.282 0 0 0-1.47-1.064m12.349-2.814c-1.653.476-3.302.914-4.905 1.301a1.285 1.285 0 0 0 .601 2.499c1.638-.396 3.324-.843 5.012-1.33a1.286 1.286 0 0 0-.708-2.47m-24.887 3.804a49.468 49.468 0 0 1-4.987-.334 1.28 1.28 0 0 0-1.426 1.123 1.284 1.284 0 0 0 1.12 1.429c1.67.201 3.437.32 5.246.353h.024c.697 0 1.269-.561 1.281-1.262a1.283 1.283 0 0 0-1.258-1.309m-17.936-61.707a1.282 1.282 0 0 0-1.739.516 130.8 130.8 0 0 0-2.384 4.61 1.287 1.287 0 0 0 1.15 1.853 1.28 1.28 0 0 0 1.15-.717c.731-1.485 1.518-3.005 2.339-4.52a1.287 1.287 0 0 0-.516-1.742m-5.188 52.479a20.944 20.944 0 0 1-2.053-3.083 1.28 1.28 0 0 0-1.74-.512c-.62.34-.85 1.121-.51 1.744a23.464 23.464 0 0 0 3.126 4.43 1.281 1.281 0 0 0 1.811.096c.527-.474.57-1.287.097-1.815-.252-.28-.495-.566-.731-.86m11.877-63.444a1.28 1.28 0 0 0-1.775.37c-.949 1.45-1.88 2.922-2.768 4.376-.37.605-.18 1.397.424 1.768a1.283 1.283 0 0 0 1.764-.426 165.288 165.288 0 0 1 2.724-4.309 1.285 1.285 0 0 0-.37-1.779m-16.352 53.488a31.459 31.459 0 0 1-.548-4.902c-.026-.71-.628-1.287-1.328-1.239-.708.025-1.26.62-1.235 1.331.066 1.842.266 3.627.595 5.305a1.284 1.284 0 0 0 1.505 1.014 1.285 1.285 0 0 0 1.01-1.509m16.175 18.89a1.282 1.282 0 0 1-1.623.808 29.401 29.401 0 0 1-4.906-2.146 1.285 1.285 0 0 1 1.24-2.25 26.942 26.942 0 0 0 4.482 1.96c.671.225 1.033.954.807 1.627M304.918 55.643a1.206 1.206 0 0 0 1.734-.024 1.282 1.282 0 0 0-.023-1.78 302.488 302.488 0 0 0-3.561-3.496 1.204 1.204 0 0 0-1.734.053 1.281 1.281 0 0 0 .052 1.779 326.106 326.106 0 0 1 3.532 3.468M272.565 27.51a244.976 244.976 0 0 1 4.306 3.22c.238.182.516.27.793.27.409 0 .813-.193 1.075-.56a1.413 1.413 0 0 0-.28-1.932 245.824 245.824 0 0 0-4.354-3.255 1.307 1.307 0 0 0-1.86.332 1.412 1.412 0 0 0 .32 1.925M296 46.67c.23.221.516.33.8.33.33 0 .657-.146.894-.43.442-.531.4-1.349-.093-1.824a299.648 299.648 0 0 0-3.617-3.43 1.14 1.14 0 0 0-1.692.132c-.433.539-.378 1.355.123 1.822a277.747 277.747 0 0 1 3.586 3.4M282.522 35.38a277.81 277.81 0 0 1 4.244 3.319c.256.202.561.301.865.301.397 0 .79-.166 1.06-.488a1.31 1.31 0 0 0-.192-1.875 291.378 291.378 0 0 0-4.287-3.35 1.389 1.389 0 0 0-1.92.222 1.31 1.31 0 0 0 .23 1.87M261.616 20.228a207.15 207.15 0 0 1 4.367 2.575c.22.134.468.197.713.197.424 0 .84-.191 1.09-.544.396-.557.226-1.303-.375-1.668a215.92 215.92 0 0 0-4.421-2.607c-.61-.35-1.414-.177-1.794.389-.38.565-.192 1.307.42 1.658M227.053 4.587c1.673.378 3.415.833 5.178 1.355.135.04.27.058.404.058.583 0 1.123-.36 1.304-.924.223-.691-.181-1.425-.902-1.639a83.006 83.006 0 0 0-5.36-1.401c-.734-.169-1.468.272-1.64.976-.173.705.283 1.411 1.016 1.575M250.682 14.415c1.465.77 2.954 1.584 4.427 2.421a1.266 1.266 0 0 0 1.728-.488 1.285 1.285 0 0 0-.484-1.744c-1.495-.849-3.01-1.677-4.498-2.46a1.264 1.264 0 0 0-1.711.544c-.324.628-.082 1.4.538 1.727M238.775 8.701a105.06 105.06 0 0 1 4.485 2.175c.165.084.337.124.506.124.47 0 .918-.306 1.124-.824.28-.705.005-1.534-.615-1.853a108.589 108.589 0 0 0-4.584-2.222c-.63-.288-1.348.06-1.602.78-.253.717.053 1.532.686 1.82M359.571 126.315c.23.436.679.685 1.143.685.2 0 .402-.046.59-.142a1.256 1.256 0 0 0 .552-1.707 192.608 192.608 0 0 0-2.443-4.495 1.295 1.295 0 0 0-1.748-.498 1.257 1.257 0 0 0-.505 1.72c.825 1.471 1.636 2.964 2.411 4.437M369.605 149.146a1.223 1.223 0 0 0 1.53.8 1.205 1.205 0 0 0 .81-1.51c-.473-1.519-1-3.079-1.567-4.636a1.23 1.23 0 0 0-1.567-.729 1.205 1.205 0 0 0-.739 1.545c.554 1.523 1.07 3.047 1.533 4.53M214.334 3.832l.051-.001a38.268 38.268 0 0 1 5.158.163c.042.004.083.006.124.006.682 0 1.264-.547 1.327-1.275.067-.772-.473-1.453-1.207-1.524a40.91 40.91 0 0 0-5.503-.173c-.736.029-1.31.68-1.283 1.455.027.755.618 1.349 1.333 1.349M314.833 64.617c.247.255.579.383.911.383.31 0 .622-.112.865-.338a1.213 1.213 0 0 0 .046-1.739 311.594 311.594 0 0 0-3.503-3.554 1.275 1.275 0 0 0-1.775-.018 1.211 1.211 0 0 0-.018 1.739 320.88 320.88 0 0 1 3.474 3.527M371.025 157.634a87.43 87.43 0 0 1 .772 5.208c.078.673.552 1.158 1.094 1.158a.928.928 0 0 0 .157-.013c.606-.105 1.027-.788.94-1.524a92.133 92.133 0 0 0-.8-5.401c-.129-.726-.714-1.19-1.316-1.03-.597.157-.976.874-.847 1.602M339.547 94.454c.267.357.677.546 1.094.546.282 0 .565-.085.809-.265.604-.443.73-1.287.282-1.885a286.127 286.127 0 0 0-3.294-4.324 1.368 1.368 0 0 0-1.907-.246 1.34 1.34 0 0 0-.249 1.89 299.727 299.727 0 0 1 3.265 4.284M322.747 73.59c.255.272.61.41.968.41.3 0 .603-.099.848-.3.533-.438.586-1.2.117-1.699a307.301 307.301 0 0 0-3.442-3.607 1.349 1.349 0 0 0-1.816-.082 1.15 1.15 0 0 0-.088 1.7 316.789 316.789 0 0 1 3.413 3.579M331.652 84.49c.262.335.642.51 1.028.51.291 0 .585-.1.83-.306a1.416 1.416 0 0 0 .195-1.936 349.496 349.496 0 0 0-3.371-4.265 1.286 1.286 0 0 0-1.86-.173 1.417 1.417 0 0 0-.166 1.939c1.133 1.41 2.248 2.82 3.344 4.231M362.282 190.115a19.587 19.587 0 0 1-4.32 1.44 1.236 1.236 0 0 0-.936 1.462c.119.583.62.983 1.18.983.083 0 .166-.008.25-.026a22.048 22.048 0 0 0 4.846-1.619 1.247 1.247 0 0 0 .585-1.64c-.28-.618-1-.887-1.605-.6M353.257 109.605c-.36-.606-1.114-.785-1.685-.408-.571.38-.743 1.18-.385 1.785a245.44 245.44 0 0 1 2.542 4.39c.23.404.634.628 1.05.628.214 0 .43-.059.627-.184.579-.367.767-1.16.42-1.774a248.78 248.78 0 0 0-2.57-4.437M350.71 191.473a49.635 49.635 0 0 1-5.176-.458c-.74-.106-1.412.374-1.52 1.065-.108.69.397 1.333 1.128 1.435 1.887.263 3.728.427 5.473.484l.048.001c.717 0 1.311-.538 1.336-1.22.027-.697-.551-1.283-1.29-1.307M337.116 189.533a74.81 74.81 0 0 1-4.524-1.464c-.629-.227-1.31.124-1.527.782-.215.655.12 1.37.748 1.595a76.016 76.016 0 0 0 4.665 1.51c.107.03.214.044.32.044.528 0 1.012-.365 1.159-.923.176-.669-.2-1.36-.841-1.544M202.251 7c.234 0 .472-.07.683-.219a17.568 17.568 0 0 1 4.209-2.158c.655-.234 1.01-.995.793-1.7-.217-.706-.928-1.088-1.58-.854a19.984 19.984 0 0 0-4.79 2.46c-.577.405-.74 1.239-.362 1.861.24.396.64.61 1.047.61M374.697 168h-.008c-.72 0-1.306.593-1.31 1.328a37.93 37.93 0 0 1-.365 5.143c-.104.73.391 1.409 1.108 1.516a1.32 1.32 0 0 0 1.487-1.13c.248-1.735.38-3.59.391-5.513a1.324 1.324 0 0 0-1.303-1.344M372.32 181.13c-.595-.314-1.31-.038-1.597.614a18.49 18.49 0 0 1-2.43 4.086c-.433.546-.38 1.375.12 1.85.226.214.505.32.783.32.335 0 .668-.153.905-.45a21.239 21.239 0 0 0 2.78-4.671c.287-.653.035-1.437-.56-1.75M367.89 136.278a147.255 147.255 0 0 0-2.26-4.56c-.321-.62-1.142-.89-1.83-.603-.692.288-.992 1.023-.672 1.643a143.41 143.41 0 0 1 2.223 4.489c.223.47.734.753 1.27.753.18 0 .364-.031.54-.098.7-.268 1.026-.994.73-1.624"/>
        <path fill="#13969D" d="M346.828 105c.225 0 .453-.072.653-.225.538-.406.68-1.226.32-1.832a272.641 272.641 0 0 0-2.667-4.38c-.373-.598-1.104-.742-1.634-.324-.53.418-.66 1.242-.287 1.84.9 1.45 1.78 2.896 2.64 4.336.227.38.598.585.975.585M193.918 16.934c.143.045.288.066.43.066.564 0 1.089-.328 1.279-.849a18.772 18.772 0 0 1 2.161-4.23c.4-.583.216-1.354-.411-1.726-.628-.37-1.462-.2-1.864.382a21.21 21.21 0 0 0-2.441 4.776c-.24.653.14 1.36.846 1.581M193.6 29.998c.8-.039 1.415-.666 1.374-1.402a43.557 43.557 0 0 1-.072-2.465c-.001-.917.03-1.828.095-2.709.053-.735-.552-1.37-1.352-1.42-.786-.045-1.49.507-1.544 1.243-.068.94-.102 1.912-.101 2.887 0 .849.025 1.725.075 2.604.041.712.681 1.264 1.449 1.264.025 0 .05 0 .077-.002M202.834 65A95.15 95.15 0 0 1 204 61.512c-.24-.58-.48-1.157-.71-1.726-.27-.67-.976-.968-1.58-.672-.604.299-.875 1.082-.606 1.75.547 1.359 1.13 2.747 1.73 4.136M314.333 179.63a166.277 166.277 0 0 1-4.413-2.458 1.285 1.285 0 0 0-1.746.454 1.254 1.254 0 0 0 .46 1.725c1.498.864 3.006 1.704 4.48 2.497.194.103.402.152.608.152.452 0 .89-.238 1.123-.658a1.255 1.255 0 0 0-.512-1.711M196.958 41.316a80.509 80.509 0 0 1-1.177-5.206c-.14-.735-.88-1.223-1.632-1.087-.761.135-1.265.84-1.126 1.576.332 1.74.74 3.55 1.215 5.376.16.615.73 1.025 1.359 1.025.113 0 .228-.013.342-.04.751-.183 1.207-.918 1.019-1.644M325.248 185.372a115.035 115.035 0 0 1-4.472-2.238c-.619-.326-1.359-.037-1.654.645-.296.682-.034 1.5.584 1.826 1.535.81 3.071 1.578 4.565 2.285.16.074.325.11.487.11.482 0 .94-.311 1.141-.83.27-.695-.021-1.5-.651-1.798M198.807 54c.143 0 .286-.025.426-.081.617-.24.924-.941.687-1.567a117.14 117.14 0 0 1-1.596-4.523 1.186 1.186 0 0 0-1.51-.765 1.218 1.218 0 0 0-.752 1.536 115.957 115.957 0 0 0 1.632 4.62c.181.484.633.78 1.113.78"/>
        <path fill="#E9F7F6" d="M221.786 76s5.665-7.104-7.48-6.082c0 0 1.587-8.126-7.479-3.924 0 0-5.144-7.47-10.879 1.19 0 0-11.332-5.247-10.878 3.301 0 0-9.293.06-9.066 5.515h45.782zM304 16h54.977s.903-5.616-8.701-6.068c0 0 .552-7.466-7.233-3.846 0 0-6.527-12.708-12.48-1.397 0 0-11.348-7.28-14.53 5.203 0 0-12.033-2.728-12.033 6.108M323 163h46s0-6-9.585-5.605c0 0-.147-5.913-7.214-2.098 0 0-5.396-10.14-10.229.733 0 0-7.62-4.93-9.858 2.89 0 0-9.114-3.477-9.114 4.08M251 162h-36s.82-7.686 6.694-4.612c0 0 3.53-9.004 11.306-3.733 0 0 5.239-4.392 9.053 3.218 0 0 7.882-4.873 8.947 5.127M203.139 317L123 271.853 178.625 234 259 284.486z"/>
        <path fill="#555097" d="M221.496 174L187 220.335 243.722 254l10.12-55.63a9.674 9.674 0 0 0-3.6-9.397c-.343-.264-28.746-14.973-28.746-14.973"/>
        <path fill="#7872AC" d="M222.318 173L217 180.87 240.523 195 251 189.04z"/>
        <path fill="#7872AC" d="M225 173.878l-30.832-16.061a6.443 6.443 0 0 0-6.256-.014L179 162.668 220.152 183l4.848-9.122z"/>
        <path fill="#414690" d="M120.806 271.72a1.736 1.736 0 0 1-.522-2.415l20.707-34.852c.53-.806 3.372-.393 4.188.13.818.522 2.235 2.495 1.705 3.302l-23.632 33.32a1.787 1.787 0 0 1-2.446.516"/>
        <path fill="#555097" d="M127.48 258.648L149.051 271 163 252.557 122 234l.652 16.712a9.583 9.583 0 0 0 4.828 7.936"/>
        <path fill="#555097" d="M149 271.164l45.226 26.4c2.121 1.239 4.774-.31 4.774-2.787v-35.664L168.411 245 149 271.164z"/>
        <g transform="translate(193 273)">
            <mask id="b" fill="#fff">
                <use xlink:href="#a"/>
            </mask>
            <path fill="#414690" d="M9.824 44.985a1.778 1.778 0 0 1-1.982-1.543L.812 2.741C.686 1.766 3.125.23 4.091.106c.965-.125 3.338.488 3.656 1.266l3.798 41.418c-.07 1.169-.757 2.069-1.722 2.195" mask="url(#b)"/>
        </g>
        <path fill="#414690" d="M257.704 285.907c-.904.313-1.893-.191-2.197-1.12l-14.477-38.41c-.304-.927 1.75-2.906 2.654-3.219.904-.312 3.302-.18 3.796.554l11.504 39.745c.114 1.123-.377 2.138-1.28 2.45"/>
        <path fill="#555097" d="M128 229v-16.715L173 186v17.956z"/>
        <path fill="#414690" d="M198.099 296.544l44.382-24.76a4.883 4.883 0 0 0 2.519-4.267L244.97 251l-45.688 28.242.02 11.637c.004 3.513-4.25 7.482-1.203 5.665"/>
        <path fill="#414690" d="M215.099 287.544l44.382-24.76a4.884 4.884 0 0 0 2.519-4.268L261.97 242l-45.688 28.243.019 11.635c.005 3.514-4.248 7.483-1.202 5.666"/>
        <path fill="#615B9D" d="M217 180.941l-34.584-17.416c-2.839-1.429-6.264.188-6.966 3.287l-2.126 9.378-2.72 12.55L164 219.207 180.616 229 217 180.941z"/>
        <path fill="#615B9D" d="M238.792 193.123L214.485 180 181 227.744 233.795 259l10.036-55.027a10.349 10.349 0 0 0-5.04-10.85"/>
        <path fill="#7872AC" d="M124.058 237.626L159.147 258 189 217.975l-19.667-11.42a4.091 4.091 0 0 0-4.117 0l-41.158 23.9c-2.744 1.592-2.744 5.577 0 7.171"/>
        <path fill="#7872AC" d="M241.944 248.632L188.818 218 159 257.698l37.723 21.751a4.111 4.111 0 0 0 4.112 0l41.109-23.704c2.741-1.58 2.741-5.532 0-7.113"/>
        <path fill="#615B9D" d="M199.03 281l-.03-18.244L267 221v15.813a8.795 8.795 0 0 1-4.574 7.705L199.03 281z"/>
        <g transform="translate(113 174)">
            <mask id="d" fill="#fff">
                <use xlink:href="#c"/>
            </mask>
            <path fill="#978EBE" d="M60.223 1.928C56.49-.16 52.59-.322 49.08 1.726L15.065 21.14A29.862 29.862 0 0 0 0 47.279l.194 28.086a5.022 5.022 0 0 0 2.424 4.253l6.639 4.014c2.685 1.624 6.113-.308 6.113-3.445V49.908c0-7.212 3.883-13.86 10.168-17.401C35.096 27.12 49.146 19.21 57.49 14.514l2.732-12.586z" mask="url(#d)"/>
        </g>
        <path fill="#978EBE" d="M263.077 212.643l-9.26-7.643-2.09 9.967c-.547 2.982-3.56 5.386-6.21 6.88L193.42 250.56c-6.61 3.643-10.626 10.651-10.412 18.168l.61 21.465c.015 1.733.866 3.761 2.356 4.659l6.693 3.564c2.681 1.615 6.105-.306 6.105-3.425v-22.844c0-5.623 3.05-10.808 7.975-13.562l55.836-31.215c5.666-3.167 5.935-11.188.494-14.726"/>
        <path fill="#00050D" d="M147.77 300.115l11.674-9.54c1.512-.69 4.77-.74 6.935-.248.971.22 1.64 1.11 1.62 2.102l-.04 2.14c.047 3.089-.27 3.506-2.264 4.418l-11.845 5.416c-1.995.911-4.897.763-6.448-.331l-.44-.31c-1.55-1.094-1.188-2.735.807-3.647"/>
        <path fill="#F4BDAD" d="M186.853 225S161.4 238.69 160.4 245.033c-.88 5.57-.03 38.057-.03 45.827 0 4.83 7.148 3.492 7.03-.007-.236-7.067 1.98-31.549 6.809-38.18 4.829-6.63 28.792-15.986 28.792-15.986L186.853 225z"/>
        <path fill="#00050D" d="M135.769 293.115l11.675-9.54c1.512-.69 4.77-.74 6.934-.248.972.22 1.64 1.11 1.622 2.102l-.042 2.14c.048 3.089-.27 3.506-2.264 4.418l-11.845 5.416c-1.995.911-4.895.763-6.447-.331l-.44-.31c-1.55-1.094-1.188-2.735.807-3.647"/>
        <path fill="#F4BDAD" d="M174.714 217s-24.178 13.165-25.187 19.508c-.885 5.57-1.527 38.582-1.527 46.352 0 4.83 7.21 3.492 7.092-.008-.238-7.066 1.996-31.548 6.867-38.178 4.87-6.631 29.041-15.987 29.041-15.987L174.714 217z"/>
        <path fill="#2F4694" d="M182.058 209.128c-9.353 10.17-26.22 12.148-33.7 24.484-3.61 5.95 21.161 6.329 27.25 18.388 0 0 23.47-12.018 30.153-16.498 1.33-.89 2.459-2.045 3.268-3.426 2.005-3.417 4.676-10.563 1.51-21.555-4.63-16.067-28.481-1.393-28.481-1.393"/>
        <path fill="#FDD97D" d="M181.419 209.427c-.578-10.165.284-14.382-.419-26.925.929-14.982 1.184-19.11 12.791-19.502l3.047 1.022a21.231 21.231 0 0 1 4.17 1.926c14.044 8.435 16.931 10.243 15.755 18.922-.26 4.5-3.543-.537-3.358 2.486.232 3.814 2.546 12.32-.157 26.969-.382 2.071-.944 5.12-2.685 6.288-7.546 5.06-26.67-4.89-29.144-11.186"/>
        <path fill="#FFF" d="M195.075 169.87c-.292 2.497.1 4.2 4.193 5.062 3.54.747 8.157-4.906 6.311-6.581-1.694-1.538-1.418-.966-4.923-1.873-3.504-.906-5.08-.893-5.58 3.391"/>
        <path fill="#1B1177" d="M196.188 165.174s2.04 1.675 3.03 1.824c.993.148 11.047-8.934 6.695-18.236-2.757-5.891-13.913-.525-13.913-.525l4.188 16.937z"/>
        <path fill="#F4BDAD" d="M200.4 172.806l-.49.115c-1.656.387-3.32-.683-3.698-2.379l-2.135-9.56c-.377-1.696.667-3.4 2.323-3.788l.49-.115c1.656-.387 3.32.683 3.7 2.378l3.368 8.879c.379 1.696-1.903 4.083-3.558 4.47"/>
        <path fill="#EE9780" d="M195 167.306s4.383-.147 7-4.306c0 0-2.393 6.261-6.355 7l-.645-2.694z"/>
        <path fill="#F4BDAD" d="M195.972 144.378c-2.55-2.031-5.079-1.742-6.677.376-2.492-.218-4.554 1.876-5.136 5.746-.81 5.39 1.55 12.161 5.27 15.124 2.599 2.07 5.172 1.726 6.764-.504 3.053.167 6.104-2.286 6.702-6.259.81-5.39-3.202-11.52-6.923-14.483"/>
        <path fill="#1B1177" d="M195.072 148.549s1.416 10.234 9.92 10.451c0 0 7.625-7.403-1.404-15.31-7.958-6.97-15.588 1.806-15.588 1.806l7.072 3.053z"/>
        <path fill="#1B1177" d="M199.676 153.294c-2.327-2.078-10.107-.05-15.21 3.55-2.76.846-2.88-1.878-1.928-5.09 1.186-4.005 3.817-7.372 7.22-9.597l2.351-1.539c4.362-2.392 11.352 2.717 12.891 5.812l-3.05.975c1.54 3.094.69 4.284-2.274 5.89"/>
        <path fill="#F4BDAD" d="M204.972 160.871a2.499 2.499 0 1 1-4.943-.74 2.499 2.499 0 0 1 4.943.74"/>
        <path fill="#FFF" d="M190 162l5 .497s-1.184 2.862-2.618 2.465C190.95 164.565 190 162 190 162"/>
        <path fill="#F4BDAD" d="M174.965 181l-2.897 17.558c-.442 2.35 1.359 13.44 2.565 19.583 1.215 6.187 1.832 1.165 5.643 5.859l-1.973-18.023c-.24-2.2-.096-4.423.426-6.573 1.184-4.863 3.278-13.503 3.271-13.734-.015-.513-7.035-4.67-7.035-4.67"/>
        <path fill="#A5C0E0" d="M195 224.636l-2.805-.98-.328-.326-.211-.371-21.121-10.87c-.254-.132-.675-.115-.936.036l-8.065 4.68-.013-.13-1.521.602.069.621h.01c.027.06.083.117.17.16l21.977 11.312c.03.015.047.044.058.085.459 1.665 1.226 3.157 2.661 2.29l8.931-5.208a2.12 2.12 0 0 0 1.124-1.901"/>
        <path fill="#DEE7F0" d="M183.805 231.894l-25.587-13.607c-.295-.157-.29-.435.014-.617l10.872-6.52c.304-.181.794-.201 1.091-.044l25.587 13.606c.296.159.29.435-.013.617l-10.874 6.52c-.303.182-.793.203-1.09.045"/>
        <path fill="#A5C0E0" d="M184.112 222.975l-6.06-3.24c-.07-.038-.069-.104.003-.147l2.575-1.552a.288.288 0 0 1 .258-.01l6.06 3.24c.07.037.07.103-.003.146l-2.575 1.552a.29.29 0 0 1-.258.01"/>
        <path fill="#FFF" d="M180.838 216.815c-.163-.61-.736-1.334-1.278-1.615l-25.205-13.088c-.225-.117-.409-.139-.535-.082h-.001l-.004.002a.278.278 0 0 0-.114.092l-.701.8.71-.06 3.78 14.15c.164.612.736 1.335 1.278 1.616l23.834 12.377.81.79.112.195c.466.095 1.476-.654 1.476-.654l-4.162-14.523z"/>
        <path fill="#9CB9DC" d="M183.271 232.887s-26.252-14.172-26.414-14.785l-3.813-14.39c-.164-.614.143-.883.684-.599l25.142 13.162c.54.283 1.11 1.01 1.273 1.625l3.813 14.39c.163.613-.144.88-.685.597"/>
        <path fill="#FFF" d="M169.964 218.38c.208.67-.502.82-1.587.335-1.085-.486-2.132-1.424-2.34-2.094-.209-.671.502-.822 1.587-.336 1.085.486 2.133 1.423 2.34 2.094"/>
        <path fill="#F4BDAD" d="M209.01 179l-3.86 27.03c.034 1.504-22.15 14.219-22.15 14.219l.955 3.751 22.943-9.69c7.172-3.312 7.243-9.857 7.436-13.809L216 180.262 209.01 179z"/>
        <path fill="#FDD97D" d="M217.728 188.305l-1.963 15.272c-.486 1.283-12.27-.587-11.748-2.492.091-.336 1.845-18.601 7.29-23.079 4.42-3.637 7.677 3.233 6.42 10.299M187.262 184.088l-3.416 6.725c-.732 1.131-11.689-3.174-10.794-4.894.158-.303 5.61-17.48 11.773-20.626 5.005-2.555 5.103 12.272 2.437 18.795"/>
        <path fill="#28DDCB" d="M312.5 241c-8.008 0-14.5-6.492-14.5-14.5s6.492-14.5 14.5-14.5 14.5 6.492 14.5 14.5-6.492 14.5-14.5 14.5z"/>
    </g>
</svg>
