<svg xmlns="http://www.w3.org/2000/svg" xmlns:xlink="http://www.w3.org/1999/xlink" width="77" height="39" viewBox="0 0 77 39">
    <defs>
        <path id="a" d="M0 .558h76.354v38.36H0z"/>
        <path id="c" d="M.045.558h45.942v38.36H.045z"/>
        <path id="e" d="M0 39.443h76.354V1.082H0z"/>
    </defs>
    <g fill="none" fill-rule="evenodd" transform="translate(0 -1)">
        <g transform="translate(0 .524)">
            <mask id="b" fill="#fff">
                <use xlink:href="#a"/>
            </mask>
            <path fill="#FFF" d="M74.069.558H32.695c-.652 0-1.237.352-1.653.909-.31-.562-.756-.91-1.27-.91H1.722C.74.558 0 1.803 0 3.455v32.57c0 1.65.74 2.895 1.723 2.895h28.05c.513 0 .958-.347 1.268-.909.417.556 1.002.909 1.654.909h41.374c1.26 0 2.285-1.299 2.285-2.894V3.454c0-1.597-1.025-2.896-2.285-2.896" mask="url(#b)"/>
        </g>
        <path fill="#D4F7F3" d="M30.953 36.548c0 1.3-.529 2.354-1.18 2.354H1.722c-.652 0-1.181-1.054-1.181-2.354V3.977c0-1.3.529-2.356 1.18-2.356h28.05c.652 0 1.181 1.055 1.181 2.356"/>
        <path fill="#2AD9C1" d="M29.772 39.443H1.722C.74 39.443 0 38.198 0 36.547V3.977c0-1.651.74-2.895 1.722-2.895h28.05c.983 0 1.723 1.244 1.723 2.895h-1.084c0-1.19-.475-1.814-.639-1.814H1.722c-.163 0-.637.623-.637 1.814v32.57c0 1.19.474 1.815.637 1.815h28.05c.195 0 .639-.686.639-1.815h1.084c0 1.651-.74 2.896-1.723 2.896"/>
        <g transform="translate(30.366 .524)">
            <mask id="d" fill="#fff">
                <use xlink:href="#c"/>
            </mask>
            <path fill="#2AD9C1" d="M43.703 38.919H2.329c-1.26 0-2.284-1.298-2.284-2.895h1.084c0 .982.55 1.814 1.2 1.814h41.374c.65 0 1.2-.832 1.2-1.814V3.453c0-.984-.55-1.814-1.2-1.814H2.329c-.65 0-1.2.83-1.2 1.814H.045C.045 1.857 1.069.558 2.329.558h41.374c1.26 0 2.285 1.3 2.285 2.895v32.57c0 1.598-1.025 2.896-2.285 2.896" mask="url(#d)"/>
        </g>
        <mask id="f" fill="#fff">
            <use xlink:href="#e"/>
        </mask>
        <path fill="#2AD9C1" d="M4.085 17.395h18.042v-1.768H4.085zM35.035 17.395h24.21v-1.768h-24.21zM56.715 32.88h16.139v-2.757H56.715zM4.085 9.932h2.326V7.19H4.085zM7.817 9.932h2.325V7.19H7.817zM11.549 9.932h2.325V7.19H11.55zM15.28 9.932h2.326V7.19H15.28zM19.012 9.932h2.326V7.19h-2.326zM22.745 9.932h2.326V7.19h-2.326zM35.159 9.932h2.324V7.19h-2.324zM38.89 9.932h2.326V7.19H38.89zM42.623 9.932h2.324V7.19h-2.324zM46.354 9.932h2.325V7.19h-2.325zM50.087 9.932h2.324V7.19h-2.324zM53.819 9.932h2.325V7.19h-2.325zM57.566 9.932h2.324V7.19h-2.324zM61.296 9.932h2.326V7.19h-2.326zM65.247 9.932h2.325V7.19h-2.325zM69.197 9.932h2.325V7.19h-2.325zM30.41 5.842h1.085V3.679h-1.084v2.163zm0 4.324h1.085V8.004h-1.084v2.162zm0 4.324h1.085v-2.162h-1.084v2.162zm0 4.324h1.085v-2.162h-1.084v2.162zm0 4.325h1.085v-2.162h-1.084v2.162zm0 4.324h1.085v-2.162h-1.084v2.162zm0 4.324h1.085v-2.162h-1.084v2.162zm0 4.325h1.085V33.95h-1.084v2.162z" mask="url(#f)"/>
    </g>
</svg>
