<svg xmlns="http://www.w3.org/2000/svg" xmlns:xlink="http://www.w3.org/1999/xlink" width="24" height="40" viewBox="0 0 24 40">
    <defs>
        <path id="prefix__a" d="M0 0.045L22.216 0.045 22.216 37.333 0 37.333z"/>
        <path id="prefix__c" d="M0 0L23.913 0 23.913 40 0 40z"/>
        <path id="prefix__e" d="M1.329 38.667L22.585 38.667 22.585 1.333 1.329 1.333z"/>
    </defs>
    <g fill="none" fill-rule="evenodd">
        <g transform="translate(1.329 1.333)">
            <mask id="prefix__b" fill="#fff">
                <use xlink:href="#prefix__a"/>
            </mask>
            <path fill="#FFF" d="M20.193.045H2.023C.908.045 0 .983 0 2.135v33.11c0 1.151.908 2.088 2.023 2.088h18.17c1.116 0 2.024-.937 2.024-2.089V2.136c0-1.153-.908-2.09-2.024-2.09" mask="url(#prefix__b)"/>
        </g>
        <mask id="prefix__d" fill="#fff">
            <use xlink:href="#prefix__c"/>
        </mask>
        <path fill="#2AD9C1" d="M2.178.834c-.754 0-1.367.633-1.367 1.409v35.516c0 .776.613 1.407 1.367 1.407h19.557c.754 0 1.368-.631 1.368-1.407V2.243c0-.776-.614-1.409-1.368-1.409H2.178zM21.735 40H2.178C.978 40 0 38.995 0 37.759V2.243C0 1.006.977 0 2.178 0h19.557c1.2 0 2.178 1.006 2.178 2.243v35.516c0 1.236-.977 2.241-2.178 2.241z" mask="url(#prefix__d)"/>
        <path fill="#2AD9C1" d="M11.957 34.391c-.152 0-.275.123-.275.275 0 .304.549.304.549 0 0-.152-.123-.275-.274-.275m0 1.609c-.733 0-1.329-.599-1.329-1.334 0-.735.596-1.333 1.329-1.333.732 0 1.328.598 1.328 1.333S12.689 36 11.957 36M14.214 6.667H9.699c-.221 0-.4-.299-.4-.667 0-.368.179-.667.4-.667h4.515c.22 0 .4.299.4.667 0 .368-.18.667-.4.667"/>
        <mask id="prefix__f" fill="#fff">
            <use xlink:href="#prefix__e"/>
        </mask>
        <path fill="#D4F7F3" d="M1.329 32L22.585 32 22.585 8 1.329 8z" mask="url(#prefix__f)"/>
        <path fill="#2AD9C1" d="M2.049 31.232h19.815V8.768H2.05v22.464zm-.72.768h21.256V8H1.329v24z" mask="url(#prefix__f)"/>
        <path fill="#2AD9C1" d="M6.122 16.522h2.37v-2.378h-2.37v2.378zm2.773.811H5.718c-.224 0-.404-.181-.404-.405v-3.19c0-.223.18-.405.404-.405h3.177c.224 0 .405.182.405.406v3.189c0 .224-.18.405-.405.405z" mask="url(#prefix__f)"/>
        <path fill="#2AD9C1" d="M6.643 16L7.971 16 7.971 14.667 6.643 14.667zM6.122 23.189h2.37V20.81h-2.37v2.379zM8.895 24H5.718c-.224 0-.404-.18-.404-.406v-3.188c0-.225.18-.406.404-.406h3.177c.224 0 .405.18.405.406v3.188c0 .225-.18.406-.405.406z" mask="url(#prefix__f)"/>
        <path fill="#2AD9C1" d="M6.643 22.667L7.971 22.667 7.971 21.333 6.643 21.333zM14.093 16.522h2.37v-2.378h-2.37v2.378zm2.773.811H13.69c-.223 0-.404-.181-.404-.405v-3.19c0-.223.181-.405.404-.405h3.177c.224 0 .405.182.405.406v3.189c0 .224-.181.405-.405.405z" mask="url(#prefix__f)"/>
        <path fill="#2AD9C1" d="M14.614 16L15.942 16 15.942 14.667 14.614 14.667zM11.509 18.667H9.747c-.248 0-.447-.218-.447-.486s.2-.486.447-.486h1.314v-5.21c0-.268.2-.485.448-.485.247 0 .448.217.448.486v5.695c0 .268-.201.486-.448.486M16.866 22.667H13.69c-.223 0-.404-.18-.404-.4v-3.2c0-.221.181-.4.404-.4.223 0 .404.179.404.4v2.8h2.773c.224 0 .405.179.405.4 0 .22-.181.4-.405.4" mask="url(#prefix__f)"/>
        <path fill="#2AD9C1" d="M16.39 21.333c-.247 0-.448-.199-.448-.444v-1.778c0-.245.2-.444.448-.444h1.761c.247 0 .448.199.448.444v1.748c0 .245-.2.444-.448.444s-.448-.199-.448-.444v-1.304h-.865v1.334c0 .245-.2.444-.448.444M14.166 24h-1.762c-.248 0-.447-.178-.447-.397v-3.206c0-.22.2-.397.447-.397.248 0 .448.177.448.397v2.808h1.314c.247 0 .448.178.448.398 0 .219-.201.397-.448.397M18.151 25.333H16.39c-.247 0-.448-.298-.448-.666 0-.368.2-.667.448-.667h1.761c.247 0 .448.299.448.667 0 .368-.2.666-.448.666M4.339 14.667c-.195 0-.353-.16-.353-.355v-3.291c0-.196.158-.354.353-.354h3.279c.195 0 .353.158.353.354 0 .196-.158.354-.353.354H4.692v2.937c0 .196-.158.355-.353.355M19.574 14.667c-.195 0-.353-.16-.353-.355v-2.936h-2.926c-.195 0-.353-.159-.353-.355 0-.196.158-.354.353-.354h3.28c.194 0 .353.158.353.354v3.291c0 .196-.159.355-.354.355" mask="url(#prefix__f)"/>
        <path fill="#2AD9C1" d="M19.574 26.667h-3.279c-.195 0-.353-.16-.353-.355 0-.195.158-.354.353-.354h2.926V23.02c0-.196.159-.354.353-.354.195 0 .354.158.354.354v3.291c0 .196-.159.355-.354.355M7.618 26.667h-3.28c-.194 0-.352-.16-.352-.355v-3.291c0-.196.158-.354.353-.354.195 0 .353.158.353.354v2.937h2.926c.195 0 .353.159.353.354 0 .196-.158.355-.353.355" mask="url(#prefix__f)"/>
    </g>
</svg>
