<svg xmlns="http://www.w3.org/2000/svg" xmlns:xlink="http://www.w3.org/1999/xlink" width="77" height="39" viewBox="0 0 77 39">
    <defs>
        <path id="a" d="M0 .558h76.354v38.36H0z"/>
        <path id="c" d="M.045.558h45.942v38.36H.045z"/>
        <path id="e" d="M0 39.443h76.354V1.082H0z"/>
    </defs>
    <g fill="none" fill-rule="evenodd" transform="translate(0 -1)">
        <g transform="translate(0 .524)">
            <mask id="b" fill="#fff">
                <use xlink:href="#a"/>
            </mask>
            <path fill="#FFF" d="M74.069.558H32.695c-.652 0-1.238.352-1.653.909-.31-.562-.756-.91-1.27-.91H1.722C.74.558 0 1.803 0 3.455v32.57c0 1.65.74 2.895 1.722 2.895h28.05c.514 0 .96-.347 1.27-.909.415.556 1.001.909 1.653.909h41.374c1.26 0 2.285-1.299 2.285-2.894V3.454c0-1.597-1.025-2.896-2.285-2.896" mask="url(#b)"/>
        </g>
        <path fill="#D4F7F3" d="M30.953 36.548c0 1.3-.528 2.354-1.18 2.354H1.722c-.652 0-1.18-1.054-1.18-2.354V3.977c0-1.3.528-2.356 1.18-2.356h28.05c.652 0 1.18 1.055 1.18 2.356"/>
        <path fill="#2AD9C1" d="M29.772 39.443H1.722C.74 39.443 0 38.198 0 36.547V3.977c0-1.651.74-2.895 1.722-2.895h28.05c.982 0 1.723 1.244 1.723 2.895h-1.084c0-1.19-.475-1.814-.64-1.814H1.723c-.164 0-.637.623-.637 1.814v32.57c0 1.19.473 1.815.637 1.815h28.05c.195 0 .639-.686.639-1.815h1.084c0 1.651-.74 2.896-1.723 2.896"/>
        <g transform="translate(30.366 .524)">
            <mask id="d" fill="#fff">
                <use xlink:href="#c"/>
            </mask>
            <path fill="#2AD9C1" d="M43.703 38.919H2.329c-1.26 0-2.284-1.298-2.284-2.895h1.084c0 .982.549 1.814 1.2 1.814h41.374c.65 0 1.2-.832 1.2-1.814V3.453c0-.984-.55-1.814-1.2-1.814H2.329c-.651 0-1.2.83-1.2 1.814H.045C.045 1.857 1.068.558 2.329.558h41.374c1.26 0 2.285 1.3 2.285 2.895v32.57c0 1.598-1.025 2.896-2.285 2.896" mask="url(#d)"/>
        </g>
        <mask id="f" fill="#fff">
            <use xlink:href="#e"/>
        </mask>
        <path fill="#2AD9C1" d="M4.085 17.395h18.042v-1.768H4.085zM35.035 17.395h24.21v-1.768h-24.21zM4.085 9.932h2.326V7.19H4.085zM7.817 9.932h2.325V7.19H7.817zM11.549 9.932h2.325V7.19H11.55zM15.28 9.932h2.326V7.19H15.28zM19.014 9.932h2.325V7.19h-2.325zM22.745 9.932h2.326V7.19h-2.326zM35.159 9.932h2.325V7.19h-2.325zM38.89 9.932h2.326V7.19H38.89zM42.622 9.932h2.325V7.19h-2.325zM46.354 9.932h2.325V7.19h-2.325zM50.086 9.932h2.325V7.19h-2.325zM53.818 9.932h2.325V7.19h-2.325zM57.565 9.932h2.325V7.19h-2.325zM61.296 9.932h2.326V7.19h-2.326zM65.246 9.932h2.325V7.19h-2.325zM69.197 9.932h2.325V7.19h-2.325zM30.41 5.842h1.085V3.679h-1.084v2.163zm0 4.324h1.085V8.004h-1.084v2.162zm0 4.324h1.085v-2.162h-1.084v2.162zm0 4.324h1.085v-2.162h-1.084v2.162zm0 4.325h1.085v-2.162h-1.084v2.162zm0 4.324h1.085v-2.162h-1.084v2.162zm0 4.324h1.085v-2.162h-1.084v2.162zm0 4.325h1.085V33.95h-1.084v2.162zM43.635 33.82a.11.11 0 0 1-.02.065c-.014.02-.038.034-.072.047a.902.902 0 0 1-.14.028 1.765 1.765 0 0 1-.222.012c-.087 0-.16-.004-.217-.012a.834.834 0 0 1-.14-.028.153.153 0 0 1-.07-.047.104.104 0 0 1-.023-.065v-3.811h-.007l-1.362 3.806a.167.167 0 0 1-.047.078.219.219 0 0 1-.089.049.547.547 0 0 1-.144.024 2.868 2.868 0 0 1-.42-.004.69.69 0 0 1-.144-.029.255.255 0 0 1-.089-.048.142.142 0 0 1-.043-.07L39.07 30.01h-.006v3.81a.118.118 0 0 1-.02.066c-.014.02-.039.034-.076.047a.912.912 0 0 1-.139.028c-.057.008-.13.012-.22.012-.086 0-.16-.004-.218-.012a.902.902 0 0 1-.14-.028c-.034-.013-.06-.028-.072-.047a.117.117 0 0 1-.02-.065v-4.173c0-.123.033-.217.098-.282a.353.353 0 0 1 .261-.099h.625c.112 0 .207.01.287.027a.505.505 0 0 1 .351.257c.04.07.073.154.103.256l1.016 2.79h.015l1.052-2.783c.032-.101.066-.187.104-.256a.583.583 0 0 1 .13-.17.427.427 0 0 1 .177-.094.952.952 0 0 1 .235-.027h.643c.065 0 .122.009.17.026a.287.287 0 0 1 .184.194c.016.046.024.1.024.16v4.174zM46.35 30.16h-.003l-.665 1.99h1.333l-.665-1.99zm2.157 3.435c.029.087.047.155.055.206.006.05-.003.088-.03.114-.027.025-.073.041-.142.048a6.443 6.443 0 0 1-.568.003.7.7 0 0 1-.157-.022c-.036-.01-.062-.026-.076-.045a.235.235 0 0 1-.037-.076l-.316-.94h-1.764l-.297.914a.272.272 0 0 1-.04.086.16.16 0 0 1-.075.054.54.54 0 0 1-.149.028 4.916 4.916 0 0 1-.253.006c-.111 0-.198-.004-.26-.01-.064-.008-.107-.025-.131-.052-.025-.03-.033-.068-.026-.12.008-.049.026-.117.054-.201l1.45-4.155a.387.387 0 0 1 .05-.1.18.18 0 0 1 .092-.057.682.682 0 0 1 .177-.026 9.18 9.18 0 0 1 .639 0 .83.83 0 0 1 .197.026.183.183 0 0 1 .102.06c.02.027.038.062.052.108l1.453 4.151zM51.121 33.783a.334.334 0 0 1-.047.1.186.186 0 0 1-.095.058.76.76 0 0 1-.178.025 5.307 5.307 0 0 1-.294.006l-.248-.002a1.904 1.904 0 0 1-.177-.01.627.627 0 0 1-.117-.02.269.269 0 0 1-.077-.038.134.134 0 0 1-.047-.052.365.365 0 0 1-.03-.078l-1.4-4.151a1.104 1.104 0 0 1-.051-.206c-.006-.05.005-.088.037-.114.03-.025.081-.041.154-.047a4.319 4.319 0 0 1 .566 0 .492.492 0 0 1 .145.024c.034.012.058.03.07.054a.575.575 0 0 1 .039.09l1.144 3.613h.003l1.122-3.595a.342.342 0 0 1 .036-.098.143.143 0 0 1 .075-.06.444.444 0 0 1 .15-.029c.066-.005.155-.007.269-.007.111 0 .198.003.26.01s.104.025.127.052c.023.028.03.067.022.118-.01.05-.028.118-.057.202l-1.401 4.155zM55.263 34.887a.22.22 0 0 1-.048.076.196.196 0 0 1-.081.046.585.585 0 0 1-.131.028 1.67 1.67 0 0 1-.198.01c-.1 0-.18-.005-.243-.015a.424.424 0 0 1-.143-.043c-.033-.02-.052-.045-.057-.075a.22.22 0 0 1 .015-.107l2.171-6.076a.199.199 0 0 1 .044-.078.23.23 0 0 1 .08-.05.72.72 0 0 1 .132-.026 2.02 2.02 0 0 1 .443.006c.061.01.108.023.14.044.03.02.05.043.054.073a.238.238 0 0 1-.011.107l-2.167 6.08zM61.99 30.65a.686.686 0 0 0-.105-.391.57.57 0 0 0-.345-.225 1.472 1.472 0 0 0-.165-.029 2.268 2.268 0 0 0-.256-.01h-.428v1.327h.485c.136 0 .254-.016.356-.049a.71.71 0 0 0 .255-.137.558.558 0 0 0 .152-.212.712.712 0 0 0 .05-.275m1.232 3.177c0 .028-.006.05-.014.068-.011.018-.034.032-.07.045a.683.683 0 0 1-.16.025 4.78 4.78 0 0 1-.53 0 .487.487 0 0 1-.143-.027.157.157 0 0 1-.074-.05.291.291 0 0 1-.037-.074l-.421-1.047a4.414 4.414 0 0 0-.149-.315 1.042 1.042 0 0 0-.161-.23.595.595 0 0 0-.205-.14.737.737 0 0 0-.27-.046h-.296v1.785a.101.101 0 0 1-.024.064.169.169 0 0 1-.078.047.81.81 0 0 1-.146.03c-.06.006-.137.01-.232.01-.092 0-.169-.004-.23-.01a.786.786 0 0 1-.147-.03c-.037-.013-.062-.027-.077-.047a.105.105 0 0 1-.022-.064v-4.253c0-.107.027-.183.083-.23a.299.299 0 0 1 .2-.07h1.217a5.704 5.704 0 0 1 .523.024c.188.029.359.074.51.139.151.065.28.15.385.254.105.106.185.23.24.373.057.144.085.308.085.494 0 .158-.02.3-.06.43a1.109 1.109 0 0 1-.463.609 1.552 1.552 0 0 1-.39.18 1.047 1.047 0 0 1 .374.299c.053.069.105.148.154.235.048.09.095.189.14.3l.397.922c.035.092.06.159.072.201a.401.401 0 0 1 .019.099M65.612 30.16h-.003l-.665 1.99h1.333l-.665-1.99zm2.158 3.435c.028.087.046.155.054.206.006.05-.002.088-.03.114-.027.025-.073.041-.142.048a6.443 6.443 0 0 1-.568.003.7.7 0 0 1-.157-.022c-.036-.01-.062-.026-.076-.045a.235.235 0 0 1-.037-.076l-.315-.94h-1.765l-.297.914a.272.272 0 0 1-.04.086.16.16 0 0 1-.075.054.54.54 0 0 1-.149.028 4.916 4.916 0 0 1-.252.006c-.112 0-.199-.004-.262-.01-.063-.008-.106-.025-.13-.052-.025-.03-.032-.068-.026-.12.008-.049.026-.117.054-.201l1.45-4.155a.387.387 0 0 1 .05-.1.18.18 0 0 1 .092-.057.682.682 0 0 1 .177-.026 9.18 9.18 0 0 1 .639 0 .83.83 0 0 1 .197.026.183.183 0 0 1 .102.06c.02.027.038.062.052.108l1.454 4.151zM70.383 33.783a.334.334 0 0 1-.047.1.186.186 0 0 1-.095.058.76.76 0 0 1-.178.025 5.307 5.307 0 0 1-.294.006l-.248-.002a1.904 1.904 0 0 1-.177-.01.627.627 0 0 1-.117-.02.269.269 0 0 1-.077-.038.134.134 0 0 1-.047-.052.365.365 0 0 1-.03-.078l-1.399-4.151a1.104 1.104 0 0 1-.052-.206c-.005-.05.005-.088.037-.114.03-.025.081-.041.154-.047a4.319 4.319 0 0 1 .566 0 .492.492 0 0 1 .145.024c.034.012.058.03.07.054a.575.575 0 0 1 .039.09l1.144 3.613h.003l1.123-3.595a.342.342 0 0 1 .035-.098.143.143 0 0 1 .075-.06.444.444 0 0 1 .15-.029c.066-.005.155-.007.269-.007.112 0 .198.003.26.01s.104.025.127.052c.023.028.03.067.022.118-.009.05-.027.118-.057.202l-1.4 4.155z" mask="url(#f)"/>
    </g>
</svg>
