<svg xmlns="http://www.w3.org/2000/svg" xmlns:xlink="http://www.w3.org/1999/xlink" width="36" height="58" viewBox="0 0 36 58">
    <defs>
        <path id="a" d="M0 .07h35.413V58H0z"/>
        <path id="c" d="M0 .07h35.413V58H0z"/>
        <path id="e" d="M0 58h35.345V0H0z"/>
    </defs>
    <g fill="none" fill-rule="evenodd">
        <mask id="b" fill="#fff">
            <use xlink:href="#a"/>
        </mask>
        <path fill="#FFF" d="M32.188.07H3.225C1.447.07 0 1.527 0 3.318v51.437C0 56.545 1.447 58 3.225 58h28.963c1.779 0 3.226-1.456 3.226-3.245V3.318c0-1.79-1.447-3.248-3.226-3.248" mask="url(#b)"/>
        <mask id="d" fill="#fff">
            <use xlink:href="#c"/>
        </mask>
        <path fill="#2AD9C1" d="M3.225 1.279a2.034 2.034 0 0 0-2.024 2.04v51.436c0 1.123.907 2.037 2.024 2.037h28.963a2.033 2.033 0 0 0 2.026-2.037V3.318c0-1.124-.909-2.04-2.026-2.04H3.225zM32.188 58H3.225c-1.778 0-3.226-1.456-3.226-3.245V3.318C0 1.528 1.447.07 3.225.07h28.963c1.779 0 3.226 1.457 3.226 3.248v51.437c0 1.79-1.447 3.245-3.226 3.245z" mask="url(#d)"/>
        <path fill="#2AD9C1" d="M18 51.398a.338.338 0 0 0-.338.34c0 .375.676.375.676 0 0-.188-.151-.34-.338-.34m0 1.988c-.903 0-1.636-.74-1.636-1.648 0-.909.733-1.647 1.636-1.647.903 0 1.636.738 1.636 1.647 0 .908-.733 1.648-1.636 1.648M21.01 7.25h-6.674c-.327 0-.59-.295-.59-.66 0-.363.263-.658.59-.658h6.673c.326 0 .591.295.591.659 0 .364-.265.659-.59.659"/>
        <mask id="f" fill="#fff">
            <use xlink:href="#e"/>
        </mask>
        <path fill="#D4F7F3" d="M.655 46.136H34.69V9.227H.655z" mask="url(#f)"/>
        <path fill="#2AD9C1" d="M1.198 44.935h32.95V9.77H1.198v35.165zM0 46.136h35.345V8.568H0v37.568z" mask="url(#f)"/>
        <path fill="#2AD9C1" d="M11.013 24.502h3.503v-3.527h-3.503v3.527zm4.099 1.203h-4.697a.599.599 0 0 1-.597-.602v-4.729c0-.332.267-.601.597-.601h4.697c.33 0 .597.27.597.601v4.73a.599.599 0 0 1-.597.6z" mask="url(#f)"/>
        <path fill="#2AD9C1" d="M11.782 23.727h1.963V21.75h-1.963zM11.013 34.388h3.503v-3.527h-3.503v3.527zm4.099 1.203h-4.697a.598.598 0 0 1-.597-.601v-4.73c0-.333.267-.6.597-.6h4.697c.33 0 .597.267.597.6v4.73a.598.598 0 0 1-.597.6z" mask="url(#f)"/>
        <path fill="#2AD9C1" d="M11.782 33.955h1.963v-1.978h-1.963zM20.176 24.502h3.502v-3.527h-3.502v3.527zm4.1 1.203h-4.697a.6.6 0 0 1-.597-.602v-4.729a.6.6 0 0 1 .597-.601h4.697a.6.6 0 0 1 .597.601v4.73a.6.6 0 0 1-.597.6z" mask="url(#f)"/>
        <path fill="#2AD9C1" d="M20.945 23.727h1.964V21.75h-1.964zM17.121 28.34h-2.17c-.305 0-.551-.279-.551-.623 0-.345.246-.624.552-.624h1.617v-6.696c0-.346.247-.624.552-.624.305 0 .552.278.552.624v7.32c0 .344-.247.624-.552.624M12.54 28.34h-2.17c-.306 0-.552-.294-.552-.658 0-.364.246-.66.552-.66h2.17c.304 0 .55.296.55.66 0 .364-.246.659-.55.659M24.276 32.955h-4.697a.595.595 0 0 1-.597-.594v-4.745c0-.328.267-.593.597-.593.33 0 .597.265.597.593v4.152h4.1c.33 0 .597.266.597.593a.595.595 0 0 1-.597.594" mask="url(#f)"/>
        <path fill="#2AD9C1" d="M22.152 30.977c-.305 0-.552-.295-.552-.659v-2.636c0-.364.247-.66.552-.66h2.169c.305 0 .552.296.552.66v2.592c0 .363-.247.658-.552.658-.306 0-.552-.295-.552-.658V28.34h-1.066v1.978c0 .364-.247.66-.551.66M19.085 34.932h-2.17c-.305 0-.551-.264-.551-.59V29.59c0-.326.246-.589.551-.589.305 0 .552.263.552.59v4.163h1.618c.304 0 .551.264.551.59 0 .325-.247.589-.551.589M24.321 35.59h-2.17c-.304 0-.551-.294-.551-.658 0-.364.247-.66.552-.66h2.169c.305 0 .552.296.552.66 0 .364-.247.659-.552.659M5.816 22.41a.582.582 0 0 1-.58-.585v-5.423c0-.322.26-.584.58-.584h5.386c.32 0 .58.262.58.584 0 .324-.26.584-.58.584H6.396v4.84c0 .322-.26.583-.58.583M28.875 22.41a.582.582 0 0 1-.58-.585v-4.839h-4.806c-.32 0-.58-.26-.58-.584 0-.322.26-.584.58-.584h5.386c.32 0 .58.262.58.584v5.423c0 .322-.26.584-.58.584M28.875 39.545h-5.386a.582.582 0 0 1-.58-.583c0-.323.26-.584.58-.584h4.806v-4.84c0-.322.26-.583.58-.583.32 0 .58.261.58.583v5.424c0 .322-.26.583-.58.583M11.202 39.545H5.816a.582.582 0 0 1-.58-.583v-5.424c0-.322.26-.583.58-.583.32 0 .58.261.58.583v4.84h4.806c.32 0 .58.261.58.584 0 .322-.26.583-.58.583" mask="url(#f)"/>
    </g>
</svg>
