<svg xmlns="http://www.w3.org/2000/svg" viewBox="0 0 526.15 70.74"><title>payment_1</title><g id="d5f40f73-0607-4c6b-998d-9e8420d04acb" data-name="Livello 2"><g id="72864b70-9fdf-45f8-8207-3f8952ccec0c" data-name="Livello 1"><circle cx="33.05" cy="36.86" r="33.05" fill="#f3f2f2"/><polygon points="24.47 43.2 27 28.27 31.09 28.27 28.56 43.2 24.47 43.2" fill="#273885"/><path d="M43.14,28.65A10.7,10.7,0,0,0,39.47,28c-4,0-6.9,2-6.92,4.93,0,2.14,2,3.34,3.58,4s2.13,1.2,2.13,1.85c0,1-1.28,1.46-2.45,1.46A8.63,8.63,0,0,1,32,39.54l-.53-.24-.57,3.34a13,13,0,0,0,4.56.8c4.31,0,7.1-2,7.13-5.1,0-1.7-1.07-3-3.44-4.06-1.43-.69-2.3-1.15-2.29-1.85s.74-1.28,2.34-1.28a7.36,7.36,0,0,1,3.07.57l.36.17.56-3.24Z" fill="#273885"/><path d="M50.12,28.27A2,2,0,0,0,48,29.54L41.93,43.2h4.33l.85-2.29h5.18l.48,2.29h3.85L53.25,28.27Zm-1.86,9.66c.34-.86,1.63-4.18,1.63-4.18s.34-.86.54-1.42l.28,1.28s.78,3.57.95,4.32Z" fill="#273885"/><path d="M17,38.5l-.36-2A11.59,11.59,0,0,0,11,30.2l3.61,13h4.34l6.5-14.93H21.1Z" fill="#273885"/><path d="M6.53,28.27v.24c5.14,1.24,8.7,4.36,10.11,8l-1.48-6.92a1.76,1.76,0,0,0-1.89-1.27Z" fill="#f49823"/><path d="M33,69.91A33,33,0,0,0,62.37,52.1H3.72A33,33,0,0,0,33,69.91Z" fill="#f49823"/><path d="M33,3.81A33,33,0,0,0,4,21.12H62.11A33,33,0,0,0,33,3.81Z" fill="#273885"/><circle cx="218.5" cy="36.86" r="33.05" fill="#1f396b"/><path d="M217.64,46.8a14.24,14.24,0,1,0-9.54,3.69,14.18,14.18,0,0,0,9.54-3.69Z" fill="#109cd9"/><path d="M217.64,46.8a14.22,14.22,0,0,0,0-21.11V46.8Z" fill="#109cd9"/><path d="M227.21,22a14.22,14.22,0,0,0-9.57,3.68,18.47,18.47,0,0,0-1.43,1.5h2.88c.39.48.75,1,1.08,1.51h-5c-.3.5-.58,1-.83,1.51H221a15.85,15.85,0,0,1,.62,1.5h-7.9a15.84,15.84,0,0,0-.41,1.54H222a15.52,15.52,0,0,1,.3,3,14.45,14.45,0,0,1-.72,4.52h-7.9c.17.5.37,1,.59,1.51H221a16.55,16.55,0,0,1-.8,1.5h-5.05a13.74,13.74,0,0,0,1.08,1.51h2.88a15.84,15.84,0,0,1-1.45,1.51A14.24,14.24,0,1,0,227.21,22Z" fill="#e62532"/><path d="M236.52,39.33a.47.47,0,0,1,.48-.45.44.44,0,0,1,.44.45.46.46,0,0,1-.44.47.49.49,0,0,1-.48-.47Zm.48.36a.35.35,0,0,0,.33-.36A.32.32,0,0,0,237,39a.34.34,0,0,0-.36.34.36.36,0,0,0,.36.36Zm-.06-.17h-.11v-.39H237c.05,0,.08,0,.11,0s.06.06.06.09a.1.1,0,0,1-.09.11l.09.16h-.12l-.05-.14h-.06v.14Zm0-.22h.11v-.08h-.11v.08Z" fill="#fff"/><polygon points="206.31 39.8 204.53 39.8 205.59 34.25 203.16 39.8 201.54 39.8 201.26 34.28 200.2 39.8 198.58 39.8 199.95 32.58 202.74 32.58 202.88 37.04 204.84 32.58 207.71 32.58 206.31 39.8" fill="#fff"/><path d="M226.12,39.72a4.46,4.46,0,0,1-1.28.19c-.9,0-1.4-.44-1.4-1.28a3.58,3.58,0,0,1,.06-.53l.11-.58.08-.45.81-4.49h1.76L226,33.92h.92l-.25,1.42h-.92l-.45,2.45a1.25,1.25,0,0,0-.05.26c0,.3.19.44.61.44a2.49,2.49,0,0,0,.47-.05l-.22,1.28Z" fill="#fff"/><path d="M231.28,34a.53.53,0,0,0-.2,0c-.08,0-.14,0-.14-.06h-.19a1.83,1.83,0,0,0-1.54,1l.17-.89h-1.62l-1.09,5.88h1.79c.64-3.6.89-4.24,1.76-4.24.05,0,.14,0,.22,0l.2.06.64-1.68Z" fill="#fff"/><path d="M219.09,35.79c0,.72.42,1.25,1.36,1.61.73.31.84.39.84.67s-.33.53-1,.53a5.66,5.66,0,0,1-1.62-.25l-.22,1.37h.08l.31.08c.11,0,.28,0,.47,0a6.75,6.75,0,0,0,1,.06c1.87,0,2.76-.62,2.76-2,0-.81-.36-1.29-1.28-1.65-.76-.28-.84-.36-.84-.64s.31-.48.89-.48a10.36,10.36,0,0,1,1.28.09l.26-1.34a11.12,11.12,0,0,0-1.57-.11c-2,0-2.7.89-2.7,2Z" fill="#fff"/><path d="M212.06,39.8h-1.45l0-.61a2.44,2.44,0,0,1-1.87.7,1.53,1.53,0,0,1-1.62-1.59c0-1.43,1.14-2.26,3.12-2.26a6.63,6.63,0,0,1,.73,0,1.07,1.07,0,0,0,.06-.37c0-.39-.31-.53-1.15-.53a7.84,7.84,0,0,0-1.45.14l-.25.09-.17,0,.25-1.31a8.21,8.21,0,0,1,2.13-.3c1.53,0,2.31.58,2.31,1.7a6.4,6.4,0,0,1-.14,1.17l-.36,2.09-.06.36-.06.31,0,.2,0,.16Zm-1.29-2.62a2,2,0,0,0-.39,0c-1,0-1.5.31-1.5.9a.57.57,0,0,0,.61.61,1.36,1.36,0,0,0,1.28-1.48Z" fill="#fff"/><path d="M217.89,39.66a6.69,6.69,0,0,1-1.81.25c-2,0-3-.92-3-2.65a3.21,3.21,0,0,1,3.1-3.48,2.11,2.11,0,0,1,2.37,2.12,6,6,0,0,1-.19,1.45h-3.55v.19c0,.67.5,1,1.54,1a4.76,4.76,0,0,0,1.84-.37l-.28,1.45Zm-.95-3.48v-.31c0-.47-.31-.75-.84-.75s-.95.39-1.11,1.06Z" fill="#fff"/><path d="M236.8,37.12a3.13,3.13,0,0,1-3.46,2.82,2.5,2.5,0,0,1-2.79-2.7A3.3,3.3,0,0,1,234,33.75a2.57,2.57,0,0,1,2.82,2.65,2.8,2.8,0,0,1-.06.72ZM235,36.37c0-.61-.25-1.17-1-1.17-.9,0-1.46,1.06-1.46,2,0,.78.4,1.31,1,1.31a1.73,1.73,0,0,0,1.37-1.42,3.49,3.49,0,0,0,.05-.73Z" fill="#fff"/><circle cx="401.57" cy="33.94" r="33.05" fill="#2bade4"/><path d="M379.8,28.05l-1-2.55-1,2.55m24.77-1a1.43,1.43,0,0,1-.74.13h-1.83V25.75h1.85a1.61,1.61,0,0,1,.72.11.6.6,0,0,1,.31.57.66.66,0,0,1-.31.61m13.06,1-1.05-2.55-1,2.55Zm-24.34,2.76h-1.54v-5l-2.18,5h-1.33l-2.18-5v5h-3.07l-.58-1.43h-3.13l-.59,1.43H375l2.69-6.39h2.24l2.56,6v-6h2.46l2,4.33,1.81-4.33h2.51v6.39Zm6.16,0h-5V24.42h5v1.33h-3.53V26.9h3.44v1.31h-3.44v1.27h3.53v1.33Zm7.09-4.67a1.79,1.79,0,0,1-1.06,1.7,1.8,1.8,0,0,1,.75.54,1.87,1.87,0,0,1,.25,1.17v1.26H402.9V30a1.92,1.92,0,0,0-.24-1.25c-.22-.22-.55-.27-1.1-.27h-1.61v2.33h-1.51V24.42h3.47a3.55,3.55,0,0,1,1.82.3,1.5,1.5,0,0,1,.76,1.42m2.41,4.67h-1.53V24.42h1.53Zm17.83,0h-2.13L419.73,26v4.8h-3.06l-.59-1.43H413l-.57,1.43h-1.76a3.14,3.14,0,0,1-2.18-.71,3.24,3.24,0,0,1-.81-2.44,3.43,3.43,0,0,1,.81-2.5,3,3,0,0,1,2.29-.74h1.46v1.37h-1.43a1.43,1.43,0,0,0-1.16.38,2.09,2.09,0,0,0-.43,1.44,2.22,2.22,0,0,0,.41,1.5,1.42,1.42,0,0,0,1.05.33h.68l2.12-5h2.26l2.55,6v-6h2.29l2.65,4.45V24.42h1.54v6.39ZM375,32.06h2.57l.58-1.42h1.3l.58,1.42h5.06V31l.46,1.09h2.62L388.6,31v1.1h12.58V29.73h.24c.17,0,.22,0,.22.31v2h6.51v-.54a5.15,5.15,0,0,0,2.42.54h2.73l.59-1.42h1.3l.57,1.42H421V30.71l.8,1.35h4.23V23.15h-4.19V24.2l-.58-1.05H417V24.2l-.53-1.05h-5.81a5.17,5.17,0,0,0-2.51.52v-.52h-4v.52a2.49,2.49,0,0,0-1.7-.52H387.82l-1,2.3-1-2.3h-4.6V24.2l-.51-1.05h-3.93L375,27.39l-2.09,4.67Z" fill="#2e78bd"/><path d="M379.8,28.57l-1-2.55-1,2.55m24.77-1a1.33,1.33,0,0,1-.74.13h-1.83V26.27h1.85a1.61,1.61,0,0,1,.72.11.61.61,0,0,1,.31.57.66.66,0,0,1-.31.61m13.06,1L414.52,26l-1,2.55Zm-24.34,2.76h-1.54v-5l-2.18,5h-1.33l-2.18-5v5h-3.07l-.58-1.43h-3.13l-.59,1.43H375l2.69-6.39h2.24l2.56,6v-6h2.46l2,4.33,1.81-4.33h2.51v6.39Zm6.16,0h-5V24.94h5v1.33h-3.53v1.15h3.44v1.31h-3.44V30h3.53v1.32Zm7.09-4.67a1.78,1.78,0,0,1-1.06,1.7,1.8,1.8,0,0,1,.75.54,1.87,1.87,0,0,1,.25,1.17v1.26H402.9v-.81a1.89,1.89,0,0,0-.24-1.24c-.22-.23-.55-.28-1.1-.28h-1.61v2.33h-1.51V24.94h3.47a3.55,3.55,0,0,1,1.82.3,1.5,1.5,0,0,1,.76,1.42m2.41,4.67h-1.53V24.94h1.53Zm17.83,0h-2.13l-2.86-4.8v4.8h-3.06l-.59-1.43H413l-.57,1.43h-1.76a3.14,3.14,0,0,1-2.18-.71,3.24,3.24,0,0,1-.81-2.44,3.4,3.4,0,0,1,.81-2.49,3,3,0,0,1,2.29-.75h1.46v1.37h-1.43a1.43,1.43,0,0,0-1.16.38,2.12,2.12,0,0,0-.43,1.45,2.26,2.26,0,0,0,.41,1.5,1.46,1.46,0,0,0,1.05.33h.68l2.12-5h2.26l2.55,6v-6h2.29l2.65,4.45V24.94h1.54v6.39ZM375,32.58h2.57l.58-1.42h1.3l.58,1.42h5.06V31.5l.46,1.09h2.62l.46-1.11v1.1h12.58V30.25h.24c.17,0,.22,0,.22.31v2h6.51V32a5,5,0,0,0,2.42.54h2.73l.59-1.42h1.3l.57,1.42H421V31.24l.8,1.34h4.23V23.67h-4.19v1.06l-.58-1.06H417v1.06l-.53-1.06h-5.81a5.17,5.17,0,0,0-2.51.52v-.52h-4v.52a2.49,2.49,0,0,0-1.7-.52H387.82l-1,2.3-1-2.3h-4.6v1.06l-.51-1.06h-3.93L375,27.91l-2.09,4.67Z" fill="#fff"/><path d="M429.45,38.09V34h-3.78a3.07,3.07,0,0,0-1.88.52V34h-4.13a2.81,2.81,0,0,0-1.8.52V34h-7.37v.52a3.83,3.83,0,0,0-2-.52H403.6v.52a3.35,3.35,0,0,0-2.12-.52H396l-1.25,1.36L393.63,34H385.5v8.91h8l1.29-1.39,1.2,1.39h4.92v-2.1h.48a5,5,0,0,0,2.1-.31v2.41h4.05V40.58h.2c.25,0,.27,0,.27.27v2.06h12.31a3.53,3.53,0,0,0,2-.57v.57h3.91a5.1,5.1,0,0,0,2.21-.42h0a3.23,3.23,0,0,0,1-4.4Zm-28,1.42h-1.88v2.14h-2.93l-1.86-2.11-1.92,2.11h-6V35.27h6.06l1.85,2.09,1.92-2.09h4.81c1.2,0,2.54.33,2.54,2.1S402.75,39.51,401.43,39.51Zm9.07-.29a1.92,1.92,0,0,1,.25,1.17v1.26h-1.51v-.8A1.92,1.92,0,0,0,409,39.6a1.47,1.47,0,0,0-1.1-.28h-1.61v2.33h-1.52V35.27h3.48a3.64,3.64,0,0,1,1.81.3,1.5,1.5,0,0,1,.78,1.42,1.79,1.79,0,0,1-1.07,1.7A1.63,1.63,0,0,1,410.5,39.22Zm6.19-2.63h-3.52v1.16h3.44v1.3h-3.44v1.27h3.52v1.32h-5V35.27h5v1.32Zm3.84,5.06H417.6V40.28h2.92a.84.84,0,0,0,.62-.16.58.58,0,0,0,0-.83.78.78,0,0,0-.54-.14c-1.4,0-3.17,0-3.17-2a1.88,1.88,0,0,1,2.15-1.9h3v1.36h-2.77a1,1,0,0,0-.6.11.54.54,0,0,0,.1.94,1.9,1.9,0,0,0,.59.07l.81,0a2.4,2.4,0,0,1,1.72.52,1.74,1.74,0,0,1,.45,1.35C422.9,41,422.05,41.65,420.53,41.65Zm7.76-.61a2.58,2.58,0,0,1-1.87.61H423.5V40.28h2.9a.8.8,0,0,0,.61-.16.53.53,0,0,0,.18-.41.52.52,0,0,0-.18-.42.75.75,0,0,0-.53-.14c-1.42,0-3.18,0-3.18-2a1.89,1.89,0,0,1,2.16-1.9h2.94v1.36h-2.68a1.06,1.06,0,0,0-.61.11.5.5,0,0,0-.22.46.49.49,0,0,0,.33.48,1.87,1.87,0,0,0,.58.07l.81,0a2.34,2.34,0,0,1,1.71.52.66.66,0,0,1,.14.15l0-.06a2.09,2.09,0,0,1,.42,1.25A2.13,2.13,0,0,1,428.29,41Zm-36.14-4.45,1.64,1.86-1.72,1.87h-3.7V39.05h3.31v-1.3h-3.31V36.59Zm3.58,1.88L398.05,36v5.12Zm6.71-1.1c0,.56-.36.84-.94.84h-1.95V36.59h2C402.06,36.59,402.44,36.81,402.44,37.37Zm6.72-.09a.68.68,0,0,1-.31.61,1.43,1.43,0,0,1-.74.13h-1.84V36.59h1.86a1.58,1.58,0,0,1,.72.11A.61.61,0,0,1,409.16,37.28Z" fill="#2e78bd"/><path d="M429.45,38.61V34.52h-3.78a3.07,3.07,0,0,0-1.88.52v-.52h-4.13a2.81,2.81,0,0,0-1.8.52v-.52h-7.37V35a3.83,3.83,0,0,0-2-.52H403.6V35a3.41,3.41,0,0,0-2.12-.52H396l-1.25,1.36-1.16-1.36H385.5v8.91h8L394.76,42l1.2,1.39h4.92V41.34h.48a5,5,0,0,0,2.1-.32v2.41h4.05V41.1h.2c.25,0,.27,0,.27.27v2.06h12.31a3.53,3.53,0,0,0,2-.57v.57h3.91a5.25,5.25,0,0,0,2.21-.41h0a3.23,3.23,0,0,0,1-4.4Zm-28,1.42h-1.88v2.14h-2.93l-1.86-2.11-1.92,2.11h-6V35.79h6.06l1.85,2.09,1.92-2.09h4.81c1.2,0,2.54.33,2.54,2.1S402.75,40,401.43,40Zm9.07-.29a2,2,0,0,1,.25,1.17v1.27h-1.51v-.8c0-.39,0-1-.25-1.25a1.43,1.43,0,0,0-1.1-.29h-1.61v2.34h-1.52V35.79h3.48a3.64,3.64,0,0,1,1.81.3,1.5,1.5,0,0,1,.78,1.42,1.79,1.79,0,0,1-1.07,1.7A1.63,1.63,0,0,1,410.5,39.74Zm6.19-2.63h-3.52v1.16h3.44v1.3h-3.44v1.28h3.52v1.33h-5V35.79h5v1.32Zm3.84,5.07H417.6V40.81h2.92a.89.89,0,0,0,.62-.16.6.6,0,0,0,.17-.42.57.57,0,0,0-.18-.42.78.78,0,0,0-.54-.14c-1.4-.05-3.17,0-3.17-2a1.88,1.88,0,0,1,2.15-1.9h3v1.36h-2.77a1,1,0,0,0-.6.11.54.54,0,0,0,.1.94,1.9,1.9,0,0,0,.59.07l.81,0a2.4,2.4,0,0,1,1.72.52,1.74,1.74,0,0,1,.45,1.35C422.9,41.53,422.05,42.18,420.53,42.18Zm7.76-.62a2.54,2.54,0,0,1-1.87.62H423.5V40.81h2.9a.84.84,0,0,0,.61-.16.56.56,0,0,0,.18-.42.53.53,0,0,0-.18-.42.75.75,0,0,0-.53-.14c-1.42-.05-3.18,0-3.18-2a1.89,1.89,0,0,1,2.16-1.9h2.94v1.36h-2.68a1.06,1.06,0,0,0-.61.11.51.51,0,0,0-.22.46.48.48,0,0,0,.33.48,1.87,1.87,0,0,0,.58.07l.81,0a2.34,2.34,0,0,1,1.71.52.7.7,0,0,1,.14.16.18.18,0,0,0,0-.07,2.09,2.09,0,0,1-.12,2.66Zm-36.14-4.45L393.79,39l-1.72,1.87h-3.7V39.57h3.31v-1.3h-3.31V37.11ZM395.73,39l2.32-2.52v5.12Zm6.71-1.1c0,.56-.36.85-.94.85h-1.95V37.11h2C402.06,37.11,402.44,37.33,402.44,37.89Zm6.72-.09a.68.68,0,0,1-.31.61,1.42,1.42,0,0,1-.74.14h-1.84V37.11h1.86a1.46,1.46,0,0,1,.72.12A.59.59,0,0,1,409.16,37.8Z" fill="#fff"/><circle cx="121.37" cy="37.69" r="33.05" fill="#f5e119"/><path d="M97.62,33.18a2.67,2.67,0,0,1,1-.19,2.28,2.28,0,0,1,1.67.63,2.75,2.75,0,0,1,.76,1.75,4.8,4.8,0,0,1-.16,1.69,4.56,4.56,0,0,1-.63,1.56,3.45,3.45,0,0,1-2.65,1.7v-1a4,4,0,0,0,.52-.21,2.54,2.54,0,0,0,.86-.94,5.87,5.87,0,0,0,.55-1.36,4.56,4.56,0,0,0,.12-1.4,1.88,1.88,0,0,0-.46-1.12,1.46,1.46,0,0,0-1.07-.42,1.42,1.42,0,0,0-.52.08ZM93,42.82l1.8-7.9c.06-.31.11-.6.16-.91s.05-.6.08-.91h1.25l-.11,1.07a4.36,4.36,0,0,1,1.18-.89.82.82,0,0,1,.26-.1v.73a2.12,2.12,0,0,0-.55.26,2.57,2.57,0,0,0-.84,1,5.75,5.75,0,0,0-.54,1.45A4.61,4.61,0,0,0,95.56,38,1.45,1.45,0,0,0,96,39a1.49,1.49,0,0,0,1,.36,2.35,2.35,0,0,0,.6-.08v1h-.24a2.49,2.49,0,0,1-2.16-1.12l-.83,3.62H93Z" fill="#0c57a2"/><path d="M131.05,34.22a3.12,3.12,0,0,0-.44.05v-1l.18-.08a2.6,2.6,0,0,1,1.22-.26,2.17,2.17,0,0,1,1.62.6,2.59,2.59,0,0,1,.68,1.72,5.2,5.2,0,0,1-.81,3.57,3,3,0,0,1-2.63,1.48l-.26,0V38.91a1.06,1.06,0,0,0,.44-.21,2.11,2.11,0,0,0,.6-.81,6.2,6.2,0,0,0,.44-1.3,4.11,4.11,0,0,0,.11-1.2,1.34,1.34,0,0,0-.34-.86A1.08,1.08,0,0,0,131.05,34.22Zm-.44.05a2,2,0,0,0-1.07,1,3.75,3.75,0,0,0-.5,2.34,1.76,1.76,0,0,0,.39,1,1.12,1.12,0,0,0,.86.36,1.19,1.19,0,0,0,.32-.05v1.35a2.48,2.48,0,0,1-1-.28,2.06,2.06,0,0,1-.86-.89l-.83,3.73h-2.17l1.67-7.56c.21-1,.34-1.69.39-2.16h2l-.06.86a5.69,5.69,0,0,1,.92-.71v1Z" fill="#0c57a2"/><path d="M139.18,36.8a.29.29,0,0,0-.16,0h-.23a3.15,3.15,0,0,0-.91.11V35.73c.28,0,.62,0,1,0h.6a3.87,3.87,0,0,0,.1-.6,1.42,1.42,0,0,0,0-.34.61.61,0,0,0-.26-.47.93.93,0,0,0-.6-.16,1.06,1.06,0,0,0-.7.21s-.11.08-.13.16V33.05a3.78,3.78,0,0,1,.83-.06,3.84,3.84,0,0,1,2.09.45,1.69,1.69,0,0,1,.78,1.35,1.88,1.88,0,0,1,0,.58c0,.18-.08.41-.13.65l-.55,2.4c-.08.28-.1.57-.16.88s0,.6,0,.91h-2v-.49c0-.18,0-.34,0-.52a2.66,2.66,0,0,1-.88.81v-1.1a1.94,1.94,0,0,0,.62-.49A3.37,3.37,0,0,0,139.18,36.8Zm-1.3.08a2.05,2.05,0,0,0-.73.34,1.07,1.07,0,0,0-.58,1.07.66.66,0,0,0,.24.54.74.74,0,0,0,.55.19,1.16,1.16,0,0,0,.52-.11V40l-.06,0a2.22,2.22,0,0,1-1.14.29,2.2,2.2,0,0,1-1.51-.52,1.92,1.92,0,0,1-.65-1.36,2,2,0,0,1,1-2,5,5,0,0,1,2.37-.68v1.15Zm0-3.83v1.46a1.24,1.24,0,0,0-.21.52h-2.06a2,2,0,0,1,.89-1.51A3.37,3.37,0,0,1,137.88,33.05Z" fill="#0c57a2"/><polygon points="141.94 42.79 143.66 40.19 142.41 33.05 144.55 33.05 145.15 37.95 147.91 33.05 149.94 33.05 145.51 40.47 144.24 42.79 141.94 42.79" fill="#0c57a2"/><path d="M105.15,33.78a1.81,1.81,0,0,0-.52.07v-.91c.2,0,.44,0,.67,0a3,3,0,0,1,2,.6,2.32,2.32,0,0,1,.86,1.71,5,5,0,0,1-.18,1.85,5.37,5.37,0,0,1-.7,1.7A3.07,3.07,0,0,1,106,40a3.87,3.87,0,0,1-1.33.34v-.91a2.06,2.06,0,0,0,.57-.23,2.5,2.5,0,0,0,.81-.86,6,6,0,0,0,.73-2.95,1.77,1.77,0,0,0-.47-1.17A1.51,1.51,0,0,0,105.15,33.78Zm-.52.07a2.85,2.85,0,0,0-.58.24,3,3,0,0,0-.83,1,4.92,4.92,0,0,0-.55,1.44,5.39,5.39,0,0,0-.13,1.48,1.47,1.47,0,0,0,1.59,1.46,3.68,3.68,0,0,0,.5,0v.91c-.19,0-.39,0-.6,0a2.93,2.93,0,0,1-2-.65,2.38,2.38,0,0,1-.86-1.78,5,5,0,0,1,.21-1.92,5,5,0,0,1,.81-1.75,3.14,3.14,0,0,1,1.28-1,5.41,5.41,0,0,1,1.17-.29v.91Z" fill="#0c57a2"/><path d="M109.58,37.87a.93.93,0,0,0-.08.34.39.39,0,0,0,0,.26.77.77,0,0,0,.34.62,1.44,1.44,0,0,0,.91.21A2.27,2.27,0,0,0,112,39a1,1,0,0,0,.42-.86.74.74,0,0,0-.29-.55A5.3,5.3,0,0,0,111,37,5.71,5.71,0,0,1,109.5,36a1.38,1.38,0,0,1-.5-1,1.75,1.75,0,0,1,.68-1.54,3.45,3.45,0,0,1,2.11-.6,3.51,3.51,0,0,1,1.8.37,1.26,1.26,0,0,1,.68,1.07v.26a2.27,2.27,0,0,1,0,.39H113v-.39a.76.76,0,0,0-.34-.6,1.49,1.49,0,0,0-.86-.21,1.61,1.61,0,0,0-1,.29.79.79,0,0,0-.34.75.73.73,0,0,0,.29.5,5.76,5.76,0,0,0,1.15.65,6,6,0,0,1,1.64,1,1.68,1.68,0,0,1,.42,1,1.8,1.8,0,0,1-.84,1.67,4,4,0,0,1-2.4.67,3.76,3.76,0,0,1-1.85-.41,1.56,1.56,0,0,1-.73-1.2,1.27,1.27,0,0,1,0-.39c0-.13.06-.29.08-.45h1.41Z" fill="#0c57a2"/><path d="M118.15,40.21l-.7.08c-.21,0-.42,0-.6,0a2,2,0,0,1-1.15-.26,1,1,0,0,1-.41-.84,3,3,0,0,1,0-.65c0-.31.11-.62.16-1l.81-3.55H115l.24-.91h1.27l.37-1.62,1.38-.34-.42,2h1.54l-.21.91h-1.53l-.79,3.7a3.66,3.66,0,0,0-.13.63.83.83,0,0,0,0,.34.42.42,0,0,0,.21.41,1.06,1.06,0,0,0,.67.16c.11,0,.26,0,.42,0a2.07,2.07,0,0,0,.42-.08Z" fill="#0c57a2"/><path d="M122.66,35.84h1.77a5,5,0,0,0,0-.55.65.65,0,0,0,0-.34,1.17,1.17,0,0,0-.44-.89,1.84,1.84,0,0,0-1.12-.34l-.26,0v-.86h.28a3.56,3.56,0,0,1,2.09.52,2.17,2.17,0,0,1,.78,1.64,3.93,3.93,0,0,1,0,.84,3.77,3.77,0,0,1-.13.91h-3v-1Zm0,4.43V39.2a2.56,2.56,0,0,0,.44-.21,1.75,1.75,0,0,0,.68-.91h1.54a2.74,2.74,0,0,1-1.18,1.64A3.46,3.46,0,0,1,122.66,40.27Zm-1.82-4.43h1.82v1H120.6a2.58,2.58,0,0,0-.13.6,4.7,4.7,0,0,0,0,.52,1.53,1.53,0,0,0,.47,1,1.73,1.73,0,0,0,1.14.36,1.49,1.49,0,0,0,.6-.1v1.07c-.23,0-.49,0-.76,0a3.12,3.12,0,0,1-2-.6,2.37,2.37,0,0,1-.8-1.7,5.28,5.28,0,0,1,.18-1.87,6.67,6.67,0,0,1,.7-1.77,3.17,3.17,0,0,1,1.23-1.1,3.56,3.56,0,0,1,1.43-.39v.86a1.68,1.68,0,0,0-1.07.52A2.79,2.79,0,0,0,120.84,35.84Z" fill="#0c57a2"/><circle cx="493.1" cy="33.05" r="33.05" fill="#3d81ae"/><path d="M482.3,17a15.22,15.22,0,1,0,10.31,26.47h0a17,17,0,0,0,1.54-1.63h-3.11a14.24,14.24,0,0,1-1.14-1.57h5.37a16,16,0,0,0,.89-1.63H489a15.69,15.69,0,0,1-.64-1.6h8.41a15.35,15.35,0,0,0,.43-8.09H488a14.33,14.33,0,0,1,.43-1.59h8.41a16.77,16.77,0,0,0-.65-1.63H489a13.73,13.73,0,0,1,.87-1.6h5.36a13.52,13.52,0,0,0-1.18-1.63h-3A14.83,14.83,0,0,1,492.62,21a15.14,15.14,0,0,0-10.22-4Z" fill="#931c1e"/><path d="M518,32.23a15.19,15.19,0,1,1-30.38,0h0a15.19,15.19,0,1,1,30.38,0Z" fill="#ec6725"/><path d="M518,32.4a15.19,15.19,0,1,1-30.38,0h0a15.19,15.19,0,1,1,30.38,0Z" fill="#f49823"/><path d="M482.3,17.18a15.22,15.22,0,0,0,.1,30.44,15,15,0,0,0,10.21-4h0A15.86,15.86,0,0,0,494.16,42h-3.11a14.13,14.13,0,0,1-1.14-1.56h5.37a16.17,16.17,0,0,0,.89-1.64H489a15.52,15.52,0,0,1-.64-1.59h8.41a15.35,15.35,0,0,0,.43-8.09H488a14.5,14.5,0,0,1,.43-1.6h8.41c-.19-.56-.41-1.1-.65-1.63H489a14.59,14.59,0,0,1,.87-1.6h5.36a14.36,14.36,0,0,0-1.18-1.63h-3a15.88,15.88,0,0,1,1.53-1.54,15.13,15.13,0,0,0-10.22-4Z" fill="#cb2326"/><path d="M487.86,36.28l.2-1.38c-.11,0-.27.05-.42.05-.56,0-.62-.3-.58-.53l.45-2.81h.85l.21-1.52h-.8l.16-.95h-1.62s-.95,5.33-.95,6a1.2,1.2,0,0,0,1.28,1.37A4.59,4.59,0,0,0,487.86,36.28Z" fill="#fff"/><path d="M488.37,33.65a2.54,2.54,0,0,0,2.79,2.83,4.18,4.18,0,0,0,1.71-.26l.29-1.57a5.07,5.07,0,0,1-1.72.4c-1.74,0-1.43-1.29-1.43-1.29h3.28a11.28,11.28,0,0,0,.22-1.48,2.18,2.18,0,0,0-2.31-2.37C489.57,29.91,488.37,31.66,488.37,33.65Zm2.84-2.29c.91,0,.74,1,.74,1.11h-1.79C490.15,32.36,490.32,31.36,491.21,31.36Z" fill="#fff"/><path d="M501.45,36.28l.29-1.77a3.93,3.93,0,0,1-1.34.4,1.6,1.6,0,0,1-1.61-1.82c0-1.92,1-3,2.09-3a2.88,2.88,0,0,1,1.48.46l.27-1.71a5.77,5.77,0,0,0-1.83-.4c-1.86,0-3.68,1.62-3.68,4.67,0,2,1,3.36,2.91,3.36A7.53,7.53,0,0,0,501.45,36.28Z" fill="#fff"/><path d="M479,29.93a5.52,5.52,0,0,0-1.95.36l-.24,1.4a5,5,0,0,1,1.76-.29c.61,0,1.05.07,1.05.56a1,1,0,0,1-.06.41s-.47,0-.69,0c-1.4,0-2.87.59-2.87,2.4a1.53,1.53,0,0,0,1.56,1.74,2.13,2.13,0,0,0,1.66-.74l-.05.62h1.42l.64-4.46A1.92,1.92,0,0,0,479,29.93Zm.35,3.64c0,.27-.17,1.55-1.14,1.55a.6.6,0,0,1-.64-.62c0-.44.24-1,1.43-1A.94.94,0,0,1,479.31,33.57Z" fill="#fff"/><path d="M482.7,36.44c.36,0,2.44.1,2.44-2.06s-1.92-1.61-1.92-2.42c0-.4.31-.53.89-.53.22,0,1.1.07,1.1.07l.21-1.43a7.43,7.43,0,0,0-1.5-.13c-1.19,0-2.41.48-2.41,2.12,0,1.86,2,1.67,2,2.45,0,.52-.57.57-1,.57a5.08,5.08,0,0,1-1.44-.25l-.21,1.41A4.75,4.75,0,0,0,482.7,36.44Z" fill="#fff"/><path d="M514.84,28.65l-.35,2.17a2.14,2.14,0,0,0-1.56-.84c-1.48,0-2.72,1.79-2.72,3.84,0,1.33.66,2.63,2,2.63a2,2,0,0,0,1.5-.67l-.07.57h1.58l1.23-7.7Zm-.75,4.23c0,.86-.42,2-1.3,2-.58,0-.85-.49-.85-1.26,0-1.26.56-2.09,1.27-2.09S514.09,31.94,514.09,32.88Z" fill="#fff"/><path d="M470.21,36.36l1-5.82.15,5.82h1.11l2.08-5.82-.92,5.82h1.65l1.28-7.72H474l-1.59,4.74-.09-4.74h-2.36l-1.29,7.72Z" fill="#fff"/><path d="M495.12,36.37c.47-2.68.56-4.86,1.69-4.46a5.91,5.91,0,0,1,.6-1.88,1.84,1.84,0,0,0-.32,0c-.72,0-1.26,1-1.26,1l.15-.91h-1.51l-1,6.28Z" fill="#fff"/><path d="M505.18,29.93a5.54,5.54,0,0,0-2,.36l-.24,1.4a5.11,5.11,0,0,1,1.77-.29c.6,0,1,.07,1,.56a1.12,1.12,0,0,1-.05.41s-.48,0-.7,0c-1.4,0-2.87.59-2.87,2.4a1.53,1.53,0,0,0,1.56,1.74,2.08,2.08,0,0,0,1.66-.74l-.05.62h1.42l.64-4.46A1.92,1.92,0,0,0,505.18,29.93Zm.34,3.64c0,.27-.17,1.55-1.14,1.55a.59.59,0,0,1-.63-.62c0-.44.24-1,1.42-1A.84.84,0,0,1,505.52,33.57Z" fill="#fff"/><path d="M508.7,36.37c.47-2.68.56-4.86,1.68-4.46A6.49,6.49,0,0,1,511,30a1.77,1.77,0,0,0-.31,0c-.73,0-1.26,1-1.26,1l.14-.91h-1.5l-1,6.28Z" fill="#fff"/><circle cx="310.04" cy="35.73" r="33.05" fill="#f3f2f2"/><polygon points="321.46 52.51 322.29 52.49 323.09 52.43 323.88 52.33 324.67 52.19 325.43 52.02 326.19 51.8 326.93 51.55 327.65 51.27 328.35 50.95 329.03 50.6 329.7 50.22 330.34 49.8 330.97 49.36 331.57 48.89 332.14 48.39 332.69 47.86 333.22 47.31 333.72 46.73 334.19 46.13 334.64 45.51 335.05 44.87 335.43 44.2 335.78 43.52 336.1 42.81 336.38 42.09 336.63 41.35 336.85 40.6 337.02 39.83 337.17 39.05 337.26 38.25 337.33 37.45 337.35 36.63 337.33 35.82 337.26 35.01 337.17 34.22 337.02 33.45 336.85 32.68 336.63 31.93 336.38 31.2 336.1 30.48 335.78 29.78 335.43 29.1 335.05 28.43 334.64 27.79 334.19 27.17 333.72 26.57 333.22 26 332.69 25.45 332.14 24.92 331.57 24.42 330.97 23.95 330.34 23.51 329.7 23.1 329.03 22.72 328.35 22.36 327.65 22.05 326.93 21.76 326.19 21.52 325.43 21.3 324.67 21.13 323.88 20.98 323.09 20.89 322.29 20.82 321.46 20.8 320.65 20.82 319.84 20.89 319.05 20.98 318.26 21.13 317.5 21.3 316.74 21.52 316 21.76 315.29 22.05 314.58 22.36 313.9 22.72 313.24 23.1 312.59 23.51 311.97 23.95 311.37 24.42 310.79 24.92 310.25 25.45 309.72 26 309.22 26.57 308.75 27.17 308.31 27.79 307.9 28.43 307.52 29.1 307.17 29.78 306.85 30.48 306.57 31.2 306.32 31.93 306.11 32.68 305.93 33.45 305.79 34.22 305.69 35.01 305.63 35.82 305.61 36.63 305.63 37.45 305.69 38.25 305.79 39.05 305.93 39.83 306.11 40.6 306.32 41.35 306.57 42.09 306.85 42.81 307.17 43.52 307.52 44.2 307.9 44.87 308.31 45.51 308.75 46.13 309.22 46.73 309.72 47.31 310.25 47.86 310.79 48.39 311.37 48.89 311.97 49.36 312.59 49.8 313.24 50.22 313.9 50.6 314.58 50.95 315.29 51.27 316 51.55 316.74 51.8 317.5 52.02 318.26 52.19 319.05 52.33 319.84 52.43 320.65 52.49 321.46 52.51" fill="#0f83c3"/><polygon points="300.43 52.51 301.25 52.49 302.06 52.43 302.85 52.33 303.63 52.19 304.4 52.02 305.15 51.8 305.89 51.55 306.61 51.27 307.31 50.95 307.99 50.6 308.66 50.22 309.3 49.8 309.92 49.36 310.52 48.89 311.1 48.39 311.65 47.86 312.17 47.31 312.67 46.73 313.14 46.13 313.58 45.51 314 44.87 314.38 44.2 314.73 43.52 315.04 42.81 315.32 42.09 315.57 41.35 315.79 40.6 315.96 39.83 316.1 39.05 316.2 38.25 316.27 37.45 316.29 36.63 316.27 35.82 316.2 35.01 316.1 34.22 315.96 33.45 315.79 32.68 315.57 31.93 315.32 31.2 315.04 30.48 314.73 29.78 314.38 29.1 314 28.43 313.58 27.79 313.14 27.17 312.67 26.57 312.17 26 311.65 25.45 311.1 24.92 310.52 24.42 309.92 23.95 309.3 23.51 308.66 23.1 307.99 22.72 307.31 22.36 306.61 22.05 305.89 21.76 305.15 21.52 304.4 21.3 303.63 21.13 302.85 20.98 302.06 20.89 301.25 20.82 300.43 20.8 299.61 20.82 298.81 20.89 298.01 20.98 297.23 21.13 296.46 21.3 295.7 21.52 294.97 21.76 294.24 22.05 293.54 22.36 292.86 22.72 292.19 23.1 291.55 23.51 290.93 23.95 290.32 24.42 289.75 24.92 289.2 25.45 288.67 26 288.17 26.57 287.7 27.17 287.26 27.79 286.84 28.43 286.46 29.1 286.11 29.78 285.79 30.48 285.51 31.2 285.26 31.93 285.04 32.68 284.87 33.45 284.73 34.22 284.63 35.01 284.56 35.82 284.54 36.63 284.56 37.45 284.63 38.25 284.73 39.05 284.87 39.83 285.04 40.6 285.26 41.35 285.51 42.09 285.79 42.81 286.11 43.52 286.46 44.2 286.84 44.87 287.26 45.51 287.7 46.13 288.17 46.73 288.67 47.31 289.2 47.86 289.75 48.39 290.32 48.89 290.93 49.36 291.55 49.8 292.19 50.22 292.86 50.6 293.54 50.95 294.24 51.27 294.97 51.55 295.7 51.8 296.46 52.02 297.23 52.19 298.01 52.33 298.81 52.43 299.61 52.49 300.43 52.51" fill="#31559a"/><polygon points="308.99 26.84 317.03 26.84 317.03 25.95 309.77 25.95 308.99 26.84" fill="#0f83c3"/><polygon points="307.73 28.72 317.03 28.72 317.03 27.83 308.29 27.83 307.73 28.72" fill="#0f83c3"/><polygon points="306.79 30.62 317.03 30.62 317.03 29.74 307.22 29.74 306.79 30.62" fill="#0f83c3"/><polygon points="306.17 32.5 317.03 32.5 317.03 31.62 306.44 31.62 306.17 32.5" fill="#0f83c3"/><polygon points="305.77 34.38 317.03 34.38 317.03 33.49 305.93 33.49 305.77 34.38" fill="#0f83c3"/><polygon points="305.61 36.26 317.03 36.26 317.03 35.37 305.66 35.37 305.61 36.26" fill="#0f83c3"/><polygon points="305.69 38.13 317.03 38.13 317.03 37.25 305.61 37.25 305.69 38.13" fill="#0f83c3"/><polygon points="305.96 40.01 317.03 40.01 317.03 39.13 305.8 39.13 305.96 40.01" fill="#0f83c3"/><polygon points="306.49 41.89 317.03 41.89 317.03 41.01 306.22 41.01 306.49 41.89" fill="#0f83c3"/><polygon points="307.3 43.77 317.03 43.77 317.03 42.88 306.87 42.88 307.3 43.77" fill="#0f83c3"/><polygon points="308.43 45.67 317.03 45.67 317.03 44.76 307.83 44.76 308.43 45.67" fill="#0f83c3"/><polygon points="309.96 47.55 317.03 47.55 317.03 46.67 309.18 46.67 309.96 47.55" fill="#0f83c3"/><polygon points="333.47 41.11 333.47 41.09 333.49 41.02 333.52 40.95 333.55 40.88 333.59 40.82 333.63 40.76 333.69 40.71 333.74 40.66 333.8 40.62 333.87 40.58 333.93 40.55 334 40.53 334.08 40.51 334.16 40.5 334.24 40.49 334.31 40.5 334.38 40.51 334.45 40.53 334.52 40.55 334.59 40.58 334.65 40.62 334.71 40.66 334.76 40.71 334.81 40.76 334.86 40.82 334.89 40.88 334.93 40.95 334.95 41.02 334.97 41.09 334.98 41.11 334.84 41.11 334.8 41 334.74 40.9 334.67 40.81 334.57 40.73 334.47 40.68 334.36 40.64 334.24 40.63 334.17 40.63 334.11 40.64 334.05 40.66 333.99 40.68 333.93 40.7 333.88 40.73 333.83 40.77 333.79 40.81 333.74 40.85 333.7 40.9 333.67 40.95 333.64 41 333.62 41.06 333.61 41.11 333.47 41.11" fill="#fff"/><polygon points="333.94 41.11 333.94 40.9 334.26 40.9 334.33 40.9 334.38 40.91 334.43 40.93 334.47 40.95 334.5 40.98 334.51 41.02 334.53 41.06 334.53 41.11 334.42 41.11 334.42 41.08 334.42 41.06 334.4 41.04 334.38 41.02 334.36 41.01 334.33 41.01 334.3 41.01 334.27 41.01 334.24 41.01 334.07 41.01 334.07 41.11 333.94 41.11" fill="#fff"/><polygon points="333.46 41.23 333.46 41.17 333.47 41.11 333.61 41.11 333.6 41.12 333.6 41.18 333.59 41.23 333.46 41.23" fill="#fff"/><polygon points="333.94 41.23 333.94 41.11 334.07 41.11 334.07 41.22 334.21 41.22 334.26 41.22 334.3 41.21 334.34 41.2 334.37 41.19 334.39 41.17 334.41 41.15 334.42 41.12 334.42 41.11 334.53 41.11 334.53 41.11 334.53 41.15 334.51 41.18 334.5 41.21 334.48 41.23 333.94 41.23" fill="#fff"/><polygon points="334.85 41.23 334.84 41.12 334.84 41.11 334.98 41.11 334.99 41.17 334.99 41.23 334.85 41.23" fill="#fff"/><polygon points="333.46 41.23 333.46 41.25 333.46 41.33 333.47 41.41 333.49 41.49 333.52 41.56 333.55 41.63 333.59 41.69 333.63 41.75 333.69 41.8 333.74 41.85 333.8 41.9 333.87 41.94 333.93 41.97 334 41.99 334.08 42.01 334.16 42.02 334.24 42.02 334.31 42.02 334.38 42.01 334.45 41.99 334.52 41.97 334.59 41.94 334.65 41.9 334.71 41.85 334.76 41.8 334.81 41.75 334.86 41.69 334.89 41.63 334.93 41.56 334.95 41.49 334.97 41.41 334.99 41.33 334.99 41.25 334.99 41.23 334.85 41.23 334.85 41.25 334.84 41.38 334.8 41.5 334.74 41.61 334.67 41.71 334.57 41.78 334.47 41.84 334.36 41.88 334.24 41.89 334.17 41.88 334.11 41.88 334.05 41.86 333.99 41.84 333.93 41.82 333.88 41.78 333.83 41.75 333.79 41.71 333.74 41.66 333.7 41.61 333.67 41.56 333.64 41.5 333.62 41.44 333.6 41.38 333.6 41.31 333.59 41.25 333.59 41.23 333.46 41.23" fill="#fff"/><polygon points="333.94 41.23 333.94 41.57 334.07 41.57 334.07 41.3 334.21 41.3 334.37 41.57 334.51 41.57 334.34 41.3 334.38 41.28 334.42 41.27 334.45 41.25 334.48 41.23 334.48 41.23 333.94 41.23" fill="#fff"/><path d="M334.24,42.08h-.08L334,42l-.07,0-.08,0-.13-.09-.06,0-.1-.12-.08-.14,0-.08,0-.09v-.34l0-.15.08-.14,0-.06.11-.11.07,0,.14-.07.08,0,.16,0h.16l.16,0,.07,0,.14.07.12.1.1.11.08.14,0,.16v.34l0,.16-.07.14-.11.12-.11.1-.07,0-.07,0-.08,0-.15,0Zm0-1.53h-.07l-.14,0-.07,0-.12.07-.11.08-.05,0-.07.11,0,.06,0,.14v.22l0,.15,0,.06.07.13.09.1.11.08.06,0,.06,0,.06,0,.15,0h.14l.13,0,.07,0,.06,0,.05,0,.11-.09.09-.1.06-.13,0-.13v-.23l0-.14,0-.07-.07-.11-.09-.1-.1-.09-.12-.06-.06,0-.14,0Z" fill="#fff"/><path d="M334.61,41.62h-.27l-.16-.27h-.05v.27h-.25v-.78h.51l.06,0,.06,0,0,0,0,0,0,.06v.15l-.06.08-.08,0Zm-.21-.11h0l-.15-.24.18-.08,0,0v-.08l0-.06h0l0,0-.08,0H334v.56h0v-.27h.22Z" fill="#fff"/><path d="M334.26,41.27H334V41h.37l.06,0,0,0v.14l0,0,0,0-.08,0Zm-.13-.11h.16l.06,0v0h-.24v.1Z" fill="#fff"/><path d="M334.24,41.94h-.14l-.13,0-.06,0-.11-.08-.1-.09,0-.05,0-.06,0-.06,0-.13,0-.15,0-.14,0-.13.06-.11.05,0,.09-.09.11-.08.13,0h.07l.13,0,.13,0,.13,0,.11.07.1.08.08.09.07.11,0,.13,0,.14v.15l0,.13-.06.12-.08.11-.1.08-.11.06-.13,0Zm0-1.26-.11,0-.12,0-.05,0-.09.06-.08.08,0,0-.06.1,0,.11v.23l0,.11.05.1.12.13.09.06.1,0h.29l.1,0,.09-.05.09-.07.07-.08.05-.1,0-.12v-.12l0-.12,0-.1-.06-.09-.07-.09-.08-.06-.1-.06-.1,0Z" fill="#fff"/><polygon points="332.98 34.46 332.85 34.45 332.73 34.44 332.62 34.43 332.51 34.41 332.4 34.4 332.29 34.38 332.18 34.36 332.06 34.34 331.93 34.33 331.79 34.31 331.64 34.31 331.47 34.3 331.29 34.3 331.09 34.3 330.86 34.31 330.61 34.33 330.44 34.35 330.26 34.39 330.11 34.44 329.98 34.5 329.85 34.57 329.75 34.64 329.66 34.73 329.58 34.82 329.53 34.92 329.49 35.02 329.48 35.13 329.48 35.24 329.5 35.35 329.55 35.46 329.61 35.58 329.7 35.7 329.79 35.78 329.88 35.86 329.98 35.93 330.09 35.99 330.21 36.05 330.33 36.11 330.46 36.15 330.6 36.21 330.74 36.25 330.88 36.3 331.02 36.34 331.16 36.39 331.31 36.44 331.45 36.5 331.59 36.56 331.73 36.62 331.87 36.69 332 36.77 332.12 36.85 332.25 36.95 332.36 37.06 332.46 37.17 332.56 37.31 332.65 37.45 332.73 37.6 332.79 37.78 332.85 37.96 332.88 38.17 332.91 38.39 332.92 38.63 332.92 38.89 332.89 39.18 332.87 39.39 332.83 39.58 332.78 39.77 332.72 39.95 332.65 40.12 332.58 40.28 332.5 40.43 332.4 40.57 332.3 40.7 332.2 40.82 332.08 40.94 331.97 41.05 331.84 41.15 331.71 41.24 331.58 41.33 331.44 41.4 331.3 41.47 331.16 41.54 331.01 41.6 330.86 41.65 330.72 41.7 330.56 41.74 330.41 41.78 330.26 41.81 330.11 41.84 329.96 41.86 329.81 41.88 329.66 41.89 329.51 41.9 329.36 41.91 329.22 41.91 329.09 41.91 328.89 41.91 328.71 41.91 328.54 41.91 328.37 41.91 328.21 41.91 328.06 41.9 327.92 41.9 327.78 41.9 327.64 41.89 327.51 41.88 327.4 41.88 327.28 41.87 327.17 41.85 327.06 41.85 326.96 41.84 326.87 41.82 326.77 41.81 326.68 41.8 326.6 41.78 326.51 41.77 326.43 41.75 326.35 41.74 326.27 41.72 326.2 41.7 326.12 41.68 326.05 41.66 325.97 41.64 325.9 41.62 325.83 41.59 325.75 41.57 325.68 41.54 325.6 41.52 326 39.55 326.04 39.56 326.08 39.58 326.13 39.6 326.18 39.61 326.24 39.63 326.3 39.65 326.37 39.67 326.44 39.69 326.52 39.71 326.61 39.73 326.7 39.75 326.79 39.77 326.88 39.79 326.98 39.8 327.08 39.83 327.19 39.84 327.3 39.86 327.41 39.88 327.52 39.9 327.64 39.91 327.76 39.92 327.88 39.94 328 39.95 328.13 39.96 328.25 39.96 328.38 39.97 328.51 39.97 328.64 39.98 328.77 39.98 328.9 39.97 329.03 39.96 329.16 39.96 329.3 39.94 329.41 39.92 329.52 39.89 329.61 39.85 329.69 39.8 329.77 39.75 329.83 39.7 329.89 39.64 329.94 39.58 329.98 39.51 330.02 39.44 330.05 39.37 330.07 39.3 330.09 39.23 330.11 39.16 330.13 39.1 330.15 38.96 330.14 38.84 330.11 38.73 330.06 38.62 330 38.53 329.91 38.44 329.81 38.36 329.69 38.29 329.56 38.22 329.42 38.16 329.27 38.09 329.11 38.03 328.95 37.97 328.78 37.9 328.61 37.83 328.44 37.76 328.26 37.69 328.09 37.6 327.92 37.51 327.76 37.42 327.6 37.31 327.45 37.19 327.31 37.06 327.18 36.91 327.06 36.76 326.96 36.59 326.87 36.4 326.8 36.19 326.75 35.96 326.72 35.72 326.71 35.45 326.72 35.16 326.74 34.98 326.77 34.8 326.8 34.64 326.83 34.48 326.87 34.32 326.92 34.17 326.97 34.03 327.03 33.89 327.09 33.76 327.16 33.63 327.24 33.51 327.32 33.39 327.41 33.28 327.51 33.18 327.61 33.08 327.73 32.98 327.85 32.9 327.98 32.81 328.12 32.74 328.26 32.67 328.42 32.6 328.58 32.54 328.75 32.49 328.93 32.44 329.13 32.4 329.33 32.36 329.54 32.33 329.76 32.3 329.99 32.28 330.23 32.27 330.48 32.27 330.75 32.26 330.91 32.26 331.07 32.26 331.23 32.27 331.37 32.27 331.51 32.27 331.64 32.28 331.77 32.28 331.89 32.28 332 32.29 332.11 32.3 332.21 32.3 332.31 32.31 332.4 32.32 332.48 32.33 332.56 32.34 332.64 32.35 332.71 32.36 332.79 32.36 332.85 32.37 332.91 32.38 332.97 32.39 333.02 32.4 333.07 32.41 333.12 32.42 333.17 32.43 333.21 32.43 333.25 32.44 333.29 32.45 333.33 32.45 333.36 32.46 333.4 32.47 333.43 32.47 332.98 34.46" fill="#fff"/><path d="M329.22,42l-1.45,0-1.09-.09-.65-.14-.5-.17v0l.42-2,.58.17.66.14.81.1.38,0h.51l.26,0,.24,0,.1,0,.09,0,.08,0,.13-.1.1-.12.07-.12,0-.14.06-.2v-.24l0-.1-.05-.09-.06-.09-.08-.08-.1-.08-.11-.06-.12-.07-.29-.13-1-.41-.18-.08-.17-.09-.17-.1-.16-.11-.15-.12-.15-.13-.13-.15-.12-.16-.1-.18-.1-.19-.07-.22-.05-.23,0-.25v-.57l0-.36.06-.33.09-.31.05-.14.13-.28.07-.13.16-.24.1-.12.2-.2.12-.1.12-.09.14-.09.29-.15.15-.06.17-.07.17,0,.18,0,.2,0,.42-.07.22,0,.23,0,.5,0h.59l1.42.07,1,.15,0,.06-.46,2-.41,0-.69-.11-.45,0h-.38l-.47,0-.18,0-.16,0-.15.05-.13,0-.12.07-.1.07-.09.08-.06.09-.05.09,0,.09,0,.1v.1l0,.1,0,.1.06.12.09.1.08.09.18.14.22.12.12,0,.4.14.57.19.29.12.15.06.13.08.26.16.13.1.12.11.11.12.1.14.09.14.08.16.07.18,0,.19,0,.21,0,.23v.51l0,.29,0,.21,0,.2,0,.19-.07.18-.06.17-.08.16-.09.16-.09.14-.1.14-.11.12-.12.12-.12.11-.12.11-.27.18-.28.15-.15.07-.15.06-.3.1-.15,0-.31.07-.3,0-.46,0Zm-.68-.11h1l.44,0,.3-.06.3-.06.3-.09.14-.05.15-.06.28-.14.13-.07.26-.18.12-.09.12-.11.11-.11.1-.12.1-.13.09-.14.08-.15.07-.15.07-.17.06-.18,0-.18,0-.19,0-.21,0-.28v-.5l0-.21,0-.21-.05-.18-.07-.17-.07-.15-.09-.14-.09-.12-.11-.12-.1-.1-.12-.09-.25-.16-.14-.07-.27-.12L331,36.4l-.69-.24-.25-.12L330,36l-.2-.16-.09-.09-.09-.12-.07-.12-.05-.12,0-.12V35l0-.11.06-.11.08-.1.1-.09.11-.08.13-.07.14-.06.15,0,.18,0,.18,0,.48,0h.39l.46,0,1,.13.43-1.88-.72-.12-.76-.06-1.13,0H330l-.23,0-.43.06-.2,0-.37.09-.17.05-.16.06-.29.14-.14.07-.12.08-.12.09-.11.09-.2.2-.09.11-.16.23-.06.12-.12.27,0,.14-.09.3-.06.32,0,.35,0,.29v.26l0,.24.05.22.07.21.09.18.1.17.11.15.13.14.13.13.15.11.16.11.16.09.16.09.35.16,1.13.46.13.07.12.07.1.09.1.09.07.1.06.11,0,.12v.28l-.06.22-.06.15-.08.14-.05.07-.06.06-.15.11-.09,0-.1,0-.11,0-.26,0-.39,0h-.39l-.75-.06-.77-.13-.64-.15-.19-.06-.38,1.85.63.19.59.1.52,0Z" fill="#fff"/><polygon points="298.12 33.09 298.07 33.06 298.01 33.03 297.95 33 297.89 32.97 297.83 32.94 297.76 32.91 297.7 32.88 297.63 32.85 297.56 32.82 297.49 32.8 297.42 32.77 297.35 32.74 297.27 32.71 297.2 32.69 297.12 32.66 297.04 32.64 296.96 32.62 296.88 32.59 296.79 32.57 296.7 32.55 296.61 32.54 296.52 32.52 296.43 32.51 296.33 32.49 296.24 32.48 296.14 32.47 296.03 32.46 295.93 32.45 295.82 32.45 295.72 32.45 295.61 32.45 295.5 32.45 295.38 32.45 295.27 32.45 295.16 32.45 295.04 32.47 294.93 32.48 294.8 32.49 294.68 32.51 294.56 32.54 294.44 32.57 294.32 32.61 294.19 32.65 294.07 32.7 293.94 32.76 293.82 32.83 293.7 32.9 293.58 32.99 293.46 33.08 293.35 33.18 293.23 33.3 293.12 33.42 293.01 33.56 292.9 33.71 292.8 33.87 292.69 34.05 292.59 34.23 292.5 34.43 292.41 34.65 292.32 34.88 292.25 35.13 292.17 35.39 292.1 35.67 292.03 35.96 291.97 36.27 291.93 36.57 291.92 36.87 291.92 37.17 291.95 37.45 292 37.73 292.08 38 292.19 38.25 292.32 38.5 292.47 38.72 292.65 38.92 292.86 39.11 293.1 39.27 293.37 39.41 293.66 39.52 293.99 39.61 294.04 39.62 294.11 39.63 294.17 39.64 294.24 39.65 294.32 39.66 294.4 39.67 294.49 39.67 294.58 39.68 294.67 39.69 294.77 39.69 294.87 39.69 294.98 39.69 295.08 39.69 295.19 39.69 295.3 39.68 295.41 39.67 295.53 39.66 295.64 39.64 295.75 39.62 295.86 39.6 295.98 39.57 296.09 39.54 296.2 39.51 296.31 39.47 296.42 39.42 296.52 39.37 296.62 39.32 296.72 39.26 296.82 39.19 296.91 39.12 296.99 39.05 297.08 38.96 296.67 41.33 296.65 41.34 296.62 41.37 296.6 41.39 296.56 41.41 296.53 41.44 296.49 41.47 296.46 41.49 296.41 41.52 296.37 41.55 296.31 41.58 296.26 41.61 296.2 41.65 296.13 41.68 296.06 41.7 295.98 41.73 295.89 41.76 295.8 41.79 295.7 41.82 295.59 41.84 295.47 41.86 295.34 41.88 295.21 41.9 295.06 41.91 294.9 41.93 294.74 41.94 294.56 41.95 294.37 41.95 294.17 41.95 293.96 41.95 293.73 41.94 293.49 41.93 293.24 41.91 293.04 41.9 292.84 41.88 292.63 41.84 292.43 41.79 292.23 41.73 292.02 41.66 291.83 41.58 291.63 41.49 291.43 41.39 291.24 41.27 291.05 41.15 290.87 41.01 290.69 40.87 290.52 40.71 290.36 40.54 290.2 40.36 290.05 40.17 289.91 39.96 289.79 39.75 289.67 39.52 289.56 39.29 289.46 39.04 289.38 38.78 289.31 38.51 289.25 38.22 289.21 37.93 289.18 37.62 289.17 37.3 289.18 36.97 289.2 36.63 289.24 36.28 289.29 35.91 289.36 35.54 289.44 35.19 289.52 34.84 289.62 34.51 289.71 34.19 289.82 33.89 289.93 33.59 290.05 33.31 290.18 33.04 290.32 32.79 290.46 32.54 290.61 32.31 290.77 32.09 290.94 31.88 291.12 31.68 291.31 31.49 291.5 31.32 291.7 31.15 291.91 31 292.13 30.86 292.36 30.73 292.59 30.61 292.84 30.51 293.09 30.41 293.36 30.33 293.63 30.25 293.92 30.19 294.2 30.14 294.5 30.1 294.82 30.06 295.14 30.05 295.47 30.03 295.61 30.03 295.75 30.04 295.89 30.05 296.03 30.06 296.16 30.07 296.3 30.09 296.43 30.1 296.56 30.12 296.69 30.14 296.81 30.16 296.93 30.18 297.05 30.2 297.17 30.23 297.28 30.25 297.39 30.28 297.49 30.31 297.59 30.33 297.69 30.36 297.79 30.39 297.87 30.41 297.96 30.44 298.04 30.46 298.11 30.48 298.19 30.51 298.25 30.53 298.31 30.55 298.36 30.57 298.42 30.58 298.46 30.59 298.49 30.61 298.53 30.61 298.55 30.62 298.12 33.09" fill="#fff"/><path d="M294.37,42H294l-.47,0L293,42l-.2,0-.21,0-.2,0-.21-.06-.2-.07-.2-.08-.21-.09-.19-.1-.2-.12L291,41.2l-.19-.14-.18-.15-.17-.16-.17-.17-.15-.18-.15-.2-.15-.21-.12-.21-.12-.23-.12-.24-.09-.25-.09-.27-.07-.27-.06-.29,0-.3,0-.31V37l0-.35,0-.35.06-.37.06-.37.17-.7.18-.66.11-.3.12-.3.12-.28.13-.27.13-.26.15-.25.15-.23.17-.23.16-.21.18-.2.19-.19.2-.18.2-.16.21-.15.22-.15.23-.13.24-.12.25-.1.26-.1.27-.09.27-.07.29-.07.29-.05.3,0,.32,0,.32,0h.48l.55,0,.53.07.6.12,1.32.38v.05l-.44,2.55-.43-.22-.48-.2-.57-.15-.46-.08-.41,0h-.66l-.46.06-.12,0-.12,0-.24.08-.13,0-.24.12-.11.08-.24.17-.11.1-.11.12-.12.12-.11.13-.1.15-.2.33-.1.19-.09.19-.18.45-.15.5-.14.57-.06.31,0,.3v.58l0,.29.06.27.07.26.1.25.13.24.15.21.18.21.21.18.23.16.26.13.29.11.37.1.62.06h.62l.45,0,.33-.08.22-.08.1,0,.2-.1.19-.12L297,39l.21-.2-.44,2.55-.33.25-.24.13-.34.11-.22,0-.25,0-.43.05Zm1.24-11.92h-.47l-.32,0-.31,0-.3,0-.28,0-.29.07-.27.07-.26.08-.25.1-.24.11-.24.11-.22.13-.22.14-.21.15-.19.16-.19.18-.19.18-.17.2-.17.2-.16.22-.15.23-.14.25-.14.25-.13.27-.11.28-.12.29-.1.3-.19.65-.16.7-.07.36-.06.37,0,.35,0,.34v.64l0,.31,0,.29.05.28.07.27.09.26.09.24.11.24.12.22.12.21.14.2.15.19.15.18.16.16.17.16.18.14.18.14.18.12.19.11.19.1.2.09.2.08.2.07.2.06.2,0,.2,0,.2,0,.68,0h1.17l.56-.07.33-.07.32-.11.23-.12.28-.21.37-2.18-.14.12-.2.13-.21.1-.22.09-.11,0-.34.08-.23,0-.34,0h-.43l-.45,0-.34,0-.33-.09-.3-.11-.27-.15-.25-.16-.21-.19-.19-.21-.16-.23-.13-.25L292,38l-.09-.28-.05-.28,0-.29v-.3l0-.31,0-.31L292,36l.14-.58.15-.51.18-.45.1-.21.1-.19.2-.34.11-.15.12-.14.11-.13.12-.11.12-.11.24-.18.12-.08.25-.12.26-.1.12,0,.13,0,.25-.05.36,0h.67l.51,0,.55.1.4.12.5.2.29.15.41-2.34-1.57-.43-.76-.11-.27,0Z" fill="#fff"/><polygon points="300.94 41.86 302.47 32.64 299.57 32.64 298.04 41.86 300.94 41.86" fill="#fff"/><path d="M301,41.92h-3v-.07l1.53-9.27h3l0,.07Zm-2.88-.11h2.78l1.51-9.12h-2.78Z" fill="#fff"/><polygon points="302.76 41.86 305.69 41.86 305.71 41.86 306.79 36.26 306.85 36.1 306.93 35.96 307.01 35.83 307.1 35.72 307.19 35.6 307.29 35.51 307.39 35.42 307.5 35.35 307.61 35.27 307.71 35.22 307.82 35.16 307.93 35.12 308.04 35.08 308.14 35.05 308.25 35.02 308.35 34.99 308.39 34.99 308.44 34.99 308.5 34.99 308.57 34.99 308.63 35 308.7 35.01 308.77 35.03 308.84 35.04 308.91 35.06 308.97 35.07 309.03 35.09 309.08 35.1 309.12 35.11 309.15 35.12 309.17 35.13 309.18 35.13 309.96 32.45 309.82 32.44 309.69 32.44 309.55 32.44 309.43 32.44 309.3 32.45 309.18 32.46 309.06 32.47 308.94 32.49 308.83 32.51 308.71 32.53 308.61 32.55 308.5 32.58 308.4 32.61 308.29 32.64 308.2 32.68 308.1 32.72 308 32.77 307.91 32.81 307.82 32.86 307.73 32.91 307.65 32.97 307.57 33.02 307.48 33.09 307.4 33.15 307.33 33.22 307.25 33.28 307.18 33.36 307.11 33.44 307.04 33.51 306.97 33.59 306.9 33.68 306.84 33.76 306.95 32.53 304.4 32.53 302.76 41.86" fill="#fff"/><path d="M305.76,41.92H302.7v-.07l1.64-9.38H307l-.1,1.11.23-.26.22-.21.17-.13.17-.11.18-.11.39-.17.43-.12.35,0,.24,0H310l-.82,2.82-.07,0-.52-.12-.13,0h-.14l-.29.08-.21.09-.11.05-.11.06-.2.14-.1.08-.1.09-.09.11-.09.11L307,36l-.08.14-.06.15Zm-2.93-.11h2.84l1.06-5.56.07-.17.08-.15.08-.13.09-.12.1-.11.1-.1.1-.09.22-.15.11-.06.23-.11.22-.07.25-.06h.12l.28,0,.36.09.74-2.56h-.58l-.35,0-.23,0-.41.12-.38.16-.33.21-.16.12-.22.2-.27.32-.18.25.12-1.38h-2.44Z" fill="#fff"/><polygon points="324.47 41.89 321.62 41.89 321.84 40.52 321.77 40.6 321.7 40.67 321.64 40.75 321.58 40.82 321.51 40.89 321.44 40.96 321.38 41.02 321.31 41.08 321.25 41.15 321.18 41.21 321.11 41.27 321.03 41.32 320.96 41.37 320.88 41.42 320.79 41.47 320.7 41.52 320.62 41.56 320.52 41.6 320.42 41.64 320.31 41.67 320.2 41.71 320.08 41.74 319.95 41.76 319.82 41.79 319.69 41.81 319.54 41.83 319.38 41.85 319.23 41.86 319.05 41.87 318.87 41.88 318.68 41.89 318.49 41.89 318.35 41.88 318.21 41.87 318.07 41.84 317.94 41.81 317.81 41.77 317.68 41.73 317.56 41.67 317.43 41.6 317.31 41.53 317.2 41.44 317.09 41.35 316.99 41.26 316.88 41.15 316.79 41.04 316.69 40.92 316.61 40.8 316.53 40.66 316.45 40.52 316.38 40.38 316.31 40.23 316.26 40.07 316.21 39.9 316.16 39.73 316.13 39.56 316.09 39.38 316.07 39.19 316.05 39 316.05 38.8 316.05 38.6 316.05 38.39 316.07 38.18 316.1 37.97 316.95 32.61 319.8 32.61 319.05 37.35 319.02 37.58 319 37.79 319.01 37.99 319.03 38.17 319.07 38.33 319.12 38.48 319.18 38.62 319.25 38.74 319.34 38.84 319.43 38.93 319.53 39.01 319.64 39.07 319.76 39.12 319.88 39.15 320 39.17 320.12 39.18 320.27 39.17 320.44 39.15 320.6 39.13 320.77 39.08 320.94 39.03 321.11 38.96 321.27 38.87 321.43 38.77 321.58 38.65 321.73 38.52 321.86 38.37 321.98 38.2 322.09 38 322.17 37.79 322.24 37.55 322.3 37.3 323.02 32.64 325.87 32.64 324.47 41.89" fill="#fff"/><path d="M324.52,41.94h-3l.19-1.24-.26.3-.35.31-.23.16-.18.1-.19.08-.32.11-.38.09-.29,0-.32,0-.54,0h-.34l-.15,0-.14,0-.13,0-.14,0-.13,0-.13-.06-.24-.15-.12-.08-.12-.09-.1-.1-.21-.22-.09-.12-.09-.13-.16-.28-.14-.3-.11-.33,0-.18-.06-.36,0-.19v-.8l0-.43.87-5.41h2.95l-.79,5V38l0,.17,0,.16.05.15.06.12.07.12.08.1.09.08.09.07.11.06.11,0,.11,0,.11,0h.27l.32,0,.16,0,.17-.06.16-.06.16-.09.16-.1.15-.11.14-.13.13-.15.11-.17L322,38l.08-.21.07-.22.05-.25.73-4.71h3ZM317,32.67,316.15,38l0,.42v.78l0,.19.06.35.1.33.06.16.13.29.15.27.18.24.19.21.11.09.1.09.12.08.23.14.12.05.13,0,.12,0,.13,0,.14,0,.13,0h.33l.54,0,.59-.07.37-.09.31-.1.28-.13.15-.09.29-.23.32-.32.39-.44-.23,1.49h2.73l1.38-9.14h-2.73l-.72,4.62-.05.25-.07.24-.09.22-.11.2-.12.18-.14.15-.15.14-.16.13-.16.1-.17.09-.17.07-.18.05-.16,0-.34,0H320l-.12,0-.13,0-.12-.05-.12-.07-.1-.08-.1-.09-.09-.11-.08-.12-.06-.14-.05-.16,0-.17,0-.18v-.42l0-.23.74-4.68Z" fill="#fff"/><polygon points="309.13 41.86 312.02 41.86 312.02 41.86 313.12 36.26 313.18 36.1 313.26 35.96 313.34 35.83 313.43 35.72 313.52 35.6 313.62 35.51 313.72 35.42 313.83 35.35 313.94 35.27 314.04 35.22 314.15 35.16 314.26 35.12 314.37 35.08 314.48 35.05 314.58 35.02 314.68 34.99 314.72 34.99 314.77 34.99 314.83 34.99 314.9 34.99 314.96 35 315.03 35.01 315.1 35.03 315.17 35.04 315.24 35.06 315.3 35.07 315.36 35.09 315.41 35.1 315.45 35.11 315.48 35.12 315.5 35.13 315.51 35.13 316.29 32.45 316.15 32.44 316.02 32.44 315.88 32.44 315.76 32.44 315.63 32.45 315.51 32.46 315.39 32.47 315.27 32.49 315.15 32.51 315.04 32.53 314.94 32.55 314.83 32.58 314.72 32.61 314.62 32.64 314.52 32.68 314.43 32.72 314.33 32.77 314.24 32.81 314.15 32.86 314.06 32.91 313.98 32.97 313.89 33.02 313.81 33.09 313.74 33.15 313.65 33.22 313.58 33.28 313.51 33.36 313.44 33.44 313.37 33.51 313.3 33.59 313.24 33.68 313.17 33.76 313.28 32.53 310.76 32.53 309.13 41.86" fill="#fff"/><path d="M312.06,41.92h-3v-.07l1.64-9.38h2.63l-.1,1.11.22-.26.16-.14.24-.2.26-.17.19-.09.19-.09.2-.07.33-.09.35-.06.24,0h.74l-.82,2.82-.07,0-.52-.11-.13,0h-.14l-.29.08-.22.09-.1.05-.11,0-.11.07-.1.08-.1.08-.09.09-.09.11-.09.11-.08.13-.07.13-.06.16Zm-2.87-.11H312l1.09-5.56.07-.17.08-.14.08-.14.09-.12.1-.11.1-.1.11-.09.1-.08.12-.07.11-.06.22-.1.22-.08.25-.06h.12l.28,0,.36.09.74-2.56h-.58l-.35,0-.23,0-.41.12-.19.07-.19.09-.34.21-.3.26-.21.22-.19.25-.12.16.12-1.37h-2.41Z" fill="#fff"/><path d="M304.4,32.53h0Z" fill="#fff"/><rect x="304.4" y="32.47" width="2.58" height="0.11" fill="#fff"/><path d="M310.76,32.53h0Z" fill="#fff"/><rect x="310.76" y="32.47" width="2.55" height="0.11" fill="#fff"/></g></g></svg>