<svg xmlns="http://www.w3.org/2000/svg" xmlns:xlink="http://www.w3.org/1999/xlink" width="39" height="37" viewBox="0 0 39 37">
    <defs>
        <path id="prefix__a" d="M16.079 64.19L60.767 64.19 60.767 21.736 16.079 21.736z"/>
    </defs>
    <g fill="none" fill-rule="evenodd" transform="translate(0 -1)">
        <path fill="#2AD9C1" d="M14.235 27.064C6.751 27.064.662 21.277.662 14.163c0-7.116 6.089-12.904 13.573-12.904 7.435 0 13.523 5.749 13.573 12.815.002.25-.21.454-.473.456-.222.008-.48-.2-.481-.45-.046-6.57-5.707-11.915-12.619-11.915-6.958 0-12.62 5.383-12.62 11.998 0 6.613 5.662 11.995 12.62 11.995.368 0 .73-.016 1.09-.044.263-.024.494.164.515.413.022.25-.172.47-.434.49-.387.031-.777.047-1.17.047"/>
        <path fill="#2AD9C1" d="M14.558 14.476c-.128 0-.255-.052-.346-.152L8.73 8.342c-.176-.192-.163-.489.028-.666.192-.174.488-.163.664.03l5.227 5.705 4.512-2.564c.226-.128.511-.048.64.178.128.226.048.514-.177.642l-4.836 2.748c-.073.042-.153.061-.231.061M13.573 5.665c-.183 0-.331-.174-.331-.389v-1.74c0-.216.148-.389.33-.389.184 0 .332.173.332.389v1.74c0 .215-.148.389-.331.389M13.573 23.288c-.183 0-.331-.174-.331-.389v-1.74c0-.215.148-.389.33-.389.184 0 .332.174.332.39v1.74c0 .214-.148.388-.331.388M3.057 13.847c-.226 0-.409-.141-.409-.315 0-.173.183-.314.41-.314h1.83c.226 0 .409.14.409.314s-.183.315-.41.315h-1.83z"/>
        <path fill="#D4F7F3" d="M21.187 19.602L33.766 19.602 33.766 17.084 21.187 17.084z"/>
        <path fill="#2AD9C1" d="M21.448 19.389h11.395v-1.462H21.448v1.462zm-.923.842h13.241v-3.147H20.525v3.147z"/>
        <path fill="#D4F7F3" d="M22.511 22.119L35.091 22.119 35.091 19.602 22.511 19.602z"/>
        <path fill="#2AD9C1" d="M22.772 21.277h11.395v-1.462H22.772v1.462zm-.923.842H35.09v-3.147H21.849v3.147z"/>
        <path fill="#D4F7F3" d="M18.178 24.104L30.758 24.104 30.758 21.587 18.178 21.587z"/>
        <path fill="#2AD9C1" d="M18.936 23.768H30.33v-1.462H18.936v1.462zm-.758.966H31.42v-3.147H18.178v3.147z"/>
        <path fill="#D4F7F3" d="M28.194 26.435L18.538 26.435 18.538 23.917 31.118 23.917 31.118 25.754M25.914 28.953L18.538 28.953 18.538 26.435 28.47 26.435"/>
        <path fill="#D4F7F3" d="M26.098 30.841L18.538 30.841 18.538 28.323 27.146 28.323"/>
        <path fill="#2AD9C1" d="M26.076 31.47L17.876 31.47 17.876 28.323 27.146 28.323 27.146 29.166 18.855 29.166 18.855 30.628 26.076 30.628z"/>
        <path fill="#D4F7F3" d="M27.146 33.359L18.538 33.359 18.538 30.841 25.971 30.841"/>
        <path fill="#2AD9C1" d="M27.794 27.064H18.73v1.508c0 .48-.284.48-.854 0v-4.655h13.242v2.103h-.923v-1.26H18.799v1.462h10.157l-1.162.842zM27.146 33.359L17.876 33.359 17.876 30.212 25.945 30.212 25.945 31.054 18.819 31.054 18.819 32.516 27.146 32.516z"/>
        <path fill="#FFF" d="M32.468 36.604c-3.29 0-5.958-2.396-5.958-5.35 0-2.955 2.668-5.35 5.958-5.35 3.291 0 5.96 2.395 5.96 5.35 0 2.954-2.669 5.35-5.96 5.35z"/>
        <mask id="prefix__b" fill="#fff">
            <use xlink:href="#prefix__a"/>
        </mask>
        <path fill="#2AD9C1" d="M32.11 26.068c-2.95 0-5.35 2.283-5.35 5.088s2.4 5.087 5.35 5.087c2.952 0 5.353-2.282 5.353-5.087 0-2.805-2.4-5.088-5.352-5.088m-6.29 5.088c0-3.298 2.821-5.98 6.29-5.98 3.468 0 6.29 2.682 6.29 5.98 0 3.296-2.822 5.979-6.29 5.979-3.469 0-6.29-2.683-6.29-5.98z" mask="url(#prefix__b)"/>
        <path fill="#2AD9C1" d="M30.993 32.623s.452-.447.452-1.031l-.002-.052c.001-.024.008-.047.008-.073v-.587h1.531v-.737h-1.53v-.913c0-.262.072-.471.214-.62.145-.152.349-.228.605-.228.295 0 .637.07 1.022.212l.262-.64c-.461-.173-.927-.26-1.386-.26-.525 0-.932.133-1.213.395-.28.263-.417.634-.417 1.134v.92h-.745v.737h.745v.596c0 .298-.062.54-.184.72-.11.16-.292.298-.551.42v.743h3.962v-.736h-2.773z" mask="url(#prefix__b)"/>
    </g>
</svg>
