<svg xmlns="http://www.w3.org/2000/svg" xmlns:xlink="http://www.w3.org/1999/xlink" width="77" height="32" viewBox="0 0 77 32">
    <defs>
        <path id="a" d="M0 .446h76.354v30.689H0z"/>
        <path id="c" d="M.045.446h45.942v30.69H.045z"/>
        <path id="e" d="M0 31.554h76.354V.865H0z"/>
    </defs>
    <g fill="none" fill-rule="evenodd">
        <g transform="translate(0 .419)">
            <mask id="b" fill="#fff">
                <use xlink:href="#a"/>
            </mask>
            <path fill="#FFF" d="M74.069.446H32.695c-.652 0-1.238.282-1.653.727-.31-.45-.756-.727-1.27-.727H1.722C.74.446 0 1.441 0 2.763V28.82c0 1.32.74 2.315 1.722 2.315h28.05c.514 0 .96-.278 1.27-.727a2.258 2.258 0 0 0 1.653.727h41.374c1.26 0 2.285-1.039 2.285-2.315V2.763c0-1.277-1.025-2.317-2.285-2.317" mask="url(#b)"/>
        </g>
        <path fill="#D4F7F3" d="M30.953 29.238c0 1.04-.529 1.884-1.18 1.884H1.722c-.652 0-1.18-.843-1.18-1.884V3.182c0-1.04.528-1.885 1.18-1.885h28.05c.651 0 1.18.844 1.18 1.885"/>
        <path fill="#2AD9C1" d="M29.772 31.554H1.722C.74 31.554 0 30.56 0 29.238V3.181C0 1.861.74.865 1.722.865h28.05c.982 0 1.723.996 1.723 2.316h-1.084c0-.952-.475-1.45-.64-1.45H1.723c-.164 0-.637.498-.637 1.45v26.057c0 .952.473 1.451.637 1.451h28.05c.195 0 .639-.548.639-1.451h1.084c0 1.32-.74 2.316-1.723 2.316"/>
        <g transform="translate(30.366 .419)">
            <mask id="d" fill="#fff">
                <use xlink:href="#c"/>
            </mask>
            <path fill="#2AD9C1" d="M43.703 31.135H2.329c-1.26 0-2.284-1.039-2.284-2.316h1.084c0 .786.549 1.451 1.2 1.451h41.374c.65 0 1.2-.665 1.2-1.451V2.762c0-.787-.55-1.45-1.2-1.45H2.329c-.651 0-1.2.663-1.2 1.45H.045C.045 1.486 1.068.446 2.329.446h41.374c1.26 0 2.285 1.04 2.285 2.316V28.82c0 1.277-1.025 2.316-2.285 2.316" mask="url(#d)"/>
        </g>
        <mask id="f" fill="#fff">
            <use xlink:href="#e"/>
        </mask>
        <path fill="#2AD9C1" d="M56.715 26.304h16.14v-2.206h-16.14zM30.41 4.673h1.085v-1.73h-1.084v1.73zm0 3.46h1.085v-1.73h-1.084v1.73zm0 3.46h1.085v-1.73h-1.084v1.73zm0 3.459h1.085v-1.73h-1.084v1.73zm0 3.459h1.085v-1.73h-1.084v1.73zm0 3.46h1.085v-1.73h-1.084v1.73zm0 3.459h1.085V23.7h-1.084v1.73zm0 3.46h1.085v-1.73h-1.084v1.73z" mask="url(#f)"/>
    </g>
</svg>
