<svg xmlns="http://www.w3.org/2000/svg" xmlns:xlink="http://www.w3.org/1999/xlink" width="365" height="366" viewBox="0 0 365 366">
    <defs>
        <path id="a" d="M0 .216h351.962v276.352H0z"/>
        <path id="c" d="M.099.715h98.512V32.87H.1z"/>
        <path id="e" d="M.348.329h22.14V8H.348z"/>
    </defs>
    <g fill="none" fill-rule="evenodd">
        <g transform="translate(0 71)">
            <mask id="b" fill="#fff">
                <use xlink:href="#a"/>
            </mask>
            <path fill="#FFF" d="M1.282 127.058c1.962-10.983 6.233-21.499 13.204-31.837 8.238-12.217 19.959-22.15 34.422-25.934 24.99-6.537 52.315 5.297 77.915 3.857 25.63-1.441 49.462-10.183 69.2-26.71C231.55 16.681 263.905-9.904 301.335 4.022c37.43 13.925 74.86 70.26 30.451 125.332-11.96 14.83-19.62 20.849-31.086 36.08-9.388 12.47-8.593 29.718-3.373 43.66 15.496 41.388-27.475 75.417-67.046 65.845-41.87-10.128-48.849-62.031-102.139-73.426-44.288-9.47-112.855 27.173-125.866-38.035-2.57-12.875-3.051-24.904-.994-36.42" mask="url(#b)"/>
        </g>
        <path fill="#FFF" d="M10.196 153.228c4.739-10.101 11.586-19.154 20.995-27.335 11.12-9.669 25.011-16.23 39.962-16.142 25.829.154 49.16 18.657 74.26 23.892 25.13 5.241 50.413 2.966 73.756-7.89 42.016-19.543 80.15-36.848 112.7-13.709s54.125 87.242-3.024 128.943c-15.391 11.23-24.348 15.06-39.365 26.804-12.296 9.617-15.993 26.483-14.559 41.3 4.257 43.989-46.057 65.737-81.803 46.25-37.823-20.621-31.13-72.562-79.654-97.36C73.136 237.37-2.58 255.017 1.73 188.664c.85-13.102 3.499-24.845 8.466-35.437"/>
        <path fill="#EAAD7B" d="M103 123.116s-12.83-14.078-15.71-22.42c-2.88-8.344-4.45-16.947-8.902-18.512-4.45-1.564-6.283 7.3-4.974 9.386 1.31 2.086 3.666 2.607 6.546 9.125 2.88 6.518 12.829 27.636 16.233 30.764 3.403 3.129 6.807-8.343 6.807-8.343M150.454 342.26s-.248 5.98 1.242 7.54c1.49 1.56-2.979 5.2-2.979 5.2L144 351.88s2.731-1.82.993-9.88l5.461.26zM243.187 141s6.267-15.112 15.146-25.012c8.878-9.9 8.095-11.985 7.05-14.85-1.044-2.867-6.006-3.388-7.572 1.822-1.568 5.211-7.313 14.33-10.708 17.978-3.394 3.648-9.4 10.422-11.75 12.506C233 135.53 243.186 141 243.186 141"/>
        <path fill="#2F4694" d="M150.735 208.115s-1.828 1.287-1.306 6.951-2.088 23.943-7.57 39.647c0 0-2.087 4.377-.26 8.752 1.827 4.378-2.088 4.378 1.566 6.695s4.437 6.436 3.393 10.812c-1.044 4.377 3.915 10.298 3.655 18.536 0 0-.784 5.15 1.305 7.209 2.087 2.06-1.305 5.664-.262 8.239 1.044 2.574 2.089 2.316 3.133 5.92s3.394 2.575 2.35 6.694c-1.045 4.12-.262 14.16-4.439 14.675-4.175.515-10.701 3.346-13.05.515-2.35-2.832 0-5.15-2.872-7.466-2.871-2.318.261-3.605-1.827-7.981-2.088-4.377-2.35-4.634.262-13.645 0 0 1.565-3.09-3.655-13.387-5.22-10.298-7.57-15.962-13.312-43.766 0 0-2.088-4.892-1.306-12.873.783-7.98.783-9.267-.26-18.793 0 0-14.879 10.555-17.228 10.812-2.35.258-5.743 5.15-.522 6.18 5.22 1.03 7.047.514 10.18 3.604s10.44 3.861 10.44 3.861l3.656 22.14s-6.527 1.546-9.398-1.544c-2.871-3.09-9.92-.257-15.661-5.664-5.743-5.406-20.621-.773-28.713-8.752-8.092-7.982-9.135-17.508 3.655-31.667 0 0 5.48-5.15 10.701-7.98 0 0 .522-.516 0-2.318-.521-1.801 5.221-3.604 5.743-5.148.522-1.545-.261-3.348 6.786-5.15 7.048-1.802-.782-5.148 7.048-9.783 7.83-4.634 40.46-8.238 47.768 14.675"/>
        <path fill="#182C5D" d="M119 260s6.123.512 8.252 3.327c2.13 2.817.532 5.633 1.863 8.194 1.33 2.559 3.195 7.936.533 9.984-2.662 2.047-4.43 3.495-4.43 3.495s-2.49-6.823-6.218-25"/>
        <path fill="#00040A" d="M140.97 255s2.76.817 2.484 3.54c-.276 2.723 3.035 1.906 2.484 6.535-.552 4.628 1.38 5.173-2.76 6.807-4.14 1.633-5.796-14.16-2.208-16.882"/>
        <path fill="#EAAD7B" d="M149.455 259.55s.273 4.125-5.455 2.2l1.09 6.05s3.274-2.2 7.091 2.2l3.819-.276-.273-5.5L151.91 259l-2.455.55z"/>
        <path fill="#231126" d="M150 260.053s1.124-2.288 3.374-2.033c2.211.25 7.956 5.66 7.611 17.439-.01.337-.35.59-.716.533-1.538-.241-5.266-1.332-7.458-6.284 0 0 1.686-.763 2.53-2.287 0 0-1.124-5.336-5.341-7.368"/>
        <path fill="#182C5D" d="M72.667 225s5.969 5.77 1.931 9.154c-4.037 3.382-5.803 6.505-10.598 5.725 0 0 .379-6.116 8.667-14.879"/>
        <path fill="#EAAD7B" d="M169 113.328s-5.825 11.707-6.515 13.77c-.69 2.06-5.511 7.594-13.06.086-1.757-1.28 2.503-8.281 2.503-8.281L163.025 111l5.975 2.328z"/>
        <path fill="#231126" d="M143.556 351.439s-4.356 2.652-3.426 10.68c.079.683.884 1.08 1.558.779 4.132-1.854 15.887-7.95 9.398-14.898 0 0-.269 2.456-2.151 4.176 0 0-1.345-.983-5.38-.737"/>
        <path fill="#2BCCAE" d="M118.655 147.455c-7.981 0-4.892-1.825-12.358-3.91C98.831 141.461 96 132.34 96 132.34c.257-7.818 6.693-8.34 6.693-8.34s7.208 8.86 9.269 7.037c2.058-1.825 2.316-.782 3.088-.261.773.521 2.832-2.606 4.892-2.085 2.06.521 4.118-2.867 6.179-1.564 2.059 1.303 4.376 0 4.376 0 5.921-4.69 8.495 1.824 9.525-.782.192-.484.561-.86 1.044-1.178 1.536-1.006 3.519-.995 5.099-.06 1.153.68 2.204 1.5 3.254 2.412 4.057 3.128 8.838.975 13.039-1.505 2.876-1.7 6.552-1.384 8.986.92.428.404.776.819 1.016 1.236 1.802 3.127 3.09 3.127 3.09 3.127 5.405-.521 2.831 1.564 10.04 2.085 7.208.522 6.436 6.515 11.585 5.473 5.149-1.043 5.92.52 6.179.782.256.26 5.405 2.866 8.237 2.866s4.892-1.042 5.922-.782c1.03.261 1.287 2.612 1.804 1.822.469-.719 1.338-.888 1.972-.313.451.412.858-.205.858-.205 1.801-3.91 3.346.26 4.118-1.825.773-2.085 9.011-8.078 9.011-8.078 5.664 2.866 7.724 7.557 7.724 7.557s-1.288 4.951-4.634 6.515c-3.347 1.564-3.09 2.606-3.09 2.606-1.03 5.212-2.06 4.43-3.347 4.17-1.287-.261-2.06 3.648-4.633 3.127-2.575-.521-4.12.782-5.664 2.085-1.545 1.302-4.892-2.085-5.664.26-.772 2.346-2.832 1.042-2.832 1.042-.515-1.302-2.316-.78-2.316-.78-3.605 2.345-7.724-1.043-12.615-1.043-4.892 0-13.13 1.564-15.447-1.043-2.317-2.606-6.694 3.648-9.01 5.733-2.317 2.086-18.794 11.207-18.536 22.152.257 10.946-.773 11.988-3.09 11.988-2.317 0-1.545 1.564-1.545 1.564 2.06 5.733-.257 10.945-.257 10.945s0-.782-2.574-2.606c-2.575-1.824-8.239-2.606-9.783-3.649-1.545-1.041-10.298-5.733-15.189-5.994-4.892-.26-7.21-4.951-10.812-3.388-3.605 1.565-8.754.782-8.754.782 0-2.605 1.545-4.43 2.831-6.515 1.288-2.084 3.09-2.866 1.803-7.036s7.98-8.86 7.723-10.945c-.257-2.085 4.377-10.165 7.724-15.116 3.346-4.95 1.287-8.6 1.287-8.6l-5.921.522z"/>
        <path fill="#6BDDC7" d="M157 179s-17.516 5.246-6.184 19c0 0-.81-1.557 1.619-1.557 2.428 0 3.048-.859 3.277-8.474 0 0-.62-5.912 1.288-8.969M118.125 165s5.15 16.728-9.539 19c0 0 .257-1.274-.487-3.584-.745-2.31 2.899-5.307 5.06-7.101 2.16-1.794 3.258-2.585 3.258-3.638 0-1.054.394-2.241 1.708-4.677"/>
        <path fill="#1B1177" d="M151.667 93.85s-5.874-3.942-5.661-8.237c.212-4.293 4.594-8.096 8.667-8.528 3.84-.409 13.767.375 18.723 8.836a3.47 3.47 0 0 0 2.598 1.694c2.167.253 5.708 1.281 6.845 5.23 1.676 5.827-10.269 16.04-10.269 16.04l-8.623.115-6.716-7.628-5.564-7.522z"/>
        <path fill="#EAAD7B" d="M151.531 94.598s-3.973 6.073-5.895 11.53c-1.922 5.457-3.952 14.594 5.285 16.603 9.235 2.008 14.594-7.875 14.594-7.875s4.79 1.68 7.8-1.113c3.008-2.795 1.665-6.918-1.486-6.39-3.151.528-7.445.68-5.354-3.207 2.09-3.889 6.251-8.092 1.314-11.146 0 0-9.909 6.243-16.258 1.598M246.887 347s1.962 7.62-5.151 10.238L241 362l11.037-.476 1.963-3.572s-3.925-4.523 0-10.237l-7.113-.715z"/>
        <path fill="#182C5D" d="M272.023 208s4.448 11.791 0 20.822c-4.448 9.032-9.638 18.314-11.12 25.087-1.483 6.774-.495 26.844-1.977 32.363-1.483 5.518 2.965 8.279.494 19.317 0 0-.247 7.777.741 10.787.989 3.011 1.977 4.014-.247 10.286-2.224 6.271 2.471 4.516-.247 15.052 0 0-.741 7.527.988 10.286 0 0-7.66-.502-18.287-3.512 0 0-1.483-4.515 1.73-14.3 3.212-9.783-2.47-10.034-1.483-21.826.988-11.79-5.684-6.271-5.437-19.316 0 0-.988-3.262-2.718-6.022-1.73-2.76 1.977-25.087 1.977-25.087s1.853-21.45-1.112-24.71C232.359 233.964 272.023 208 272.023 208"/>
        <path fill="#1B1177" d="M237.183 193s-8.732-.504-13.222-6.795c0 0-1.746-2.013-5.987-2.516-4.241-.504-11.725-2.014-11.974-13.59 0 0 0-3.523 2.743-6.291 2.745-2.77-1.247-10.57 2.495-16.359 3.742-5.788 20.456-8.808 22.951-18.622 2.494-9.815 9.73-13.842 12.473-14.597 2.744-.755 6.985-3.523 11.226-1.51 4.24 2.013 3.991 4.026 7.235 8.556 3.242 4.53.498 16.107 2.993 18.875 2.495 2.768 22.452 14.597 24.198 25.67 1.746 11.072.499 13.84-7.734 19.378-8.232 5.536-10.726 6.795-19.957 7.045-9.23.252-27.44.756-27.44.756"/>
        <path fill="#EAAD7B" d="M246.013 136.652s10.991-5.806 12.74-15.652c0 0 2.998 6.312 5.247 7.826 0 0-.75 13.632-8.744 18.933 0 0 1.748 6.06 8.494 3.534 0 0-3.247 4.04-4.247 8.331-1 4.292-8.494 4.292-10.742 4.292-2.248 0-12.242.757-13.49-2.272-1.25-3.03 1.998-8.33 6.245-11.613 0 0 6.745-.757 4.497-13.379M244 273.25s7.5 4.75 6.048 9.25l2.177 3.5 6.775-9.5-2.42-4s-7.257-.25-11.613-6.5l-.967 7.25z"/>
        <g transform="translate(260 139)">
            <mask id="d" fill="#fff">
                <use xlink:href="#c"/>
            </mask>
            <path fill="#EAAD7B" d="M8.725 32.848s.753-3.737.502-7.224c-.25-3.486 6.023-5.977 12.296-6.227 6.273-.249 39.397-3.736 48.18-5.728 8.782-1.993 14.554-3.737 19.321-1.246 4.769 2.492 11.042-4.981 9.286-8.22C96.553.967 94.294-.528 88.02 1.964 81.748 4.452 76.73 8.188 60.67 7.441c-16.06-.747-47.928.747-54.704 3.736-6.776 2.989-9.786 22.418 2.76 21.67" mask="url(#d)"/>
        </g>
        <path fill="#EAAD7B" d="M241 148.768s-11.441-6.745-18.561-27.726c0 0-5.34-11.242 5.34-38.219 0 0 2.183-4.466 4.576-7.993 2.034-2.998-1.78-10.741-6.102-9.742-4.207.973-5.34 4.246-5.34 10.74 0 6.495 0 8.743-3.56 16.487-3.559 7.744-6.61 22.232-4.83 27.976 1.78 5.746 7.12 18.485 14.493 30.975 7.373 12.49 4.83 18.734 4.83 18.734L241 148.768z"/>
        <path fill="#D7BDA9" d="M233.365 202.339s-3.285 4.83 9.857 9.661c0 0 25.778-5.34 25.778-13.475 0-8.137-32.602-7.628-35.635 3.814"/>
        <path fill="#EAAD7B" d="M240.098 209s-1.495-9.537-.996-11.983c.497-2.445 25.907-3.179 28.897.735l.001.776s-20.43-2.244-27.902 10.472"/>
        <path fill="#121639" d="M240 208.976s.368.54.439 1.024c0 0 5.666-12.815 28.561-10.808l-.509-1.004S247.886 195.68 240 208.976"/>
        <path fill="#2F4694" d="M239.558 209.023s-3.97 4.248-16.374 6.498c-12.403 2.25-21.335 6.248-25.056 13.745-3.72 7.498 2.481 16.994 8.187 17.744 0 0 2.233 1.25 3.225 4.249.992 2.999 13.396 6.497 14.636 8.497 1.241 1.999 2.978 5.748 9.18 8.247 0 0 3.969 1.249 5.21 7.997 0 0 11.163-4.249 16.125-11.246 0 0-4.466-5.997-10.171-9.497-5.706-3.499-2.977-6.497-9.427-8.997-6.45-2.499-1.241-2.999-5.707-5.497 0 0 3.474.749 6.202-.5 2.73-1.25 2.73 1.749 7.94-1 5.209-2.75 5.953 1.25 17.365-3.749 11.412-4.998 17.118-21.993 6.45-37.237 0 0-20.343-3-27.785 10.746"/>
        <path fill="#EED8C3" d="M240.603 149.746s-.49-.498-1.958-.746c0 0-5.38 5.225-8.071 12.938 0 0-1.223 1.742-1.958 5.971-.733 4.23-1.467 8.211 1.958 15.177 3.424 6.966 2.934 11.445 1.467 17.914 0 0 2.202-3.981 8.072-3.484 5.871.498 4.647 1.991 11.986-.746 7.338-2.737 14.433.498 14.433.498s-.49-2.488.978-5.225c1.467-2.737-.734-6.718-1.713-9.704-.978-2.985.49-6.469 1.713-10.2 0 0-7.828.746-8.317-9.953 0 0 .489-7.464 5.626-11.692l-2.446.496s-2.936 3.235-4.159 8.211c-1.223 4.976-12.475 4.23-12.475 4.23s-10.029.995-11.251-2.24c-1.224-3.234 2.445-8.957 6.115-11.445"/>
        <g transform="translate(234 358)">
            <mask id="f" fill="#fff">
                <use xlink:href="#e"/>
            </mask>
            <path fill="#060018" d="M8.285.329S1.97 2.019.365 7.44c-.087.292.18.574.526.56l20.375-.844c.499-.021.914-.337 1.004-.764.266-1.267.572-3.88-.965-5.384 0 0-3.906 2.718-10.155 2.49 0 0-.782-1.584-2.865-3.17" mask="url(#f)"/>
        </g>
        <path fill="#060018" d="M250.545 282.354s-1.695 6.932.892 10.41c.248.335.75.307.977-.043l11.41-17.609a1.089 1.089 0 0 0-.064-1.275c-.836-1.025-2.898-2.716-6.74-1.288 0 0 .48 5.147-3.117 10.05 0 0-1.919.98-3.358-.245"/>
        <path fill="#2BD4B5" d="M263 36c0 19.882-16.342 36-36.5 36-20.16 0-36.5-16.118-36.5-36 0-19.883 16.34-36 36.5-36C246.658 0 263 16.117 263 36"/>
        <path fill="#FFF" d="M221.586 49.411l-13-13.075a2.02 2.02 0 0 1 0-2.845l2.828-2.844a1.992 1.992 0 0 1 2.828 0L223 39.455l18.758-18.866a1.99 1.99 0 0 1 2.828 0l2.829 2.845c.78.785.78 2.059 0 2.844l-23 23.133a1.994 1.994 0 0 1-2.83 0"/>
        <path fill="#28DDCB" d="M323.5 264c-8.008 0-14.5-6.492-14.5-14.5s6.492-14.5 14.5-14.5 14.5 6.492 14.5 14.5-6.492 14.5-14.5 14.5z"/>
        <path fill="#28DDCB" d="M43.5 138c-8.008 0-14.5-6.492-14.5-14.5S35.492 109 43.5 109 58 115.492 58 123.5 51.508 138 43.5 138z" opacity=".585"/>
    </g>
</svg>
