<svg xmlns="http://www.w3.org/2000/svg" xmlns:xlink="http://www.w3.org/1999/xlink" width="67" height="34" viewBox="0 0 67 34">
    <defs>
        <path id="a" d="M0 .48h66.142v32.953H0z"/>
        <path id="c" d="M.039.48h39.798v32.953H.04z"/>
        <path id="e" d="M0 33.883h66.142V.929H0z"/>
    </defs>
    <g fill="none" fill-rule="evenodd" transform="translate(.16 -.68)">
        <g transform="translate(0 .45)">
            <mask id="b" fill="#fff">
                <use xlink:href="#a"/>
            </mask>
            <path fill="#FFF" d="M64.163.479h-35.84c-.565 0-1.073.303-1.432.781-.27-.483-.655-.781-1.1-.781H1.492C.641.479 0 1.548 0 2.967v27.98c0 1.417.641 2.486 1.492 2.486h24.299c.445 0 .83-.298 1.099-.78.36.477.868.78 1.432.78h35.841c1.092 0 1.98-1.116 1.98-2.486V2.967c0-1.372-.888-2.488-1.98-2.488" mask="url(#b)"/>
        </g>
        <path fill="#D4F7F3" d="M26.814 31.396c0 1.117-.459 2.023-1.023 2.023H1.492c-.564 0-1.023-.906-1.023-2.023V3.416c0-1.117.459-2.023 1.023-2.023h24.299c.564 0 1.023.906 1.023 2.023"/>
        <path fill="#4A90E2" d="M25.79 33.883H1.492C.641 33.883 0 32.813 0 31.396V3.416C0 1.998.64.93 1.492.93H25.79c.851 0 1.493 1.069 1.493 2.487h-.94c0-1.022-.41-1.558-.553-1.558H1.492c-.142 0-.552.536-.552 1.558v27.98c0 1.022.41 1.558.552 1.558H25.79c.17 0 .554-.589.554-1.558h.94c0 1.418-.643 2.487-1.494 2.487"/>
        <g transform="translate(26.305 .45)">
            <mask id="d" fill="#fff">
                <use xlink:href="#c"/>
            </mask>
            <path fill="#4A90E2" d="M37.858 33.433H2.018c-1.092 0-1.98-1.115-1.98-2.487h.94c0 .844.476 1.558 1.04 1.558h35.84c.564 0 1.04-.714 1.04-1.558V2.966c0-.845-.476-1.558-1.04-1.558H2.018c-.564 0-1.04.713-1.04 1.558h-.94C.039 1.596.927.48 2.019.48h35.84c1.092 0 1.98 1.116 1.98 2.487v27.98c0 1.372-.888 2.487-1.98 2.487" mask="url(#d)"/>
        </g>
        <mask id="f" fill="#fff">
            <use xlink:href="#e"/>
        </mask>
        <path fill="#4A90E2" d="M3.539 14.943h15.629v-1.518H3.539zM30.35 14.943h20.972v-1.518H30.35zM49.13 28.246h13.98v-2.37H49.13zM3.539 8.532h2.014V6.176H3.54zM6.772 8.532h2.014V6.176H6.772zM10.004 8.532h2.015V6.176h-2.015zM13.237 8.532h2.014V6.176h-2.014zM16.47 8.532h2.014V6.176H16.47zM19.703 8.532h2.015V6.176h-2.015zM30.457 8.532h2.013V6.176h-2.013zM33.69 8.532h2.013V6.176H33.69zM36.923 8.532h2.013V6.176h-2.013zM40.155 8.532h2.014V6.176h-2.014zM43.388 8.532h2.014V6.176h-2.014zM46.621 8.532h2.014V6.176h-2.014zM49.867 8.532h2.013V6.176h-2.013zM53.099 8.532h2.014V6.176h-2.014zM56.521 8.532h2.014V6.176h-2.014zM59.943 8.532h2.014V6.176h-2.014zM25 11.729h2.188V11H25v.729zm0 1.457h2.188v-.729H25v.729zm0 1.457h2.188v-.729H25v.729zm0 1.457h2.188v-.728H25v.728zm0 1.457h2.188v-.728H25v.728zm0 1.458h2.188v-.729H25v.729zm0 1.457h2.188v-.729H25v.729zm0 1.457h2.188V21.2H25v.729z" mask="url(#f)"/>
    </g>
</svg>
