<svg xmlns="http://www.w3.org/2000/svg" xmlns:xlink="http://www.w3.org/1999/xlink" width="56" height="29" viewBox="0 0 56 29">
    <defs>
        <path id="a" d="M0 .404h55.356v27.812H0z"/>
        <path id="c" d="M.032.404h33.309v27.812H.032z"/>
        <path id="e" d="M0 28.596h55.356V.784H0z"/>
    </defs>
    <g fill="none" fill-rule="evenodd">
        <g transform="translate(0 .38)">
            <mask id="b" fill="#fff">
                <use xlink:href="#a"/>
            </mask>
            <path fill="#FFF" d="M53.7.404H23.704c-.473 0-.897.256-1.198.66-.225-.408-.548-.66-.921-.66H1.249C.536.404 0 1.306 0 2.504v23.614c0 1.196.536 2.098 1.249 2.098h20.336c.373 0 .695-.252.92-.658.302.402.726.658 1.199.658H53.7c.914 0 1.657-.941 1.657-2.098V2.504c0-1.158-.743-2.1-1.657-2.1" mask="url(#b)"/>
        </g>
        <path fill="#D4F7F3" d="M22.441 26.497c0 .943-.383 1.707-.856 1.707H1.249c-.473 0-.856-.764-.856-1.707V2.883c0-.943.383-1.708.856-1.708h20.336c.473 0 .856.765.856 1.708"/>
        <path fill="#2AD9C1" d="M21.585 28.596H1.249c-.713 0-1.249-.902-1.249-2.1V2.884C0 1.686.536.784 1.25.784h20.336c.712 0 1.25.902 1.25 2.1h-.787c0-.864-.345-1.316-.463-1.316H1.249c-.12 0-.463.452-.463 1.315v23.614c0 .863.344 1.315.463 1.315h20.336c.141 0 .463-.497.463-1.315h.786c0 1.197-.537 2.099-1.25 2.099"/>
        <g transform="translate(22.015 .38)">
            <mask id="d" fill="#fff">
                <use xlink:href="#c"/>
            </mask>
            <path fill="#2AD9C1" d="M31.684 28.216H1.688c-.913 0-1.656-.941-1.656-2.099H.82c0 .713.398 1.315.87 1.315h29.995c.472 0 .87-.602.87-1.315V2.503c0-.713-.398-1.315-.87-1.315H1.688c-.471 0-.87.602-.87 1.315H.033C.032 1.347.775.404 1.688.404h29.996c.914 0 1.657.943 1.657 2.1v23.613c0 1.158-.743 2.1-1.657 2.1" mask="url(#d)"/>
        </g>
        <mask id="f" fill="#fff">
            <use xlink:href="#e"/>
        </mask>
        <path fill="#2AD9C1" d="M2.962 12.611h13.08V11.33H2.962zM25.4 12.611h17.553V11.33H25.4zM41.119 23.838h11.7v-2h-11.7zM2.962 7.2h1.686V5.213H2.962zM5.667 7.2h1.686V5.213H5.667zM8.373 7.2h1.686V5.213H8.373zM11.079 7.2h1.685V5.213H11.08zM13.784 7.2h1.686V5.213h-1.686zM16.49 7.2h1.686V5.213H16.49zM25.49 7.2h1.685V5.213H25.49zM28.196 7.2h1.685V5.213h-1.685zM30.902 7.2h1.685V5.213h-1.685zM33.607 7.2h1.685V5.213h-1.685zM36.313 7.2h1.685V5.213h-1.685zM39.019 7.2h1.685V5.213H39.02zM41.735 7.2h1.685V5.213h-1.685zM44.44 7.2h1.686V5.213H44.44zM47.304 7.2h1.686V5.213h-1.686zM50.168 7.2h1.686V5.213h-1.686zM22.048 4.235h.786V2.668h-.786v1.567zm0 3.135h.786V5.803h-.786V7.37zm0 3.135h.786V8.938h-.786v1.567zm0 3.136h.786v-1.568h-.786v1.568zm0 3.135h.786v-1.568h-.786v1.568zm0 3.135h.786v-1.568h-.786v1.568zm0 3.135h.786v-1.568h-.786v1.568zm0 3.135h.786v-1.568h-.786v1.568z" mask="url(#f)"/>
    </g>
</svg>
