<svg xmlns="http://www.w3.org/2000/svg" xmlns:xlink="http://www.w3.org/1999/xlink" width="55" height="47" viewBox="0 0 55 47">
    <defs>
        <path id="prefix__a" d="M0 0.554L56.952 0.554 56.952 48.999 0 48.999z"/>
    </defs>
    <g fill="none" fill-rule="evenodd" transform="translate(-2 -2)">
        <mask id="prefix__b" fill="#fff">
            <use xlink:href="#prefix__a"/>
        </mask>
        <path fill="#FFF" d="M55.09 3.006c-.16-.004-.32-.006-.48-.006-5.662 0-10.577 2.83-13.16 4.66-.717-.634-1.666-1.005-2.671-1.005h-1.833c-.987 0-1.925.362-2.639.982C31.727 5.82 26.811 3 21.192 3c-.161 0-.324.002-.483.006-1.045.03-1.864.836-1.864 1.837v9.383l.008.232.033.098c.02.11.048.215.087.313H7.103C4.287 14.869 2 17.061 2 19.791v24.324C2 46.808 4.288 49 7.102 49h41.263c2.814 0 5.102-2.191 5.102-4.991V19.754c0-.119-.011-.234-.028-.349l-.014-.137c-.01-.13-.023-.263-.046-.376-.046-.245-.115-.476-.198-.704l-.065-.243-.055-.069c-.133-.304-.296-.589-.486-.857 1.857-.497 3.101-1.05 3.285-1.135l.145-.073.042-.015.344-.258.063-.091c.078-.082.144-.169.196-.252l.1-.153.044-.1c.058-.128.097-.266.12-.402l.039-.117v-9.58c0-1-.819-1.807-1.863-1.837" mask="url(#prefix__b)"/>
        <path fill="#D4F7F3" d="M2.214 42h50.244l.215-6.07H2L2.214 42zM57 2.634v9.617c0 .02-.012.039-.015.06-.007.063-.019.124-.046.182-.013.03-.032.054-.051.081-.032.05-.068.092-.114.132-.012.011-.02.028-.033.037-.016.012-.038.013-.055.025-.026.015-.043.036-.07.049-.243.106-4.337 1.89-9.217 1.89-1.592 0-3.265-.195-4.917-.695 2.595 2.008 7.22 6.784 6.877 15.206-.009.213-.133.408-.332.517-.106.057-.225.088-.344.088-.104 0-.209-.023-.303-.067l-3.83-1.78-3.62 1.774c-.22.105-.487.095-.694-.034-.207-.13-.321-.353-.297-.581.007-.065.658-6.548-.89-10.855l-.864-2.933-.855 2.9c-1.56 4.346-.907 10.823-.901 10.888.025.228-.09.452-.297.58-.207.13-.472.14-.692.035l-3.62-1.773-3.83 1.779c-.096.044-.2.067-.305.067-.12 0-.238-.03-.344-.088-.197-.11-.323-.304-.332-.517-.342-8.421 4.282-13.198 6.877-15.204-1.652.499-3.325.692-4.916.692-4.88 0-8.975-1.783-9.216-1.89-.026-.01-.043-.03-.066-.046-.02-.011-.042-.012-.061-.026-.015-.01-.02-.028-.036-.04-.043-.038-.078-.08-.11-.127-.018-.029-.039-.053-.052-.084-.027-.058-.038-.118-.045-.178-.002-.023-.016-.043-.016-.064V2.634c0-.34.292-.617.658-.627 6.654-.189 12.465 3.641 14.602 5.25.45-.89 1.42-1.511 2.548-1.511h1.939c1.145 0 2.13.639 2.57 1.55 2.089-1.586 7.92-5.476 14.657-5.29.367.01.658.288.658.628z"/>
        <path fill="#4A90E2" d="M42.575 13.251c3.876-1.065 8.538-.643 11.274-.225-2.6.811-7.11 1.731-11.274.225zm5.522 16.368l-3.15-1.557c-.196-.094-.424-.093-.616.006l-2.826 1.475c.122-2.238.21-7.111-1.023-10.755l-.855-3.097c.517-.067.986-.27 1.376-.58 1.992 1.431 7.03 5.898 7.094 14.508zM36.21 18.753c-1.24 3.67-1.155 8.55-1.033 10.79l-2.826-1.475c-.192-.099-.42-.1-.615-.006l-3.151 1.557c.063-8.548 5.032-13.014 7.053-14.477.401.306.886.503 1.416.557l-.844 3.054zm-13.375-5.728c2.735-.418 7.395-.84 11.272.226-4.158 1.505-8.67.585-11.272-.226zm-1.81-9.698c6.624.119 12.393 4.764 13.52 5.725v2.94c-5.102-1.426-11.298-.442-13.52 0V3.326zm14.862 5.38c0-.79.653-1.433 1.455-1.433h1.922c.802 0 1.454.644 1.454 1.434v4.262c0 .792-.652 1.434-1.454 1.434h-1.922c-.623 0-1.146-.393-1.352-.939-.002-.018-.01-.034-.013-.052-.047-.14-.09-.286-.09-.443V8.708zm19.77 3.284c-2.231-.445-8.48-1.436-13.596.023V9.118c.922-.802 6.803-5.671 13.596-5.791v8.664zm1.327.884c.003-.022.016-.04.016-.063V2.669c0-.359-.29-.651-.653-.662-6.68-.197-12.463 3.906-14.533 5.578-.44-.96-1.414-1.634-2.55-1.634h-1.922c-1.119 0-2.08.655-2.527 1.593-2.119-1.696-7.881-5.735-14.48-5.537-.363.01-.653.303-.653.662v10.143c0 .024.014.043.016.067.007.065.018.127.045.188.013.033.033.058.052.089.03.049.066.094.109.133.014.014.02.032.035.044.017.013.04.015.06.027.023.015.039.037.064.049.24.112 4.3 1.993 9.141 1.993 1.578 0 3.237-.204 4.875-.73-2.574 2.115-7.16 7.154-6.82 16.035.009.225.132.432.33.547.105.06.223.091.34.091.104 0 .208-.024.302-.07l3.8-1.877 3.588 1.87c.217.112.482.101.687-.035.206-.137.319-.37.294-.613-.006-.069-.653-6.9.895-11.484l.847-3.058.856 3.094c1.535 4.542.89 11.38.884 11.448-.024.242.088.476.294.613.205.136.468.147.687.035l3.589-1.87 3.798 1.877c.096.046.199.07.302.07.118 0 .237-.032.341-.091.196-.115.321-.322.33-.547.34-8.881-4.247-13.92-6.82-16.037 1.638.527 3.298.732 4.875.732 4.839 0 8.9-1.881 9.14-1.993.028-.014.045-.036.07-.052.017-.012.04-.013.056-.025.013-.01.018-.028.032-.04.045-.042.082-.087.113-.139.018-.029.037-.054.05-.086.027-.06.04-.124.045-.192zm-41.89 16.186c.372 0 .672.296.672.662 0 .366-.3.661-.672.661H9.378c-.37 0-.672-.295-.672-.661 0-.366.301-.662.672-.662h5.716zm34.193 18.616H6.055c-1.496 0-2.712-1.2-2.712-2.674v-2.389h48.656v2.39c0 1.472-1.217 2.673-2.712 2.673zM3.343 41.29h48.656v-4.762H3.343v4.762zm48.483-23.4c.115.298.173.614.173.936v16.379H3.343v-16.38c0-1.472 1.216-2.673 2.712-2.673h11.402c.371 0 .672-.295.672-.661 0-.366-.301-.662-.672-.662H6.055C3.819 14.83 2 16.623 2 18.827v26.176C2 47.207 3.82 49 6.055 49h43.232c2.235 0 4.054-1.793 4.054-3.997V18.827c0-.483-.087-.957-.26-1.407-.132-.34-.521-.508-.866-.384-.346.131-.521.512-.39.855z"/>
    </g>
</svg>
