<svg xmlns="http://www.w3.org/2000/svg" xmlns:xlink="http://www.w3.org/1999/xlink" width="56" height="29" viewBox="0 0 56 29">
    <defs>
        <path id="a" d="M0 .404h55.356v27.812H0z"/>
        <path id="c" d="M.032.404h33.309v27.812H.032z"/>
        <path id="e" d="M0 28.596h55.356V.784H0z"/>
    </defs>
    <g fill="none" fill-rule="evenodd">
        <g transform="translate(0 .38)">
            <mask id="b" fill="#fff">
                <use xlink:href="#a"/>
            </mask>
            <path fill="#FFF" d="M53.7.404H23.704c-.473 0-.897.256-1.199.66-.224-.408-.548-.66-.92-.66H1.249C.536.404 0 1.306 0 2.504v23.614c0 1.196.536 2.098 1.249 2.098h20.336c.372 0 .696-.252.92-.658.302.402.726.658 1.199.658H53.7c.914 0 1.657-.941 1.657-2.098V2.504c0-1.158-.743-2.1-1.657-2.1" mask="url(#b)"/>
        </g>
        <path fill="#D4F7F3" d="M22.441 26.497c0 .943-.383 1.707-.856 1.707H1.249c-.473 0-.856-.764-.856-1.707V2.883c0-.943.383-1.708.856-1.708h20.336c.473 0 .856.765.856 1.708"/>
        <path fill="#2AD9C1" d="M21.585 28.596H1.249c-.713 0-1.249-.902-1.249-2.1V2.884C0 1.686.536.784 1.249.784h20.336c.712 0 1.249.902 1.249 2.1h-.786c0-.864-.345-1.316-.463-1.316H1.249c-.12 0-.463.452-.463 1.315v23.614c0 .863.344 1.315.463 1.315h20.336c.141 0 .463-.497.463-1.315h.786c0 1.197-.537 2.099-1.25 2.099"/>
        <g transform="translate(22.015 .38)">
            <mask id="d" fill="#fff">
                <use xlink:href="#c"/>
            </mask>
            <path fill="#2AD9C1" d="M31.684 28.216H1.688c-.913 0-1.656-.941-1.656-2.099H.82c0 .713.398 1.315.87 1.315h29.995c.472 0 .87-.602.87-1.315V2.503c0-.713-.398-1.315-.87-1.315H1.688c-.471 0-.87.602-.87 1.315H.033C.032 1.347.775.404 1.688.404h29.996c.914 0 1.657.943 1.657 2.1v23.613c0 1.158-.743 2.1-1.657 2.1" mask="url(#d)"/>
        </g>
        <mask id="f" fill="#fff">
            <use xlink:href="#e"/>
        </mask>
        <path fill="#2AD9C1" d="M2.962 12.611h13.08V11.33H2.962zM25.4 12.611h17.553V11.33H25.4zM2.962 7.2h1.686V5.213H2.962zM5.667 7.2h1.686V5.213H5.667zM8.373 7.2h1.686V5.213H8.373zM11.079 7.2h1.685V5.213H11.08zM13.785 7.2h1.686V5.213h-1.686zM16.49 7.2h1.686V5.213H16.49zM25.49 7.2h1.686V5.213H25.49zM28.196 7.2h1.685V5.213h-1.685zM30.901 7.2h1.686V5.213H30.9zM33.607 7.2h1.685V5.213h-1.685zM36.312 7.2h1.686V5.213h-1.686zM39.018 7.2h1.686V5.213h-1.686zM41.734 7.2h1.686V5.213h-1.686zM44.44 7.2h1.686V5.213H44.44zM47.303 7.2h1.686V5.213h-1.686zM50.168 7.2h1.686V5.213h-1.686zM22.048 4.235h.786V2.668h-.786v1.567zm0 3.135h.786V5.803h-.786V7.37zm0 3.135h.786V8.938h-.786v1.567zm0 3.136h.786v-1.568h-.786v1.568zm0 3.135h.786v-1.568h-.786v1.568zm0 3.135h.786v-1.568h-.786v1.568zm0 3.135h.786v-1.568h-.786v1.568zm0 3.135h.786v-1.568h-.786v1.568zM31.635 24.52a.08.08 0 0 1-.015.046c-.01.014-.026.025-.052.035a.654.654 0 0 1-.101.02 1.28 1.28 0 0 1-.16.009c-.064 0-.117-.003-.158-.009a.605.605 0 0 1-.101-.02.111.111 0 0 1-.052-.035.075.075 0 0 1-.016-.047v-2.762h-.005l-.988 2.76a.121.121 0 0 1-.034.056.158.158 0 0 1-.064.035.397.397 0 0 1-.105.017 2.08 2.08 0 0 1-.305-.002.5.5 0 0 1-.103-.021.185.185 0 0 1-.065-.036.103.103 0 0 1-.031-.05l-.953-2.76h-.005v2.763a.085.085 0 0 1-.015.047c-.01.014-.028.025-.054.035a.66.66 0 0 1-.1.02 1.248 1.248 0 0 1-.16.009c-.063 0-.116-.003-.159-.009a.654.654 0 0 1-.101-.02c-.025-.01-.043-.02-.053-.035a.085.085 0 0 1-.014-.047v-3.025c0-.09.024-.158.07-.205a.256.256 0 0 1 .19-.071h.453c.081 0 .15.007.209.02a.366.366 0 0 1 .255.187c.028.05.052.11.073.184l.737 2.023h.011l.763-2.017c.023-.074.048-.136.075-.186a.423.423 0 0 1 .095-.124.31.31 0 0 1 .128-.067.69.69 0 0 1 .17-.02h.467a.36.36 0 0 1 .122.019.208.208 0 0 1 .134.14.355.355 0 0 1 .017.117v3.025zM33.604 21.866h-.002l-.482 1.443h.966l-.482-1.443zm1.564 2.49a.99.99 0 0 1 .04.15c.004.036-.002.064-.022.082-.02.018-.054.03-.103.035a4.67 4.67 0 0 1-.412.002.508.508 0 0 1-.114-.015c-.026-.008-.045-.02-.055-.033a.17.17 0 0 1-.027-.055l-.229-.682h-1.279l-.215.663a.197.197 0 0 1-.029.062.116.116 0 0 1-.055.04.391.391 0 0 1-.107.02 3.564 3.564 0 0 1-.184.004 1.91 1.91 0 0 1-.19-.008c-.045-.005-.076-.018-.093-.037-.019-.021-.024-.05-.02-.086a.95.95 0 0 1 .04-.147l1.05-3.012a.28.28 0 0 1 .037-.072.13.13 0 0 1 .067-.042.494.494 0 0 1 .128-.019 6.655 6.655 0 0 1 .463 0c.062.003.11.01.144.02.034.009.059.023.074.042.014.02.027.046.037.079l1.054 3.01zM37.063 24.493a.242.242 0 0 1-.034.072.135.135 0 0 1-.07.042.55.55 0 0 1-.128.018 3.848 3.848 0 0 1-.213.005l-.18-.002a1.38 1.38 0 0 1-.129-.007.455.455 0 0 1-.084-.015.195.195 0 0 1-.056-.027.097.097 0 0 1-.034-.038.265.265 0 0 1-.022-.056l-1.014-3.01a.8.8 0 0 1-.038-.149c-.004-.037.004-.064.027-.083.022-.018.059-.03.111-.034a3.13 3.13 0 0 1 .41 0 .357.357 0 0 1 .106.018c.024.008.042.02.051.039.01.017.019.04.028.066l.83 2.618h.002l.813-2.606a.248.248 0 0 1 .026-.071.104.104 0 0 1 .055-.044.322.322 0 0 1 .109-.02 2.513 2.513 0 0 1 .383.002c.045.005.075.018.092.037.016.02.022.05.015.086a.965.965 0 0 1-.04.146l-1.016 3.013zM40.066 25.293a.16.16 0 0 1-.035.055.142.142 0 0 1-.059.034.424.424 0 0 1-.095.02 1.21 1.21 0 0 1-.143.006c-.072 0-.13-.003-.176-.01a.308.308 0 0 1-.104-.031c-.024-.015-.038-.032-.042-.054a.16.16 0 0 1 .011-.078l1.574-4.405a.144.144 0 0 1 .032-.057.167.167 0 0 1 .058-.035.522.522 0 0 1 .096-.02 1.465 1.465 0 0 1 .32.005.267.267 0 0 1 .102.031c.023.014.036.032.04.054a.173.173 0 0 1-.008.077l-1.571 4.408zM44.943 22.22a.497.497 0 0 0-.077-.282.414.414 0 0 0-.25-.163 1.067 1.067 0 0 0-.305-.03h-.31v.963h.352a.851.851 0 0 0 .258-.035.514.514 0 0 0 .185-.1.404.404 0 0 0 .11-.153.516.516 0 0 0 .037-.2m.892 2.303c0 .02-.004.037-.01.05-.008.013-.025.023-.05.033a.495.495 0 0 1-.116.018 3.465 3.465 0 0 1-.385 0 .353.353 0 0 1-.103-.02.114.114 0 0 1-.055-.037.211.211 0 0 1-.026-.053l-.305-.759a3.2 3.2 0 0 0-.108-.228.755.755 0 0 0-.117-.167.432.432 0 0 0-.149-.1.535.535 0 0 0-.195-.034h-.215v1.294a.073.073 0 0 1-.018.046.123.123 0 0 1-.056.034.588.588 0 0 1-.106.021 1.604 1.604 0 0 1-.335 0 .57.57 0 0 1-.106-.02c-.027-.01-.045-.02-.056-.035a.076.076 0 0 1-.016-.046v-3.084c0-.077.02-.132.06-.167a.216.216 0 0 1 .145-.05h.882a4.135 4.135 0 0 1 .38.017c.136.02.26.054.369.1.11.048.203.11.28.185a.771.771 0 0 1 .174.27c.04.104.061.224.061.358 0 .115-.015.218-.044.312a.804.804 0 0 1-.335.442 1.125 1.125 0 0 1-.282.13.759.759 0 0 1 .27.217 1.4 1.4 0 0 1 .112.17c.034.065.069.137.102.218l.287.668c.026.067.044.116.053.146.008.03.013.055.013.071M47.569 21.866h-.002l-.482 1.443h.966l-.482-1.443zm1.564 2.49a.99.99 0 0 1 .04.15c.004.036-.002.064-.022.082-.02.018-.053.03-.103.035a4.67 4.67 0 0 1-.412.002.508.508 0 0 1-.114-.015c-.026-.008-.045-.02-.055-.033a.17.17 0 0 1-.027-.055l-.229-.682h-1.279l-.215.663a.197.197 0 0 1-.029.062.116.116 0 0 1-.055.04.391.391 0 0 1-.107.02 3.564 3.564 0 0 1-.184.004 1.91 1.91 0 0 1-.189-.008c-.046-.005-.077-.018-.094-.037-.018-.021-.024-.05-.02-.086a.95.95 0 0 1 .04-.147l1.05-3.012a.28.28 0 0 1 .037-.072.13.13 0 0 1 .067-.042.494.494 0 0 1 .128-.019 6.655 6.655 0 0 1 .463 0c.062.003.11.01.144.02.034.009.059.023.074.042.015.02.027.046.037.079l1.054 3.01zM51.028 24.493a.242.242 0 0 1-.034.072.135.135 0 0 1-.07.042.55.55 0 0 1-.128.018 3.848 3.848 0 0 1-.213.005l-.18-.002a1.38 1.38 0 0 1-.128-.007.455.455 0 0 1-.085-.015.195.195 0 0 1-.056-.027.097.097 0 0 1-.034-.038.265.265 0 0 1-.022-.056l-1.014-3.01a.8.8 0 0 1-.038-.149c-.004-.037.004-.064.027-.083.022-.018.059-.03.111-.034a3.13 3.13 0 0 1 .41 0 .357.357 0 0 1 .106.018c.024.008.042.02.051.039.01.017.02.04.028.066l.83 2.618h.002l.813-2.606a.248.248 0 0 1 .026-.071.104.104 0 0 1 .055-.044.322.322 0 0 1 .109-.02 2.513 2.513 0 0 1 .383.002c.045.005.075.018.092.037.016.02.022.05.015.086a.965.965 0 0 1-.04.146l-1.016 3.013z" mask="url(#f)"/>
    </g>
</svg>
