<svg xmlns="http://www.w3.org/2000/svg" xmlns:xlink="http://www.w3.org/1999/xlink" width="67" height="34" viewBox="0 0 67 34">
    <defs>
        <path id="a" d="M0 .482h65.942v33.13H0z"/>
        <path id="c" d="M.039.482h39.677v33.13H.04z"/>
        <path id="e" d="M0 34.064h65.942V.934H0z"/>
    </defs>
    <g fill="none" fill-rule="evenodd" transform="translate(.682 -.773)">
        <g transform="translate(0 .452)">
            <mask id="b" fill="#fff">
                <use xlink:href="#a"/>
            </mask>
            <path fill="#FFF" d="M63.969.481H28.236c-.562 0-1.068.305-1.427.786C26.541.78 26.156.48 25.712.48H1.488C.639.481 0 1.556 0 2.983v28.13c0 1.424.639 2.499 1.488 2.499h24.224c.444 0 .83-.3 1.097-.785.359.48.865.785 1.427.785H63.97c1.088 0 1.973-1.122 1.973-2.5V2.982c0-1.378-.885-2.5-1.973-2.5" mask="url(#b)"/>
        </g>
        <path fill="#D4F7F3" d="M26.732 31.564c0 1.123-.456 2.034-1.02 2.034H1.488c-.563 0-1.02-.91-1.02-2.034V3.434c0-1.123.457-2.034 1.02-2.034h24.224c.564 0 1.02.911 1.02 2.035"/>
        <path fill="#4A90E2" d="M25.712 34.064H1.487C.64 34.064 0 32.99 0 31.564V3.434C0 2.01.639.934 1.487.934h24.225c.849 0 1.488 1.075 1.488 2.5h-.936c0-1.028-.41-1.566-.552-1.566H1.487c-.141 0-.55.538-.55 1.566v28.13c0 1.028.409 1.566.55 1.566h24.225c.169 0 .552-.592.552-1.566h.936c0 1.425-.64 2.5-1.488 2.5"/>
        <g transform="translate(26.225 .452)">
            <mask id="d" fill="#fff">
                <use xlink:href="#c"/>
            </mask>
            <path fill="#4A90E2" d="M2.011 33.612c-1.088 0-1.972-1.122-1.972-2.5h.936c0 .848.474 1.566 1.036 1.566h35.732c.562 0 1.037-.718 1.037-1.567V2.982c0-.85-.475-1.567-1.037-1.567H2.011c-.562 0-1.036.717-1.036 1.567H.04c0-1.378.884-2.5 1.972-2.5h35.732c1.089 0 1.974 1.122 1.974 2.5v28.13c0 1.378-.885 2.5-1.974 2.5H2.011z" mask="url(#d)"/>
        </g>
        <mask id="f" fill="#fff">
            <use xlink:href="#e"/>
        </mask>
        <path fill="#4A90E2" d="M3.528 15.023H19.11v-1.527H3.528zM30.258 15.023h20.909v-1.527h-20.91zM3.528 8.578h2.008V6.209H3.528zM6.751 8.578H8.76V6.209H6.751zM9.974 8.578h2.008V6.209H9.974zM13.197 8.578h2.008V6.209h-2.008zM16.42 8.578h2.009V6.209H16.42zM19.644 8.578h2.008V6.209h-2.008zM30.364 8.578h2.008V6.209h-2.008zM33.587 8.578h2.008V6.209h-2.008zM36.81 8.578h2.008V6.209H36.81zM40.033 8.578h2.008V6.209h-2.008zM43.256 8.578h2.008V6.209h-2.008zM46.479 8.578h2.008V6.209h-2.008zM49.715 8.578h2.008V6.209h-2.008zM52.938 8.578h2.008V6.209h-2.008zM56.349 8.578h2.008V6.209h-2.008zM59.761 8.578h2.008V6.209h-2.008zM26.264 5.045h.936V3.178h-.936v1.867zm0 3.735h.936V6.912h-.936V8.78zm0 3.734h.936v-1.867h-.936v1.867zm0 3.735h.936v-1.867h-.936v1.867zm0 3.735h.936v-1.868h-.936v1.868zm0 3.734h.936v-1.867h-.936v1.867zm0 3.735h.936v-1.868h-.936v1.868zm0 3.734h.936V29.32h-.936v1.867zM37.685 29.208c0 .02-.006.04-.018.056-.011.017-.032.03-.062.041a.779.779 0 0 1-.12.024c-.051.007-.115.01-.192.01-.076 0-.139-.003-.188-.01a.72.72 0 0 1-.12-.024.132.132 0 0 1-.062-.041.09.09 0 0 1-.019-.056v-3.291h-.006l-1.177 3.287a.144.144 0 0 1-.04.067.189.189 0 0 1-.077.042.473.473 0 0 1-.124.021 2.477 2.477 0 0 1-.364-.003.596.596 0 0 1-.123-.025.22.22 0 0 1-.077-.042.123.123 0 0 1-.037-.06l-1.136-3.287h-.005v3.291c0 .02-.007.04-.018.056-.011.017-.033.03-.065.041a.787.787 0 0 1-.12.024c-.05.007-.112.01-.19.01-.075 0-.137-.003-.188-.01a.779.779 0 0 1-.12-.024c-.03-.011-.052-.024-.064-.041a.1.1 0 0 1-.016-.056v-3.604c0-.106.028-.188.084-.244a.305.305 0 0 1 .226-.085h.54c.096 0 .178.009.247.024a.437.437 0 0 1 .303.222c.034.06.063.133.089.22l.877 2.41h.014l.908-2.403c.028-.088.057-.162.09-.221a.503.503 0 0 1 .112-.148.37.37 0 0 1 .153-.08.822.822 0 0 1 .203-.024h.556c.056 0 .105.008.146.023a.248.248 0 0 1 .159.167c.014.04.02.087.02.14v3.603zM40.03 26.048h-.003l-.574 1.719h1.151l-.574-1.72zm1.863 2.966c.024.075.04.133.047.177.005.044-.002.077-.026.1-.023.02-.063.035-.122.04a5.564 5.564 0 0 1-.49.003.605.605 0 0 1-.137-.018c-.03-.01-.053-.023-.066-.04a.203.203 0 0 1-.031-.065l-.273-.812h-1.524l-.256.79a.235.235 0 0 1-.034.073.138.138 0 0 1-.066.047.466.466 0 0 1-.128.024 4.246 4.246 0 0 1-.218.006c-.097 0-.172-.004-.226-.01-.054-.006-.092-.02-.112-.044-.022-.025-.029-.06-.023-.103.007-.043.023-.102.047-.175l1.251-3.588a.334.334 0 0 1 .044-.086.156.156 0 0 1 .08-.049.589.589 0 0 1 .153-.022 7.928 7.928 0 0 1 .552 0c.072.002.13.01.17.022.04.011.07.028.088.051a.3.3 0 0 1 .045.094l1.255 3.585zM44.15 29.176a.289.289 0 0 1-.04.087.16.16 0 0 1-.083.05.656.656 0 0 1-.153.02 4.584 4.584 0 0 1-.254.006l-.215-.001c-.06-.001-.11-.004-.152-.009a.541.541 0 0 1-.102-.018.232.232 0 0 1-.066-.032.116.116 0 0 1-.04-.045.315.315 0 0 1-.027-.067L41.81 25.58a.954.954 0 0 1-.045-.177c-.004-.044.005-.076.032-.099.026-.021.07-.035.133-.04a3.73 3.73 0 0 1 .489-.001c.054.003.097.01.126.021.029.01.05.026.06.047.012.02.023.048.033.079l.988 3.119h.003l.97-3.104a.296.296 0 0 1 .03-.085.124.124 0 0 1 .065-.053.383.383 0 0 1 .13-.024 2.993 2.993 0 0 1 .456.003c.054.005.09.021.11.045.02.024.026.058.019.101a1.15 1.15 0 0 1-.049.175l-1.21 3.588zM47.727 30.13a.19.19 0 0 1-.041.065.17.17 0 0 1-.07.04.505.505 0 0 1-.114.025 1.442 1.442 0 0 1-.17.007c-.086 0-.156-.004-.21-.012a.366.366 0 0 1-.124-.037c-.029-.018-.045-.039-.05-.065a.19.19 0 0 1 .014-.092l1.875-5.247a.172.172 0 0 1 .038-.069.198.198 0 0 1 .069-.042.622.622 0 0 1 .114-.023 1.745 1.745 0 0 1 .382.006c.054.008.094.02.121.037.027.017.043.037.047.063a.206.206 0 0 1-.01.093l-1.87 5.25zM53.537 26.47a.592.592 0 0 0-.091-.337.493.493 0 0 0-.298-.194 1.27 1.27 0 0 0-.363-.035h-.37v1.147h.42c.116 0 .218-.014.306-.042a.612.612 0 0 0 .22-.119.482.482 0 0 0 .132-.183.615.615 0 0 0 .044-.237m1.063 2.743a.134.134 0 0 1-.012.059c-.01.016-.03.028-.06.039a.59.59 0 0 1-.138.021 4.128 4.128 0 0 1-.458 0 .42.42 0 0 1-.124-.023.135.135 0 0 1-.064-.044.252.252 0 0 1-.032-.063l-.364-.904a3.812 3.812 0 0 0-.128-.272.9.9 0 0 0-.14-.199.514.514 0 0 0-.176-.12.637.637 0 0 0-.233-.04h-.256v1.541c0 .02-.008.04-.021.055a.146.146 0 0 1-.067.041.7.7 0 0 1-.126.026 1.91 1.91 0 0 1-.4 0 .679.679 0 0 1-.126-.026c-.032-.01-.054-.023-.067-.04a.091.091 0 0 1-.019-.056v-3.673c0-.092.024-.158.072-.199a.258.258 0 0 1 .173-.06h1.05a4.926 4.926 0 0 1 .452.021c.163.024.31.064.44.12.132.056.242.13.333.22.09.09.16.197.208.321.049.124.073.266.073.427 0 .136-.018.26-.052.37a.957.957 0 0 1-.4.527 1.34 1.34 0 0 1-.336.156.904.904 0 0 1 .322.258c.046.06.091.128.133.203.042.077.083.163.122.259l.342.796c.031.08.053.138.063.174.01.036.016.065.016.085M56.665 26.048h-.003l-.574 1.719h1.151l-.574-1.72zm1.863 2.966c.025.075.04.133.047.177.006.044-.002.077-.025.1-.024.02-.064.035-.123.04a5.564 5.564 0 0 1-.49.003.605.605 0 0 1-.137-.018c-.03-.01-.053-.023-.065-.04a.203.203 0 0 1-.032-.065l-.272-.812h-1.524l-.257.79a.235.235 0 0 1-.034.073.138.138 0 0 1-.065.047.466.466 0 0 1-.129.024 4.246 4.246 0 0 1-.218.006c-.096 0-.171-.004-.226-.01-.054-.006-.091-.02-.112-.044-.021-.025-.028-.06-.022-.103.006-.043.022-.102.046-.175l1.252-3.588a.334.334 0 0 1 .044-.086.156.156 0 0 1 .08-.049.589.589 0 0 1 .152-.022 7.928 7.928 0 0 1 .552 0c.073.002.13.01.17.022.041.011.07.028.088.051a.3.3 0 0 1 .045.094l1.255 3.585zM60.785 29.176a.289.289 0 0 1-.04.087.16.16 0 0 1-.082.05.656.656 0 0 1-.154.02 4.584 4.584 0 0 1-.254.006l-.214-.001c-.06-.001-.11-.004-.153-.009a.541.541 0 0 1-.101-.018.232.232 0 0 1-.067-.032.116.116 0 0 1-.04-.045.315.315 0 0 1-.026-.067l-1.208-3.586a.954.954 0 0 1-.045-.177c-.005-.044.004-.076.032-.099.026-.021.07-.035.133-.04a3.73 3.73 0 0 1 .489-.001c.054.003.096.01.125.021.03.01.05.026.06.047.012.02.023.048.034.079l.988 3.119h.003l.969-3.104a.296.296 0 0 1 .031-.085.124.124 0 0 1 .065-.053.383.383 0 0 1 .13-.024 2.993 2.993 0 0 1 .456.003c.053.005.09.021.11.045.02.024.026.058.018.101a1.15 1.15 0 0 1-.048.175l-1.21 3.588z" mask="url(#f)"/>
    </g>
</svg>
