<svg xmlns="http://www.w3.org/2000/svg" xmlns:xlink="http://www.w3.org/1999/xlink" width="51" height="51" viewBox="0 0 51 51">
    <defs>
        <path id="a" d="M21.23 89.208h59v-59h-59z"/>
    </defs>
    <g fill="none" fill-rule="evenodd" transform="translate(-.23 -1.208)">
        <path fill="#4A90E2" d="M18.794 37.613c-9.881 0-17.92-8.044-17.92-17.93 0-9.889 8.039-17.934 17.92-17.934 9.816 0 17.854 7.99 17.92 17.81a.629.629 0 0 1-.625.634c-.292.011-.632-.277-.635-.625-.06-9.13-7.534-16.559-16.66-16.559-9.186 0-16.66 7.48-16.66 16.673 0 9.192 7.474 16.671 16.66 16.671.485 0 .965-.021 1.438-.06a.63.63 0 0 1 .107 1.255c-.51.042-1.025.065-1.545.065"/>
        <path fill="#4A90E2" d="M19.22 20.119a.604.604 0 0 1-.456-.212l-7.237-8.313a.682.682 0 0 1 .037-.926.598.598 0 0 1 .877.04l6.902 7.93 5.955-3.564a.604.604 0 0 1 .845.247.674.674 0 0 1-.233.893l-6.384 3.82a.596.596 0 0 1-.306.085M17.92 7.872c-.242 0-.437-.241-.437-.54V4.914c0-.3.195-.54.437-.54.241 0 .437.24.437.54v2.418c0 .299-.196.54-.437.54M17.92 32.365c-.242 0-.437-.242-.437-.54v-2.42c0-.298.195-.54.437-.54.241 0 .437.242.437.54v2.42c0 .298-.196.54-.437.54M4.036 19.244c-.299 0-.54-.196-.54-.437 0-.242.241-.438.54-.438h2.417c.298 0 .54.196.54.438 0 .24-.242.437-.54.437H4.036z"/>
        <path fill="#D4F7F3" d="M27.972 27.242h16.609v-3.5H27.972z"/>
        <path fill="#4A90E2" d="M28.317 26.945h15.045v-2.031H28.317v2.031zm-1.219 1.171h17.483v-4.373H27.098v4.373z"/>
        <path fill="#D4F7F3" d="M29.72 30.74H46.33v-3.498H29.72z"/>
        <path fill="#4A90E2" d="M30.065 29.57H45.11v-2.032H30.065v2.032zm-1.219 1.17H46.33v-4.373H28.846v4.374z"/>
        <path fill="#D4F7F3" d="M24 33.499h16.609V30H24z"/>
        <path fill="#4A90E2" d="M25 33.032h15.045V31H25v2.032zm-1 1.342h17.483V30H24v4.374z"/>
        <path fill="#D4F7F3" d="M37.223 36.738H24.476V33.24h16.608v2.553M34.214 40.237h-9.738v-3.499h13.112"/>
        <path fill="#D4F7F3" d="M34.456 42.861h-9.98v-3.499h11.363"/>
        <path fill="#4A90E2" d="M34.428 43.736H23.602v-4.374h12.237v1.171H24.894v2.032h9.534z"/>
        <path fill="#D4F7F3" d="M35.84 46.36H24.475v-3.499h9.813"/>
        <path fill="#4A90E2" d="M36.695 37.613H24.729v2.095c0 .667-.376.667-1.127 0V33.24h17.482v2.922h-1.219v-1.75H24.82v2.031h13.41l-1.535 1.171zM35.84 46.36H23.601v-4.373h10.653v1.17h-9.409v2.033H35.84z"/>
        <path fill="#FFF" d="M42.867 50.87c-4.345 0-7.867-3.329-7.867-7.434C35 39.329 38.522 36 42.867 36c4.345 0 7.867 3.329 7.867 7.436 0 4.105-3.522 7.434-7.867 7.434z"/>
        <mask id="b" fill="#fff">
            <use xlink:href="#a"/>
        </mask>
        <path fill="#4A90E2" d="M42.395 36.229c-3.896 0-7.065 3.171-7.065 7.07 0 3.898 3.17 7.07 7.065 7.07 3.896 0 7.066-3.172 7.066-7.07 0-3.899-3.17-7.07-7.066-7.07m-8.304 7.07c0-4.583 3.725-8.31 8.304-8.31 4.579 0 8.305 3.727 8.305 8.31 0 4.581-3.726 8.31-8.305 8.31-4.58 0-8.304-3.729-8.304-8.31z" mask="url(#b)"/>
        <path fill="#4A90E2" d="M40.919 45.338s.597-.622.597-1.433l-.002-.072c0-.034.01-.065.01-.101v-.817h2.021V41.892h-2.02v-1.269c0-.365.094-.655.282-.862.192-.211.461-.318.8-.318.388 0 .841.1 1.349.296l.345-.888a4.954 4.954 0 0 0-1.83-.363c-.693 0-1.23.185-1.6.549-.371.365-.552.88-.552 1.576v1.279h-.983v1.023h.983v.83c0 .413-.081.749-.243.999-.145.224-.385.415-.727.584v1.032h5.232v-1.022h-3.662z" mask="url(#b)"/>
    </g>
</svg>
